<svg xmlns="http://www.w3.org/2000/svg" xmlns:xlink="http://www.w3.org/1999/xlink" width="500" zoomAndPan="magnify" viewBox="0 0 375 374.999991" height="500" preserveAspectRatio="xMidYMid meet" version="1.0"><defs><g/><clipPath id="4193bd7999"><path d="M 29.503906 18.75 L 345.496094 18.75 L 345.496094 356.25 L 29.503906 356.25 Z M 29.503906 18.75 " clip-rule="nonzero"/></clipPath><clipPath id="3250d94fd2"><path d="M 46.753906 18.75 L 328.246094 18.75 C 332.820312 18.75 337.207031 20.566406 340.445312 23.800781 C 343.679688 27.039062 345.496094 31.425781 345.496094 36 L 345.496094 339 C 345.496094 343.574219 343.679688 347.960938 340.445312 351.199219 C 337.207031 354.433594 332.820312 356.25 328.246094 356.25 L 46.753906 356.25 C 42.179688 356.25 37.792969 354.433594 34.554688 351.199219 C 31.320312 347.960938 29.503906 343.574219 29.503906 339 L 29.503906 36 C 29.503906 31.425781 31.320312 27.039062 34.554688 23.800781 C 37.792969 20.566406 42.179688 18.75 46.753906 18.75 Z M 46.753906 18.75 " clip-rule="nonzero"/></clipPath><linearGradient x1="-0.000000324376" gradientTransform="matrix(1.234346, 0, 0, 1.318359, 29.503679, 18.75)" y1="-0.000000324376" x2="255.999997" gradientUnits="userSpaceOnUse" y2="255.999997" id="b5c449f4e6"><stop stop-opacity="1" stop-color="rgb(100%, 89.399719%, 57.299805%)" offset="0"/><stop stop-opacity="1" stop-color="rgb(100%, 89.292908%, 57.266235%)" offset="0.0078125"/><stop stop-opacity="1" stop-color="rgb(100%, 89.082336%, 57.202148%)" offset="0.015625"/><stop stop-opacity="1" stop-color="rgb(100%, 88.871765%, 57.136536%)" offset="0.0234375"/><stop stop-opacity="1" stop-color="rgb(100%, 88.661194%, 57.072449%)" offset="0.03125"/><stop stop-opacity="1" stop-color="rgb(100%, 88.449097%, 57.006836%)" offset="0.0390625"/><stop stop-opacity="1" stop-color="rgb(100%, 88.238525%, 56.942749%)" offset="0.046875"/><stop stop-opacity="1" stop-color="rgb(100%, 88.027954%, 56.877136%)" offset="0.0546875"/><stop stop-opacity="1" stop-color="rgb(100%, 87.817383%, 56.813049%)" offset="0.0625"/><stop stop-opacity="1" stop-color="rgb(100%, 87.606812%, 56.747437%)" offset="0.0703125"/><stop stop-opacity="1" stop-color="rgb(100%, 87.394714%, 56.68335%)" offset="0.078125"/><stop stop-opacity="1" stop-color="rgb(100%, 87.184143%, 56.617737%)" offset="0.0859375"/><stop stop-opacity="1" stop-color="rgb(100%, 86.973572%, 56.55365%)" offset="0.09375"/><stop stop-opacity="1" stop-color="rgb(100%, 86.763%, 56.488037%)" offset="0.101562"/><stop stop-opacity="1" stop-color="rgb(100%, 86.550903%, 56.42395%)" offset="0.109375"/><stop stop-opacity="1" stop-color="rgb(100%, 86.340332%, 56.358337%)" offset="0.117188"/><stop stop-opacity="1" stop-color="rgb(100%, 86.129761%, 56.29425%)" offset="0.125"/><stop stop-opacity="1" stop-color="rgb(100%, 85.919189%, 56.228638%)" offset="0.132812"/><stop stop-opacity="1" stop-color="rgb(100%, 85.707092%, 56.164551%)" offset="0.140625"/><stop stop-opacity="1" stop-color="rgb(100%, 85.496521%, 56.098938%)" offset="0.148438"/><stop stop-opacity="1" stop-color="rgb(100%, 85.28595%, 56.034851%)" offset="0.15625"/><stop stop-opacity="1" stop-color="rgb(100%, 85.075378%, 55.969238%)" offset="0.164062"/><stop stop-opacity="1" stop-color="rgb(100%, 84.863281%, 55.905151%)" offset="0.171875"/><stop stop-opacity="1" stop-color="rgb(100%, 84.65271%, 55.839539%)" offset="0.179688"/><stop stop-opacity="1" stop-color="rgb(100%, 84.442139%, 55.775452%)" offset="0.1875"/><stop stop-opacity="1" stop-color="rgb(100%, 84.231567%, 55.709839%)" offset="0.195312"/><stop stop-opacity="1" stop-color="rgb(100%, 84.01947%, 55.645752%)" offset="0.203125"/><stop stop-opacity="1" stop-color="rgb(100%, 83.808899%, 55.580139%)" offset="0.210938"/><stop stop-opacity="1" stop-color="rgb(100%, 83.598328%, 55.516052%)" offset="0.21875"/><stop stop-opacity="1" stop-color="rgb(100%, 83.387756%, 55.450439%)" offset="0.226562"/><stop stop-opacity="1" stop-color="rgb(100%, 83.175659%, 55.386353%)" offset="0.234375"/><stop stop-opacity="1" stop-color="rgb(100%, 82.965088%, 55.32074%)" offset="0.242188"/><stop stop-opacity="1" stop-color="rgb(100%, 82.754517%, 55.256653%)" offset="0.25"/><stop stop-opacity="1" stop-color="rgb(100%, 82.543945%, 55.19104%)" offset="0.257813"/><stop stop-opacity="1" stop-color="rgb(100%, 82.333374%, 55.126953%)" offset="0.265625"/><stop stop-opacity="1" stop-color="rgb(100%, 82.121277%, 55.06134%)" offset="0.273438"/><stop stop-opacity="1" stop-color="rgb(100%, 81.910706%, 54.997253%)" offset="0.28125"/><stop stop-opacity="1" stop-color="rgb(100%, 81.700134%, 54.931641%)" offset="0.289063"/><stop stop-opacity="1" stop-color="rgb(100%, 81.489563%, 54.867554%)" offset="0.296875"/><stop stop-opacity="1" stop-color="rgb(100%, 81.277466%, 54.801941%)" offset="0.304688"/><stop stop-opacity="1" stop-color="rgb(100%, 81.066895%, 54.737854%)" offset="0.3125"/><stop stop-opacity="1" stop-color="rgb(100%, 80.856323%, 54.672241%)" offset="0.320313"/><stop stop-opacity="1" stop-color="rgb(100%, 80.645752%, 54.608154%)" offset="0.328125"/><stop stop-opacity="1" stop-color="rgb(100%, 80.433655%, 54.542542%)" offset="0.335938"/><stop stop-opacity="1" stop-color="rgb(100%, 80.223083%, 54.478455%)" offset="0.34375"/><stop stop-opacity="1" stop-color="rgb(100%, 80.012512%, 54.412842%)" offset="0.351563"/><stop stop-opacity="1" stop-color="rgb(100%, 79.801941%, 54.348755%)" offset="0.359375"/><stop stop-opacity="1" stop-color="rgb(100%, 79.589844%, 54.283142%)" offset="0.367188"/><stop stop-opacity="1" stop-color="rgb(100%, 79.379272%, 54.219055%)" offset="0.375"/><stop stop-opacity="1" stop-color="rgb(100%, 79.168701%, 54.153442%)" offset="0.382813"/><stop stop-opacity="1" stop-color="rgb(100%, 78.95813%, 54.089355%)" offset="0.390625"/><stop stop-opacity="1" stop-color="rgb(100%, 78.746033%, 54.023743%)" offset="0.398438"/><stop stop-opacity="1" stop-color="rgb(100%, 78.535461%, 53.959656%)" offset="0.40625"/><stop stop-opacity="1" stop-color="rgb(100%, 78.32489%, 53.894043%)" offset="0.414063"/><stop stop-opacity="1" stop-color="rgb(100%, 78.114319%, 53.829956%)" offset="0.421875"/><stop stop-opacity="1" stop-color="rgb(100%, 77.902222%, 53.764343%)" offset="0.429688"/><stop stop-opacity="1" stop-color="rgb(100%, 77.69165%, 53.700256%)" offset="0.4375"/><stop stop-opacity="1" stop-color="rgb(100%, 77.481079%, 53.634644%)" offset="0.445313"/><stop stop-opacity="1" stop-color="rgb(100%, 77.270508%, 53.570557%)" offset="0.453125"/><stop stop-opacity="1" stop-color="rgb(100%, 77.059937%, 53.504944%)" offset="0.460938"/><stop stop-opacity="1" stop-color="rgb(100%, 76.847839%, 53.440857%)" offset="0.46875"/><stop stop-opacity="1" stop-color="rgb(100%, 76.637268%, 53.375244%)" offset="0.476563"/><stop stop-opacity="1" stop-color="rgb(100%, 76.426697%, 53.311157%)" offset="0.484375"/><stop stop-opacity="1" stop-color="rgb(100%, 76.216125%, 53.245544%)" offset="0.492188"/><stop stop-opacity="1" stop-color="rgb(100%, 76.004028%, 53.181458%)" offset="0.5"/><stop stop-opacity="1" stop-color="rgb(100%, 75.898743%, 53.149414%)" offset="0.5"/><stop stop-opacity="1" stop-color="rgb(100%, 75.793457%, 53.115845%)" offset="0.5"/><stop stop-opacity="1" stop-color="rgb(100%, 75.688171%, 53.083801%)" offset="0.507812"/><stop stop-opacity="1" stop-color="rgb(100%, 75.582886%, 53.051758%)" offset="0.515625"/><stop stop-opacity="1" stop-color="rgb(100%, 75.372314%, 52.986145%)" offset="0.523438"/><stop stop-opacity="1" stop-color="rgb(100%, 75.160217%, 52.922058%)" offset="0.53125"/><stop stop-opacity="1" stop-color="rgb(100%, 74.949646%, 52.856445%)" offset="0.539063"/><stop stop-opacity="1" stop-color="rgb(100%, 74.739075%, 52.792358%)" offset="0.546875"/><stop stop-opacity="1" stop-color="rgb(100%, 74.528503%, 52.726746%)" offset="0.554688"/><stop stop-opacity="1" stop-color="rgb(100%, 74.316406%, 52.662659%)" offset="0.5625"/><stop stop-opacity="1" stop-color="rgb(100%, 74.105835%, 52.597046%)" offset="0.570313"/><stop stop-opacity="1" stop-color="rgb(100%, 73.895264%, 52.532959%)" offset="0.578125"/><stop stop-opacity="1" stop-color="rgb(100%, 73.684692%, 52.467346%)" offset="0.585938"/><stop stop-opacity="1" stop-color="rgb(100%, 73.472595%, 52.403259%)" offset="0.59375"/><stop stop-opacity="1" stop-color="rgb(100%, 73.262024%, 52.337646%)" offset="0.601563"/><stop stop-opacity="1" stop-color="rgb(100%, 73.051453%, 52.27356%)" offset="0.609375"/><stop stop-opacity="1" stop-color="rgb(100%, 72.840881%, 52.207947%)" offset="0.617188"/><stop stop-opacity="1" stop-color="rgb(100%, 72.628784%, 52.14386%)" offset="0.625"/><stop stop-opacity="1" stop-color="rgb(100%, 72.418213%, 52.078247%)" offset="0.632813"/><stop stop-opacity="1" stop-color="rgb(100%, 72.207642%, 52.01416%)" offset="0.640625"/><stop stop-opacity="1" stop-color="rgb(100%, 71.99707%, 51.948547%)" offset="0.648438"/><stop stop-opacity="1" stop-color="rgb(100%, 71.786499%, 51.88446%)" offset="0.65625"/><stop stop-opacity="1" stop-color="rgb(100%, 71.574402%, 51.818848%)" offset="0.664063"/><stop stop-opacity="1" stop-color="rgb(100%, 71.363831%, 51.754761%)" offset="0.671875"/><stop stop-opacity="1" stop-color="rgb(100%, 71.153259%, 51.689148%)" offset="0.679688"/><stop stop-opacity="1" stop-color="rgb(100%, 70.942688%, 51.625061%)" offset="0.6875"/><stop stop-opacity="1" stop-color="rgb(100%, 70.730591%, 51.559448%)" offset="0.695313"/><stop stop-opacity="1" stop-color="rgb(100%, 70.52002%, 51.495361%)" offset="0.703125"/><stop stop-opacity="1" stop-color="rgb(100%, 70.309448%, 51.429749%)" offset="0.710938"/><stop stop-opacity="1" stop-color="rgb(100%, 70.098877%, 51.365662%)" offset="0.71875"/><stop stop-opacity="1" stop-color="rgb(100%, 69.88678%, 51.301575%)" offset="0.726563"/><stop stop-opacity="1" stop-color="rgb(100%, 69.676208%, 51.235962%)" offset="0.734375"/><stop stop-opacity="1" stop-color="rgb(100%, 69.465637%, 51.171875%)" offset="0.742188"/><stop stop-opacity="1" stop-color="rgb(100%, 69.255066%, 51.106262%)" offset="0.75"/><stop stop-opacity="1" stop-color="rgb(100%, 69.042969%, 51.042175%)" offset="0.757812"/><stop stop-opacity="1" stop-color="rgb(100%, 68.832397%, 50.976562%)" offset="0.765625"/><stop stop-opacity="1" stop-color="rgb(100%, 68.621826%, 50.912476%)" offset="0.773438"/><stop stop-opacity="1" stop-color="rgb(100%, 68.411255%, 50.846863%)" offset="0.78125"/><stop stop-opacity="1" stop-color="rgb(100%, 68.199158%, 50.782776%)" offset="0.789062"/><stop stop-opacity="1" stop-color="rgb(100%, 67.988586%, 50.717163%)" offset="0.796875"/><stop stop-opacity="1" stop-color="rgb(100%, 67.778015%, 50.653076%)" offset="0.804688"/><stop stop-opacity="1" stop-color="rgb(100%, 67.567444%, 50.587463%)" offset="0.8125"/><stop stop-opacity="1" stop-color="rgb(100%, 67.355347%, 50.523376%)" offset="0.820312"/><stop stop-opacity="1" stop-color="rgb(100%, 67.144775%, 50.457764%)" offset="0.828125"/><stop stop-opacity="1" stop-color="rgb(100%, 66.934204%, 50.393677%)" offset="0.835938"/><stop stop-opacity="1" stop-color="rgb(100%, 66.723633%, 50.328064%)" offset="0.84375"/><stop stop-opacity="1" stop-color="rgb(100%, 66.513062%, 50.263977%)" offset="0.851562"/><stop stop-opacity="1" stop-color="rgb(100%, 66.300964%, 50.198364%)" offset="0.859375"/><stop stop-opacity="1" stop-color="rgb(100%, 66.090393%, 50.134277%)" offset="0.867188"/><stop stop-opacity="1" stop-color="rgb(100%, 65.879822%, 50.068665%)" offset="0.875"/><stop stop-opacity="1" stop-color="rgb(100%, 65.66925%, 50.004578%)" offset="0.882812"/><stop stop-opacity="1" stop-color="rgb(100%, 65.457153%, 49.938965%)" offset="0.890625"/><stop stop-opacity="1" stop-color="rgb(100%, 65.246582%, 49.874878%)" offset="0.898438"/><stop stop-opacity="1" stop-color="rgb(100%, 65.036011%, 49.809265%)" offset="0.90625"/><stop stop-opacity="1" stop-color="rgb(100%, 64.825439%, 49.745178%)" offset="0.914062"/><stop stop-opacity="1" stop-color="rgb(100%, 64.613342%, 49.679565%)" offset="0.921875"/><stop stop-opacity="1" stop-color="rgb(100%, 64.402771%, 49.615479%)" offset="0.929688"/><stop stop-opacity="1" stop-color="rgb(100%, 64.1922%, 49.549866%)" offset="0.9375"/><stop stop-opacity="1" stop-color="rgb(100%, 63.981628%, 49.485779%)" offset="0.945312"/><stop stop-opacity="1" stop-color="rgb(100%, 63.769531%, 49.420166%)" offset="0.953125"/><stop stop-opacity="1" stop-color="rgb(100%, 63.55896%, 49.356079%)" offset="0.960938"/><stop stop-opacity="1" stop-color="rgb(100%, 63.348389%, 49.290466%)" offset="0.96875"/><stop stop-opacity="1" stop-color="rgb(100%, 63.137817%, 49.226379%)" offset="0.976562"/><stop stop-opacity="1" stop-color="rgb(100%, 62.92572%, 49.160767%)" offset="0.984375"/><stop stop-opacity="1" stop-color="rgb(100%, 62.715149%, 49.09668%)" offset="0.992188"/><stop stop-opacity="1" stop-color="rgb(100%, 62.504578%, 49.031067%)" offset="1"/></linearGradient></defs><g clip-path="url(#4193bd7999)"><g clip-path="url(#3250d94fd2)"><path fill="url(#b5c449f4e6)" d="M 29.503906 18.75 L 29.503906 356.25 L 345.496094 356.25 L 345.496094 18.75 Z M 29.503906 18.75 " fill-rule="nonzero"/></g></g><g fill="#364f6b" fill-opacity="1"><g transform="translate(90.671873, 290.955669)"><g><path d="M 148.828125 -86.425781 L 147.507812 -208.738281 L 147.363281 -208.59375 L 147.363281 -208.738281 C 143.847656 -208.007812 140.769531 -207.566406 138.132812 -207.421875 C 132.714844 -207.273438 128.320312 -207.714844 124.363281 -208.886719 C 122.3125 -209.324219 120.261719 -209.910156 118.066406 -210.351562 C 113.671875 -211.375 108.542969 -212.253906 101.953125 -212.253906 C 94.921875 -212.253906 90.378906 -210.9375 85.839844 -207.421875 C 81.296875 -203.757812 77.050781 -197.898438 71.042969 -188.671875 L 0.878906 -86.425781 C -1.902344 -82.324219 -4.832031 -76.464844 -4.832031 -71.335938 C -4.832031 -64.304688 -2.929688 -61.082031 -1.316406 -58.300781 C 0.292969 -55.515625 1.464844 -52.878906 -0.144531 -47.460938 C 8.203125 -46.726562 21.824219 -46.140625 37.792969 -45.703125 C 53.613281 -45.261719 71.777344 -45.261719 89.941406 -45.261719 C 89.355469 -29.882812 88.621094 -16.84375 87.597656 -9.082031 C 88.769531 -6.296875 92.722656 -2.929688 97.703125 -0.144531 C 102.683594 2.636719 108.835938 4.6875 114.84375 4.6875 C 131.980469 4.6875 140.769531 1.464844 145.164062 -4.980469 C 149.558594 -11.277344 149.558594 -20.652344 149.414062 -33.398438 L 149.265625 -46.140625 C 157.03125 -46.289062 163.621094 -46.582031 169.042969 -47.019531 C 174.460938 -47.3125 178.125 -47.605469 180.175781 -48.046875 L 180.90625 -88.328125 C 171.972656 -87.597656 161.132812 -86.863281 148.828125 -86.425781 Z M 90.964844 -117.480469 C 90.964844 -106.933594 90.820312 -96.238281 90.671875 -85.398438 C 76.464844 -85.253906 62.546875 -85.253906 48.925781 -85.398438 C 51.121094 -88.769531 53.757812 -92.578125 56.835938 -97.117188 C 59.910156 -101.660156 63.28125 -106.492188 66.941406 -111.765625 L 78.515625 -128.464844 C 82.46875 -134.324219 86.71875 -140.183594 90.964844 -146.191406 Z M 90.964844 -117.480469 "/></g></g></g><g fill="#545454" fill-opacity="1"><g transform="translate(243.861059, 192.033807)"><g><path d="M 14.273438 0.714844 C 19.640625 0.714844 23.183594 -0.734375 25.398438 -3.113281 C 27.601562 -5.492188 28.441406 -8.78125 28.441406 -12.503906 C 28.441406 -13.664062 28.367188 -15.382812 28.242188 -17.117188 C 28.101562 -18.851562 27.902344 -20.589844 27.671875 -21.785156 C 27.261719 -23.648438 26.742188 -24.59375 25.902344 -25.078125 C 25.042969 -25.5625 23.898438 -25.542969 22.269531 -25.542969 C 20.765625 -25.523438 20.160156 -25.058594 19.996094 -24.148438 C 19.835938 -23.234375 20.140625 -21.859375 20.5 -19.996094 L 20.625 -18.976562 C 20.714844 -18.121094 20.820312 -17.082031 20.910156 -16.027344 C 20.980469 -14.953125 21.070312 -14.003906 21.105469 -13.308594 C 21.125 -12.96875 21.125 -12.734375 21.125 -12.609375 C 21.125 -9.964844 20.785156 -7.691406 19.855469 -6.0625 C 18.90625 -4.417969 17.316406 -3.46875 14.863281 -3.46875 C 13.289062 -3.46875 12.003906 -4.132812 11.089844 -5.582031 C 10.179688 -7.03125 9.660156 -9.300781 9.660156 -12.519531 C 9.660156 -15.957031 9.695312 -18.566406 9.730469 -20.660156 C 9.765625 -22.734375 9.765625 -24.273438 9.75 -25.507812 L 2.484375 -25.167969 C 2.34375 -23.648438 2.234375 -21.625 2.164062 -19.40625 C 2.09375 -17.171875 2.058594 -14.722656 2.058594 -12.304688 C 2.058594 -8.085938 2.953125 -4.828125 4.9375 -2.628906 C 6.921875 -0.410156 9.980469 0.714844 14.273438 0.714844 Z M 14.273438 0.714844 "/></g></g></g><g fill="#545454" fill-opacity="1"><g transform="translate(247.106823, 118.394458)"><g><path d="M 11.449219 0.519531 C 13.039062 0.519531 14.808594 0.304688 16.457031 -0.195312 C 18.082031 -0.699219 19.585938 -1.484375 20.695312 -2.683594 C 21.804688 -3.882812 22.484375 -5.457031 22.484375 -7.476562 C 22.484375 -8.765625 22.25 -9.855469 21.769531 -10.769531 C 20.820312 -12.558594 19.230469 -13.773438 17.296875 -14.578125 C 15.347656 -15.363281 13.523438 -15.867188 12.019531 -16.257812 C 11.269531 -16.457031 10.605469 -16.652344 10.035156 -16.851562 C 8.890625 -17.242188 8.136719 -17.671875 8.136719 -18.296875 C 8.136719 -18.871094 8.550781 -19.316406 9.175781 -19.621094 C 9.800781 -19.925781 10.625 -20.105469 11.484375 -20.105469 C 12.644531 -20.105469 14.238281 -19.78125 15.703125 -19.316406 C 17.171875 -18.851562 18.476562 -18.261719 19.175781 -17.742188 L 21.375 -23.074219 C 20.570312 -23.878906 19.265625 -24.613281 17.601562 -25.132812 C 15.9375 -25.632812 13.898438 -25.9375 11.609375 -25.9375 C 8.300781 -25.9375 5.742188 -25.09375 4.023438 -23.683594 C 2.289062 -22.25 1.378906 -20.285156 1.378906 -17.996094 C 1.378906 -16.957031 1.574219 -16.0625 1.96875 -15.328125 C 2.753906 -13.828125 4.078125 -12.808594 5.722656 -12.089844 C 7.371094 -11.375 9.085938 -10.875 10.75 -10.464844 C 11.589844 -10.25 12.34375 -10.015625 13.003906 -9.785156 C 14.34375 -9.300781 15.257812 -8.710938 15.257812 -7.78125 C 15.257812 -7.046875 14.808594 -6.476562 14.113281 -6.117188 C 13.398438 -5.742188 12.46875 -5.546875 11.484375 -5.546875 C 10.554688 -5.546875 9.710938 -5.671875 8.960938 -5.9375 C 7.441406 -6.457031 6.226562 -7.191406 5.1875 -7.835938 C 4.667969 -8.15625 4.167969 -8.371094 3.703125 -8.476562 C 2.484375 -8.746094 1.644531 -8.351562 1.109375 -7.710938 C 0.574219 -7.046875 0.320312 -6.117188 0.375 -5.277344 C 0.535156 -3.972656 1.699219 -2.523438 3.632812 -1.394531 C 5.5625 -0.269531 8.246094 0.519531 11.449219 0.519531 Z M 11.449219 0.519531 "/></g></g></g><g fill="#545454" fill-opacity="1"><g transform="translate(247.596264, 155.214132)"><g><path d="M 12.003906 0.535156 C 12.734375 0.535156 13.503906 0.285156 14.058594 -0.0351562 C 14.613281 -0.359375 14.972656 -0.785156 14.917969 -1.164062 C 14.792969 -1.824219 14.703125 -2.648438 14.632812 -3.632812 C 14.488281 -5.617188 14.382812 -7.996094 14.328125 -10.570312 C 14.273438 -13.128906 14.273438 -15.652344 14.273438 -17.90625 C 14.273438 -19.03125 14.273438 -20.015625 14.292969 -20.875 C 16.457031 -20.820312 18.316406 -20.695312 19.675781 -20.5 C 20.675781 -20.355469 21.410156 -20.640625 21.894531 -21.125 C 22.375 -21.609375 22.609375 -22.25 22.609375 -22.804688 C 22.609375 -23.449219 22.449219 -24.058594 22.109375 -24.523438 C 21.75 -24.988281 21.25 -25.308594 20.605469 -25.382812 C 19.03125 -25.542969 16.902344 -25.648438 14.558594 -25.648438 C 12.21875 -25.648438 9.660156 -25.578125 7.207031 -25.398438 C 4.757812 -25.222656 2.414062 -24.953125 0.5 -24.59375 L 0.785156 -20.445312 C 2.773438 -20.640625 4.992188 -20.765625 7.226562 -20.839844 C 7.207031 -20.085938 7.207031 -19.230469 7.191406 -18.261719 L 7.136719 -15.222656 C 7.117188 -13.109375 7.082031 -10.929688 7.082031 -9.105469 C 7.066406 -7.28125 7.082031 -5.777344 7.101562 -5.078125 C 7.171875 -3.078125 7.371094 -1.679688 8.050781 -0.769531 C 8.730469 0.144531 9.910156 0.535156 12.003906 0.535156 Z M 12.003906 0.535156 "/></g></g></g></svg>