<svg xmlns="http://www.w3.org/2000/svg" xmlns:xlink="http://www.w3.org/1999/xlink" width="320" zoomAndPan="magnify" viewBox="0 0 240 119.999999" height="160" preserveAspectRatio="xMidYMid meet" version="1.0"><defs><g/><clipPath id="4242548ba4"><path d="M 5.484375 -0.515625 L 234.515625 -0.515625 C 235.96875 -0.515625 237.367188 0.0625 238.394531 1.089844 C 239.421875 2.117188 240 3.511719 240 4.96875 L 240 114.515625 C 240 115.96875 239.421875 117.367188 238.394531 118.394531 C 237.367188 119.421875 235.96875 120 234.515625 120 L 5.484375 120 C 4.03125 120 2.632812 119.421875 1.605469 118.394531 C 0.578125 117.367188 0 115.96875 0 114.515625 L 0 4.96875 C 0 3.511719 0.578125 2.117188 1.605469 1.089844 C 2.632812 0.0625 4.03125 -0.515625 5.484375 -0.515625 Z M 5.484375 -0.515625 " clip-rule="nonzero"/></clipPath><linearGradient x1="44.048776" gradientTransform="matrix(0.558139, 0, 0, 0.470768, 0.0000015, -0.516691)" y1="-42.951224" x2="386.499993" gradientUnits="userSpaceOnUse" y2="299.499993" id="b16938730a"><stop stop-opacity="1" stop-color="rgb(100%, 89.355469%, 57.286072%)" offset="0"/><stop stop-opacity="1" stop-color="rgb(100%, 89.250183%, 57.252502%)" offset="0.0078125"/><stop stop-opacity="1" stop-color="rgb(100%, 89.039612%, 57.188416%)" offset="0.015625"/><stop stop-opacity="1" stop-color="rgb(100%, 88.829041%, 57.124329%)" offset="0.0234375"/><stop stop-opacity="1" stop-color="rgb(100%, 88.618469%, 57.058716%)" offset="0.03125"/><stop stop-opacity="1" stop-color="rgb(100%, 88.407898%, 56.994629%)" offset="0.0390625"/><stop stop-opacity="1" stop-color="rgb(100%, 88.197327%, 56.929016%)" offset="0.046875"/><stop stop-opacity="1" stop-color="rgb(100%, 87.986755%, 56.864929%)" offset="0.0546875"/><stop stop-opacity="1" stop-color="rgb(100%, 87.776184%, 56.800842%)" offset="0.0625"/><stop stop-opacity="1" stop-color="rgb(100%, 87.565613%, 56.735229%)" offset="0.0703125"/><stop stop-opacity="1" stop-color="rgb(100%, 87.355042%, 56.671143%)" offset="0.078125"/><stop stop-opacity="1" stop-color="rgb(100%, 87.14447%, 56.60553%)" offset="0.0859375"/><stop stop-opacity="1" stop-color="rgb(100%, 86.933899%, 56.541443%)" offset="0.09375"/><stop stop-opacity="1" stop-color="rgb(100%, 86.723328%, 56.47583%)" offset="0.101562"/><stop stop-opacity="1" stop-color="rgb(100%, 86.512756%, 56.411743%)" offset="0.109375"/><stop stop-opacity="1" stop-color="rgb(100%, 86.302185%, 56.347656%)" offset="0.117188"/><stop stop-opacity="1" stop-color="rgb(100%, 86.091614%, 56.282043%)" offset="0.125"/><stop stop-opacity="1" stop-color="rgb(100%, 85.881042%, 56.217957%)" offset="0.132813"/><stop stop-opacity="1" stop-color="rgb(100%, 85.670471%, 56.152344%)" offset="0.140625"/><stop stop-opacity="1" stop-color="rgb(100%, 85.4599%, 56.088257%)" offset="0.148438"/><stop stop-opacity="1" stop-color="rgb(100%, 85.249329%, 56.022644%)" offset="0.15625"/><stop stop-opacity="1" stop-color="rgb(100%, 85.038757%, 55.958557%)" offset="0.164063"/><stop stop-opacity="1" stop-color="rgb(100%, 84.828186%, 55.89447%)" offset="0.171875"/><stop stop-opacity="1" stop-color="rgb(100%, 84.617615%, 55.828857%)" offset="0.179688"/><stop stop-opacity="1" stop-color="rgb(100%, 84.407043%, 55.764771%)" offset="0.1875"/><stop stop-opacity="1" stop-color="rgb(100%, 84.196472%, 55.699158%)" offset="0.195313"/><stop stop-opacity="1" stop-color="rgb(100%, 83.985901%, 55.635071%)" offset="0.203125"/><stop stop-opacity="1" stop-color="rgb(100%, 83.77533%, 55.569458%)" offset="0.210938"/><stop stop-opacity="1" stop-color="rgb(100%, 83.564758%, 55.505371%)" offset="0.21875"/><stop stop-opacity="1" stop-color="rgb(100%, 83.354187%, 55.441284%)" offset="0.226563"/><stop stop-opacity="1" stop-color="rgb(100%, 83.143616%, 55.375671%)" offset="0.234375"/><stop stop-opacity="1" stop-color="rgb(100%, 82.933044%, 55.311584%)" offset="0.242188"/><stop stop-opacity="1" stop-color="rgb(100%, 82.722473%, 55.245972%)" offset="0.25"/><stop stop-opacity="1" stop-color="rgb(100%, 82.511902%, 55.181885%)" offset="0.257813"/><stop stop-opacity="1" stop-color="rgb(100%, 82.301331%, 55.116272%)" offset="0.265625"/><stop stop-opacity="1" stop-color="rgb(100%, 82.090759%, 55.052185%)" offset="0.273438"/><stop stop-opacity="1" stop-color="rgb(100%, 81.880188%, 54.988098%)" offset="0.28125"/><stop stop-opacity="1" stop-color="rgb(100%, 81.669617%, 54.922485%)" offset="0.289063"/><stop stop-opacity="1" stop-color="rgb(100%, 81.459045%, 54.858398%)" offset="0.296875"/><stop stop-opacity="1" stop-color="rgb(100%, 81.248474%, 54.792786%)" offset="0.304688"/><stop stop-opacity="1" stop-color="rgb(100%, 81.037903%, 54.728699%)" offset="0.3125"/><stop stop-opacity="1" stop-color="rgb(100%, 80.827332%, 54.663086%)" offset="0.320313"/><stop stop-opacity="1" stop-color="rgb(100%, 80.61676%, 54.598999%)" offset="0.328125"/><stop stop-opacity="1" stop-color="rgb(100%, 80.406189%, 54.534912%)" offset="0.335938"/><stop stop-opacity="1" stop-color="rgb(100%, 80.195618%, 54.469299%)" offset="0.34375"/><stop stop-opacity="1" stop-color="rgb(100%, 79.985046%, 54.405212%)" offset="0.351563"/><stop stop-opacity="1" stop-color="rgb(100%, 79.774475%, 54.3396%)" offset="0.359375"/><stop stop-opacity="1" stop-color="rgb(100%, 79.562378%, 54.275513%)" offset="0.367188"/><stop stop-opacity="1" stop-color="rgb(100%, 79.351807%, 54.2099%)" offset="0.372173"/><stop stop-opacity="1" stop-color="rgb(100%, 79.246521%, 54.177856%)" offset="0.375"/><stop stop-opacity="1" stop-color="rgb(100%, 79.141235%, 54.145813%)" offset="0.382813"/><stop stop-opacity="1" stop-color="rgb(100%, 78.930664%, 54.081726%)" offset="0.390625"/><stop stop-opacity="1" stop-color="rgb(100%, 78.720093%, 54.016113%)" offset="0.398438"/><stop stop-opacity="1" stop-color="rgb(100%, 78.509521%, 53.952026%)" offset="0.40625"/><stop stop-opacity="1" stop-color="rgb(100%, 78.29895%, 53.886414%)" offset="0.414063"/><stop stop-opacity="1" stop-color="rgb(100%, 78.088379%, 53.822327%)" offset="0.421875"/><stop stop-opacity="1" stop-color="rgb(100%, 77.877808%, 53.756714%)" offset="0.429688"/><stop stop-opacity="1" stop-color="rgb(100%, 77.667236%, 53.692627%)" offset="0.4375"/><stop stop-opacity="1" stop-color="rgb(100%, 77.456665%, 53.62854%)" offset="0.445313"/><stop stop-opacity="1" stop-color="rgb(100%, 77.246094%, 53.562927%)" offset="0.453125"/><stop stop-opacity="1" stop-color="rgb(100%, 77.035522%, 53.49884%)" offset="0.460938"/><stop stop-opacity="1" stop-color="rgb(100%, 76.824951%, 53.433228%)" offset="0.46875"/><stop stop-opacity="1" stop-color="rgb(100%, 76.61438%, 53.369141%)" offset="0.476563"/><stop stop-opacity="1" stop-color="rgb(100%, 76.403809%, 53.303528%)" offset="0.484375"/><stop stop-opacity="1" stop-color="rgb(100%, 76.193237%, 53.239441%)" offset="0.492188"/><stop stop-opacity="1" stop-color="rgb(100%, 75.982666%, 53.175354%)" offset="0.5"/><stop stop-opacity="1" stop-color="rgb(100%, 75.772095%, 53.109741%)" offset="0.507812"/><stop stop-opacity="1" stop-color="rgb(100%, 75.561523%, 53.045654%)" offset="0.515625"/><stop stop-opacity="1" stop-color="rgb(100%, 75.350952%, 52.980042%)" offset="0.523438"/><stop stop-opacity="1" stop-color="rgb(100%, 75.140381%, 52.915955%)" offset="0.53125"/><stop stop-opacity="1" stop-color="rgb(100%, 74.92981%, 52.850342%)" offset="0.539062"/><stop stop-opacity="1" stop-color="rgb(100%, 74.719238%, 52.786255%)" offset="0.546875"/><stop stop-opacity="1" stop-color="rgb(100%, 74.508667%, 52.722168%)" offset="0.554687"/><stop stop-opacity="1" stop-color="rgb(100%, 74.298096%, 52.656555%)" offset="0.5625"/><stop stop-opacity="1" stop-color="rgb(100%, 74.087524%, 52.592468%)" offset="0.570312"/><stop stop-opacity="1" stop-color="rgb(100%, 73.876953%, 52.526855%)" offset="0.578125"/><stop stop-opacity="1" stop-color="rgb(100%, 73.666382%, 52.462769%)" offset="0.585938"/><stop stop-opacity="1" stop-color="rgb(100%, 73.455811%, 52.397156%)" offset="0.59375"/><stop stop-opacity="1" stop-color="rgb(100%, 73.245239%, 52.333069%)" offset="0.601563"/><stop stop-opacity="1" stop-color="rgb(100%, 73.034668%, 52.268982%)" offset="0.609375"/><stop stop-opacity="1" stop-color="rgb(100%, 72.824097%, 52.203369%)" offset="0.617188"/><stop stop-opacity="1" stop-color="rgb(100%, 72.613525%, 52.139282%)" offset="0.625"/><stop stop-opacity="1" stop-color="rgb(100%, 72.402954%, 52.073669%)" offset="0.627827"/><stop stop-opacity="1" stop-color="rgb(100%, 72.297668%, 52.041626%)" offset="0.632813"/><stop stop-opacity="1" stop-color="rgb(100%, 72.192383%, 52.009583%)" offset="0.640625"/><stop stop-opacity="1" stop-color="rgb(100%, 71.981812%, 51.94397%)" offset="0.648438"/><stop stop-opacity="1" stop-color="rgb(100%, 71.77124%, 51.879883%)" offset="0.65625"/><stop stop-opacity="1" stop-color="rgb(100%, 71.560669%, 51.815796%)" offset="0.664063"/><stop stop-opacity="1" stop-color="rgb(100%, 71.350098%, 51.750183%)" offset="0.671875"/><stop stop-opacity="1" stop-color="rgb(100%, 71.139526%, 51.686096%)" offset="0.679688"/><stop stop-opacity="1" stop-color="rgb(100%, 70.928955%, 51.620483%)" offset="0.6875"/><stop stop-opacity="1" stop-color="rgb(100%, 70.718384%, 51.556396%)" offset="0.695312"/><stop stop-opacity="1" stop-color="rgb(100%, 70.507812%, 51.490784%)" offset="0.703125"/><stop stop-opacity="1" stop-color="rgb(100%, 70.297241%, 51.426697%)" offset="0.710938"/><stop stop-opacity="1" stop-color="rgb(100%, 70.08667%, 51.36261%)" offset="0.71875"/><stop stop-opacity="1" stop-color="rgb(100%, 69.876099%, 51.296997%)" offset="0.726563"/><stop stop-opacity="1" stop-color="rgb(100%, 69.665527%, 51.23291%)" offset="0.734375"/><stop stop-opacity="1" stop-color="rgb(100%, 69.454956%, 51.167297%)" offset="0.742188"/><stop stop-opacity="1" stop-color="rgb(100%, 69.244385%, 51.10321%)" offset="0.75"/><stop stop-opacity="1" stop-color="rgb(100%, 69.033813%, 51.037598%)" offset="0.757813"/><stop stop-opacity="1" stop-color="rgb(100%, 68.823242%, 50.973511%)" offset="0.765625"/><stop stop-opacity="1" stop-color="rgb(100%, 68.612671%, 50.909424%)" offset="0.773438"/><stop stop-opacity="1" stop-color="rgb(100%, 68.400574%, 50.843811%)" offset="0.78125"/><stop stop-opacity="1" stop-color="rgb(100%, 68.190002%, 50.779724%)" offset="0.789063"/><stop stop-opacity="1" stop-color="rgb(100%, 67.979431%, 50.714111%)" offset="0.796875"/><stop stop-opacity="1" stop-color="rgb(100%, 67.76886%, 50.650024%)" offset="0.804688"/><stop stop-opacity="1" stop-color="rgb(100%, 67.558289%, 50.584412%)" offset="0.8125"/><stop stop-opacity="1" stop-color="rgb(100%, 67.347717%, 50.520325%)" offset="0.820312"/><stop stop-opacity="1" stop-color="rgb(100%, 67.137146%, 50.456238%)" offset="0.828125"/><stop stop-opacity="1" stop-color="rgb(100%, 66.926575%, 50.390625%)" offset="0.835938"/><stop stop-opacity="1" stop-color="rgb(100%, 66.716003%, 50.326538%)" offset="0.84375"/><stop stop-opacity="1" stop-color="rgb(100%, 66.505432%, 50.260925%)" offset="0.851562"/><stop stop-opacity="1" stop-color="rgb(100%, 66.294861%, 50.196838%)" offset="0.859375"/><stop stop-opacity="1" stop-color="rgb(100%, 66.08429%, 50.131226%)" offset="0.867188"/><stop stop-opacity="1" stop-color="rgb(100%, 65.873718%, 50.067139%)" offset="0.875"/><stop stop-opacity="1" stop-color="rgb(100%, 65.663147%, 50.003052%)" offset="0.882813"/><stop stop-opacity="1" stop-color="rgb(100%, 65.452576%, 49.937439%)" offset="0.890625"/><stop stop-opacity="1" stop-color="rgb(100%, 65.242004%, 49.873352%)" offset="0.898438"/><stop stop-opacity="1" stop-color="rgb(100%, 65.031433%, 49.807739%)" offset="0.90625"/><stop stop-opacity="1" stop-color="rgb(100%, 64.820862%, 49.743652%)" offset="0.914062"/><stop stop-opacity="1" stop-color="rgb(100%, 64.610291%, 49.67804%)" offset="0.921875"/><stop stop-opacity="1" stop-color="rgb(100%, 64.399719%, 49.613953%)" offset="0.929688"/><stop stop-opacity="1" stop-color="rgb(100%, 64.189148%, 49.549866%)" offset="0.9375"/><stop stop-opacity="1" stop-color="rgb(100%, 63.978577%, 49.484253%)" offset="0.945312"/><stop stop-opacity="1" stop-color="rgb(100%, 63.768005%, 49.420166%)" offset="0.953125"/><stop stop-opacity="1" stop-color="rgb(100%, 63.557434%, 49.354553%)" offset="0.960938"/><stop stop-opacity="1" stop-color="rgb(100%, 63.346863%, 49.290466%)" offset="0.96875"/><stop stop-opacity="1" stop-color="rgb(100%, 63.136292%, 49.224854%)" offset="0.976562"/><stop stop-opacity="1" stop-color="rgb(100%, 62.92572%, 49.160767%)" offset="0.984375"/><stop stop-opacity="1" stop-color="rgb(100%, 62.715149%, 49.09668%)" offset="0.992187"/><stop stop-opacity="1" stop-color="rgb(100%, 62.504578%, 49.031067%)" offset="1"/></linearGradient></defs><g clip-path="url(#4242548ba4)"><rect x="-24" fill="url(#b16938730a)" width="288" y="-12" height="143.999998"/></g><g fill="#364f6b" fill-opacity="1"><g transform="translate(31.309066, 92.265263)"><g><path d="M 47.3125 -27.476562 L 46.894531 -66.359375 L 46.847656 -66.3125 L 46.847656 -66.359375 C 45.730469 -66.128906 44.753906 -65.988281 43.914062 -65.941406 C 42.191406 -65.894531 40.792969 -66.035156 39.535156 -66.40625 C 38.886719 -66.546875 38.234375 -66.734375 37.535156 -66.871094 C 36.136719 -67.199219 34.507812 -67.476562 32.410156 -67.476562 C 30.175781 -67.476562 28.734375 -67.058594 27.289062 -65.941406 C 25.84375 -64.777344 24.496094 -62.914062 22.585938 -59.980469 L 0.28125 -27.476562 C -0.605469 -26.171875 -1.535156 -24.308594 -1.535156 -22.679688 C -1.535156 -20.445312 -0.929688 -19.417969 -0.417969 -18.535156 C 0.09375 -17.648438 0.464844 -16.8125 -0.046875 -15.089844 C 2.609375 -14.855469 6.9375 -14.667969 12.015625 -14.53125 C 17.042969 -14.390625 22.820312 -14.390625 28.59375 -14.390625 C 28.40625 -9.5 28.175781 -5.355469 27.847656 -2.886719 C 28.21875 -2.003906 29.476562 -0.929688 31.0625 -0.046875 C 32.644531 0.839844 34.601562 1.488281 36.511719 1.488281 C 41.957031 1.488281 44.753906 0.464844 46.148438 -1.582031 C 47.546875 -3.585938 47.546875 -6.566406 47.5 -10.617188 L 47.453125 -14.667969 C 49.921875 -14.714844 52.015625 -14.808594 53.742188 -14.949219 C 55.464844 -15.042969 56.628906 -15.136719 57.28125 -15.273438 L 57.511719 -28.082031 C 54.671875 -27.847656 51.226562 -27.617188 47.3125 -27.476562 Z M 28.917969 -37.347656 C 28.917969 -33.996094 28.871094 -30.59375 28.824219 -27.148438 C 24.308594 -27.101562 19.886719 -27.101562 15.554688 -27.148438 C 16.253906 -28.21875 17.089844 -29.429688 18.070312 -30.875 C 19.046875 -32.320312 20.117188 -33.855469 21.28125 -35.53125 L 24.960938 -40.839844 C 26.21875 -42.703125 27.570312 -44.566406 28.917969 -46.476562 Z M 28.917969 -37.347656 "/></g></g></g><g fill="#ffffff" fill-opacity="1"><g transform="translate(98.821696, 36.009791)"><g><path d="M 3.746094 0.167969 C 4.269531 0.167969 4.847656 0.0976562 5.386719 -0.0625 C 5.921875 -0.226562 6.410156 -0.484375 6.773438 -0.878906 C 7.136719 -1.269531 7.359375 -1.785156 7.359375 -2.449219 C 7.359375 -2.871094 7.285156 -3.226562 7.125 -3.523438 C 6.816406 -4.109375 6.292969 -4.507812 5.664062 -4.773438 C 5.023438 -5.03125 4.425781 -5.195312 3.933594 -5.324219 C 3.6875 -5.386719 3.472656 -5.453125 3.285156 -5.515625 C 2.910156 -5.644531 2.664062 -5.785156 2.664062 -5.992188 C 2.664062 -6.179688 2.800781 -6.324219 3.003906 -6.421875 C 3.207031 -6.523438 3.476562 -6.582031 3.757812 -6.582031 C 4.140625 -6.582031 4.660156 -6.476562 5.140625 -6.324219 C 5.621094 -6.171875 6.050781 -5.980469 6.277344 -5.808594 L 6.996094 -7.554688 C 6.734375 -7.816406 6.304688 -8.058594 5.761719 -8.226562 C 5.21875 -8.390625 4.550781 -8.492188 3.800781 -8.492188 C 2.71875 -8.492188 1.878906 -8.214844 1.316406 -7.753906 C 0.75 -7.285156 0.449219 -6.640625 0.449219 -5.890625 C 0.449219 -5.550781 0.515625 -5.257812 0.644531 -5.019531 C 0.902344 -4.527344 1.335938 -4.191406 1.875 -3.957031 C 2.414062 -3.722656 2.976562 -3.558594 3.519531 -3.425781 C 3.792969 -3.355469 4.039062 -3.277344 4.257812 -3.203125 C 4.695312 -3.046875 4.996094 -2.851562 4.996094 -2.546875 C 4.996094 -2.308594 4.847656 -2.121094 4.621094 -2.003906 C 4.386719 -1.878906 4.082031 -1.816406 3.757812 -1.816406 C 3.453125 -1.816406 3.179688 -1.855469 2.933594 -1.945312 C 2.4375 -2.113281 2.039062 -2.355469 1.699219 -2.566406 C 1.527344 -2.671875 1.363281 -2.742188 1.210938 -2.777344 C 0.8125 -2.863281 0.539062 -2.734375 0.363281 -2.523438 C 0.1875 -2.308594 0.105469 -2.003906 0.121094 -1.726562 C 0.175781 -1.300781 0.554688 -0.824219 1.1875 -0.457031 C 1.820312 -0.0859375 2.699219 0.167969 3.746094 0.167969 Z M 3.746094 0.167969 "/></g></g></g><g fill="#ffffff" fill-opacity="1"><g transform="translate(106.595347, 36.009791)"><g><path d="M 6.101562 0.0273438 C 6.609375 0.0351562 6.972656 -0.00390625 7.207031 -0.191406 C 7.441406 -0.375 7.554688 -0.691406 7.554688 -1.230469 C 7.554688 -1.417969 7.496094 -1.605469 7.40625 -1.738281 C 7.3125 -1.875 7.203125 -1.957031 7.101562 -1.949219 C 6.96875 -1.9375 6.808594 -1.925781 6.621094 -1.921875 C 6.246094 -1.898438 5.808594 -1.886719 5.339844 -1.878906 C 5.101562 -1.875 4.867188 -1.875 4.632812 -1.867188 C 4.398438 -1.863281 4.167969 -1.863281 3.945312 -1.863281 L 3.332031 -1.863281 C 3.3125 -2.355469 3.308594 -2.898438 3.300781 -3.464844 L 5.550781 -3.449219 C 5.957031 -3.449219 6.246094 -3.464844 6.441406 -3.589844 C 6.628906 -3.710938 6.714844 -3.941406 6.714844 -4.378906 C 6.714844 -4.539062 6.667969 -4.695312 6.597656 -4.820312 C 6.527344 -4.9375 6.433594 -5.011719 6.347656 -5.011719 C 6.085938 -4.988281 5.617188 -4.964844 5.066406 -4.960938 C 4.515625 -4.953125 3.875 -4.941406 3.289062 -4.941406 C 3.285156 -5.246094 3.285156 -5.523438 3.285156 -5.761719 L 3.285156 -6.476562 L 6.277344 -6.464844 C 6.785156 -6.457031 7.148438 -6.5 7.382812 -6.679688 C 7.617188 -6.863281 7.730469 -7.179688 7.730469 -7.71875 C 7.730469 -7.910156 7.671875 -8.105469 7.582031 -8.246094 C 7.496094 -8.386719 7.382812 -8.480469 7.285156 -8.472656 C 6.949219 -8.433594 6.363281 -8.410156 5.699219 -8.390625 C 5.03125 -8.367188 4.28125 -8.355469 3.625 -8.34375 C 2.96875 -8.332031 2.394531 -8.320312 2.085938 -8.320312 L 1.808594 -8.320312 C 1.6875 -8.316406 1.550781 -8.316406 1.40625 -8.316406 C 1.257812 -8.316406 1.113281 -8.316406 0.976562 -8.308594 C 0.820312 -8.304688 0.660156 -8.304688 0.503906 -8.304688 L 0.472656 -7.230469 L 0.929688 -7.25 L 0.882812 -1.855469 C 0.878906 -1.199219 0.9375 -0.742188 1.171875 -0.445312 C 1.398438 -0.140625 1.804688 -0.00390625 2.488281 -0.00390625 Z M 6.101562 0.0273438 "/></g></g></g><g fill="#ffffff" fill-opacity="1"><g transform="translate(114.749491, 36.009791)"><g><path d="M 6.300781 0.375 C 6.550781 0.378906 6.945312 0.351562 7.523438 0.210938 C 8.15625 0.0507812 8.339844 -0.261719 7.964844 -0.820312 C 7.476562 -1.351562 7.0625 -1.9375 6.6875 -2.523438 C 7.96875 -2.976562 8.539062 -3.851562 8.492188 -5.265625 C 8.46875 -6.085938 8.246094 -6.703125 7.871094 -7.15625 C 7.496094 -7.605469 6.972656 -7.910156 6.347656 -8.09375 C 5.714844 -8.273438 4.984375 -8.34375 4.1875 -8.34375 C 3.753906 -8.34375 3.355469 -8.332031 2.992188 -8.308594 C 2.265625 -8.261719 1.699219 -8.203125 1.324219 -8.144531 C 1.128906 -8.117188 0.988281 -8.09375 0.902344 -8.085938 L 0.914062 -8.074219 L 0.90625 -8.074219 L 0.917969 -3.558594 L 0.496094 -3.59375 L 0.472656 -2.519531 L 0.917969 -2.472656 L 0.929688 0.0859375 L 3.4375 -0.0742188 C 3.382812 -0.472656 3.34375 -1.246094 3.300781 -2.167969 C 3.519531 -2.15625 3.722656 -2.148438 3.917969 -2.148438 L 4.167969 -2.148438 C 4.25 -2.148438 4.332031 -2.148438 4.410156 -2.15625 C 4.625 -1.691406 4.894531 -1.136719 5.164062 -0.667969 C 5.433594 -0.191406 5.691406 0.191406 5.921875 0.316406 C 5.925781 0.320312 5.957031 0.328125 6.019531 0.34375 C 6.078125 0.363281 6.171875 0.375 6.300781 0.375 Z M 3.554688 -3.488281 C 3.449219 -3.488281 3.347656 -3.496094 3.261719 -3.5 C 3.253906 -3.800781 3.242188 -4.105469 3.238281 -4.402344 L 3.21875 -5.277344 C 3.214844 -5.832031 3.203125 -6.339844 3.195312 -6.746094 C 3.261719 -6.746094 3.324219 -6.746094 3.390625 -6.75 L 3.589844 -6.75 C 4.226562 -6.75 4.847656 -6.722656 5.300781 -6.5 C 5.75 -6.277344 6.042969 -5.867188 6.027344 -5.113281 C 6.019531 -4.550781 5.773438 -4.140625 5.382812 -3.882812 C 4.988281 -3.617188 4.457031 -3.488281 3.871094 -3.488281 Z M 3.554688 -3.488281 "/></g></g></g><g fill="#ffffff" fill-opacity="1"><g transform="translate(123.822653, 36.009791)"><g><path d="M 4.519531 0.152344 C 4.824219 0.15625 5.199219 0.121094 5.511719 0.0234375 C 6.6875 -0.425781 7.570312 -1.105469 8.203125 -1.914062 C 8.835938 -2.722656 9.21875 -3.660156 9.386719 -4.644531 C 9.554688 -5.628906 9.527344 -6.652344 9.324219 -7.617188 C 9.300781 -7.730469 9.265625 -7.835938 9.210938 -7.941406 C 9.113281 -8.152344 8.914062 -8.328125 8.589844 -8.425781 C 8.269531 -8.527344 7.628906 -8.492188 7.3125 -8.472656 C 7.15625 -8.46875 7.039062 -8.445312 6.972656 -8.410156 C 6.832031 -8.339844 6.851562 -8.214844 6.890625 -7.964844 C 7.007812 -7.167969 7.039062 -6.28125 6.957031 -5.421875 C 6.875 -4.5625 6.679688 -3.742188 6.339844 -3.09375 C 6.003906 -2.4375 5.523438 -1.960938 4.867188 -1.78125 C 4.824219 -2.21875 4.765625 -2.683594 4.683594 -3.167969 C 4.542969 -4.003906 4.316406 -5.089844 3.941406 -6.191406 C 3.851562 -6.59375 3.664062 -7.109375 3.472656 -7.546875 C 3.277344 -7.988281 3.085938 -8.339844 3 -8.449219 C 2.664062 -8.421875 2.371094 -8.390625 2.109375 -8.375 C 1.582031 -8.328125 1.171875 -8.304688 0.871094 -8.285156 C 0.566406 -8.269531 0.152344 -8.25 -0.0507812 -8.273438 L -0.0703125 -7.203125 L 0.632812 -7.230469 C 1.09375 -6.382812 1.464844 -5.464844 1.761719 -4.5625 C 2.0625 -3.660156 2.289062 -2.777344 2.453125 -1.996094 C 2.617188 -1.21875 2.730469 -0.539062 2.800781 -0.046875 C 3.003906 -0.0703125 3.183594 -0.0742188 3.34375 -0.0585938 C 3.648438 -0.0234375 3.898438 0.046875 4.140625 0.105469 C 4.257812 0.132812 4.386719 0.152344 4.519531 0.152344 Z M 4.519531 0.152344 "/></g></g></g><g fill="#ffffff" fill-opacity="1"><g transform="translate(133.820691, 36.009791)"><g><path d="M 2.425781 0.175781 C 2.664062 0.175781 2.910156 0.09375 3.097656 -0.0117188 C 3.277344 -0.117188 3.394531 -0.257812 3.378906 -0.378906 C 3.324219 -0.761719 3.285156 -1.464844 3.253906 -2.289062 C 3.226562 -3.109375 3.203125 -4.0625 3.195312 -4.972656 C 3.179688 -6.039062 3.171875 -7.183594 3.179688 -8.410156 L 0.871094 -8.292969 C 0.855469 -7.207031 0.84375 -6.21875 0.832031 -5.316406 C 0.824219 -4.542969 0.8125 -3.742188 0.8125 -3.082031 C 0.808594 -2.417969 0.8125 -1.890625 0.820312 -1.664062 C 0.84375 -1.007812 0.90625 -0.550781 1.128906 -0.25 C 1.351562 0.046875 1.738281 0.175781 2.425781 0.175781 Z M 2.425781 0.175781 "/></g></g></g><g fill="#ffffff" fill-opacity="1"><g transform="translate(138.058736, 36.009791)"><g><path d="M 4.835938 0.203125 C 5.257812 0.203125 5.863281 0.132812 6.445312 -0.0273438 C 7.027344 -0.191406 7.582031 -0.445312 7.933594 -0.8125 C 7.992188 -0.878906 8.046875 -0.929688 8.097656 -0.976562 C 8.152344 -1.023438 8.191406 -1.078125 8.234375 -1.140625 C 8.304688 -1.257812 8.34375 -1.433594 8.328125 -1.746094 C 8.304688 -1.832031 8.261719 -1.898438 8.203125 -1.949219 C 8.082031 -2.042969 7.921875 -2.089844 7.742188 -2.089844 C 7.652344 -2.089844 7.566406 -2.085938 7.488281 -2.074219 C 7.3125 -2.03125 7.148438 -1.96875 7.003906 -1.878906 C 6.851562 -1.785156 6.679688 -1.691406 6.5 -1.59375 C 6.125 -1.398438 5.652344 -1.210938 4.882812 -1.164062 C 4.304688 -1.125 3.800781 -1.339844 3.449219 -1.761719 C 3.09375 -2.183594 2.882812 -2.8125 2.882812 -3.589844 C 2.882812 -4.691406 3.15625 -5.5 3.578125 -6.027344 C 4 -6.550781 4.5625 -6.785156 5.128906 -6.78125 C 5.503906 -6.761719 5.738281 -6.722656 5.898438 -6.585938 C 6.054688 -6.453125 6.132812 -6.300781 6.167969 -6.109375 C 6.203125 -5.914062 6.191406 -5.667969 6.171875 -5.382812 L 7.945312 -4.632812 C 8.414062 -4.90625 8.632812 -5.328125 8.691406 -5.78125 C 8.75 -6.230469 8.644531 -6.710938 8.480469 -7.109375 C 8.316406 -7.5 8.082031 -7.804688 7.875 -7.90625 C 7.449219 -8.140625 6.972656 -8.292969 6.476562 -8.386719 C 5.980469 -8.480469 5.464844 -8.519531 4.953125 -8.519531 C 3.5 -8.519531 2.367188 -8.128906 1.59375 -7.347656 C 0.8125 -6.570312 0.398438 -5.394531 0.398438 -3.839844 C 0.398438 -2.578125 0.703125 -1.5625 1.410156 -0.867188 C 2.113281 -0.167969 3.21875 0.203125 4.835938 0.203125 Z M 4.835938 0.203125 "/></g></g></g><g fill="#ffffff" fill-opacity="1"><g transform="translate(147.371903, 36.009791)"><g><path d="M 6.101562 0.0273438 C 6.609375 0.0351562 6.972656 -0.00390625 7.207031 -0.191406 C 7.441406 -0.375 7.554688 -0.691406 7.554688 -1.230469 C 7.554688 -1.417969 7.496094 -1.605469 7.40625 -1.738281 C 7.3125 -1.875 7.203125 -1.957031 7.101562 -1.949219 C 6.96875 -1.9375 6.808594 -1.925781 6.621094 -1.921875 C 6.246094 -1.898438 5.808594 -1.886719 5.339844 -1.878906 C 5.101562 -1.875 4.867188 -1.875 4.632812 -1.867188 C 4.398438 -1.863281 4.167969 -1.863281 3.945312 -1.863281 L 3.332031 -1.863281 C 3.3125 -2.355469 3.308594 -2.898438 3.300781 -3.464844 L 5.550781 -3.449219 C 5.957031 -3.449219 6.246094 -3.464844 6.441406 -3.589844 C 6.628906 -3.710938 6.714844 -3.941406 6.714844 -4.378906 C 6.714844 -4.539062 6.667969 -4.695312 6.597656 -4.820312 C 6.527344 -4.9375 6.433594 -5.011719 6.347656 -5.011719 C 6.085938 -4.988281 5.617188 -4.964844 5.066406 -4.960938 C 4.515625 -4.953125 3.875 -4.941406 3.289062 -4.941406 C 3.285156 -5.246094 3.285156 -5.523438 3.285156 -5.761719 L 3.285156 -6.476562 L 6.277344 -6.464844 C 6.785156 -6.457031 7.148438 -6.5 7.382812 -6.679688 C 7.617188 -6.863281 7.730469 -7.179688 7.730469 -7.71875 C 7.730469 -7.910156 7.671875 -8.105469 7.582031 -8.246094 C 7.496094 -8.386719 7.382812 -8.480469 7.285156 -8.472656 C 6.949219 -8.433594 6.363281 -8.410156 5.699219 -8.390625 C 5.03125 -8.367188 4.28125 -8.355469 3.625 -8.34375 C 2.96875 -8.332031 2.394531 -8.320312 2.085938 -8.320312 L 1.808594 -8.320312 C 1.6875 -8.316406 1.550781 -8.316406 1.40625 -8.316406 C 1.257812 -8.316406 1.113281 -8.316406 0.976562 -8.308594 C 0.820312 -8.304688 0.660156 -8.304688 0.503906 -8.304688 L 0.472656 -7.230469 L 0.929688 -7.25 L 0.882812 -1.855469 C 0.878906 -1.199219 0.9375 -0.742188 1.171875 -0.445312 C 1.398438 -0.140625 1.804688 -0.00390625 2.488281 -0.00390625 Z M 6.101562 0.0273438 "/></g></g></g><g fill="#ffffff" fill-opacity="1"><g transform="translate(155.526047, 36.009791)"><g/></g></g><g fill="#ffffff" fill-opacity="1"><g transform="translate(158.59922, 36.009791)"><g><path d="M 3.929688 0.175781 C 4.167969 0.175781 4.421875 0.09375 4.601562 -0.0117188 C 4.785156 -0.117188 4.902344 -0.257812 4.882812 -0.378906 C 4.84375 -0.597656 4.8125 -0.867188 4.789062 -1.1875 C 4.742188 -1.839844 4.707031 -2.617188 4.691406 -3.460938 C 4.671875 -4.296875 4.671875 -5.125 4.671875 -5.863281 C 4.671875 -6.230469 4.671875 -6.550781 4.679688 -6.832031 C 5.386719 -6.816406 5.996094 -6.773438 6.441406 -6.710938 C 6.769531 -6.664062 7.007812 -6.757812 7.167969 -6.914062 C 7.324219 -7.074219 7.402344 -7.285156 7.402344 -7.464844 C 7.402344 -7.675781 7.347656 -7.875 7.238281 -8.027344 C 7.121094 -8.179688 6.957031 -8.285156 6.746094 -8.308594 C 6.230469 -8.363281 5.535156 -8.398438 4.765625 -8.398438 C 4 -8.398438 3.160156 -8.375 2.359375 -8.316406 C 1.558594 -8.257812 0.789062 -8.167969 0.164062 -8.050781 L 0.257812 -6.691406 C 0.90625 -6.757812 1.632812 -6.796875 2.367188 -6.820312 C 2.359375 -6.574219 2.359375 -6.292969 2.355469 -5.980469 L 2.335938 -4.984375 C 2.332031 -4.292969 2.320312 -3.578125 2.320312 -2.980469 C 2.3125 -2.382812 2.320312 -1.890625 2.324219 -1.664062 C 2.347656 -1.007812 2.414062 -0.550781 2.636719 -0.25 C 2.859375 0.046875 3.242188 0.175781 3.929688 0.175781 Z M 3.929688 0.175781 "/></g></g></g><g fill="#ffffff" fill-opacity="1"><g transform="translate(166.056774, 36.009791)"><g><path d="M 4.496094 0.234375 C 5.714844 0.234375 6.675781 0.00390625 7.40625 -0.378906 C 8.132812 -0.765625 8.636719 -1.304688 8.960938 -1.945312 C 9.28125 -2.578125 9.414062 -3.300781 9.398438 -4.046875 C 9.378906 -4.625 9.292969 -5.265625 9.089844 -5.773438 C 8.882812 -6.28125 8.574219 -6.667969 8.128906 -6.746094 L 8.601562 -7.050781 C 8.246094 -7.582031 7.742188 -7.976562 7.132812 -8.238281 C 6.515625 -8.496094 5.796875 -8.625 5.007812 -8.625 C 4.164062 -8.625 3.367188 -8.480469 2.6875 -8.164062 C 2.003906 -7.847656 1.429688 -7.359375 1.023438 -6.699219 C 0.621094 -6.039062 0.386719 -5.1875 0.378906 -4.132812 C 0.363281 -2.847656 0.691406 -1.757812 1.371094 -0.988281 C 2.050781 -0.214844 3.09375 0.234375 4.496094 0.234375 Z M 4.75 -1.136719 C 4.238281 -1.136719 3.769531 -1.375 3.425781 -1.828125 C 3.082031 -2.273438 2.871094 -2.933594 2.871094 -3.792969 C 2.871094 -4.914062 3.15625 -5.699219 3.570312 -6.203125 C 3.988281 -6.703125 4.527344 -6.921875 5.035156 -6.921875 C 5.503906 -6.921875 5.84375 -6.808594 6.101562 -6.621094 C 6.359375 -6.429688 6.535156 -6.15625 6.679688 -5.820312 L 6.855469 -5.933594 C 6.839844 -5.738281 6.875 -5.511719 6.910156 -5.242188 C 6.945312 -4.972656 6.984375 -4.648438 7.003906 -4.28125 C 7.007812 -3.835938 6.972656 -3.335938 6.851562 -2.875 C 6.726562 -2.40625 6.523438 -1.972656 6.183594 -1.65625 C 5.84375 -1.339844 5.375 -1.136719 4.75 -1.136719 Z M 4.75 -1.136719 "/></g></g></g><g fill="#ffffff" fill-opacity="1"><g transform="translate(175.972861, 36.009791)"><g/></g></g><g fill="#ffffff" fill-opacity="1"><g transform="translate(179.046034, 36.009791)"><g><path d="M 4.085938 0.175781 C 4.292969 0.175781 4.460938 0.15625 4.601562 0.128906 C 4.882812 0.0703125 5.058594 -0.0742188 5.160156 -0.34375 C 5.253906 -0.613281 5.277344 -1.007812 5.300781 -1.429688 C 5.316406 -1.84375 5.339844 -2.285156 5.347656 -2.707031 C 5.351562 -2.917969 5.351562 -3.109375 5.359375 -3.277344 C 6.429688 -3.511719 7.109375 -3.992188 7.511719 -4.632812 C 7.917969 -5.265625 8.058594 -6.066406 8.058594 -6.933594 C 8.058594 -7.089844 8.046875 -7.320312 7.976562 -7.546875 C 7.90625 -7.777344 7.769531 -8.011719 7.53125 -8.1875 C 7.289062 -8.363281 6.9375 -8.480469 6.429688 -8.480469 C 6.074219 -8.480469 5.875 -8.25 5.769531 -7.976562 C 5.664062 -7.699219 5.640625 -7.378906 5.640625 -7.191406 C 5.640625 -6.488281 5.632812 -5.820312 5.441406 -5.324219 C 5.246094 -4.824219 4.871094 -4.503906 4.121094 -4.503906 C 3.613281 -4.503906 3.308594 -4.71875 3.125 -5.195312 C 2.945312 -5.667969 2.894531 -6.40625 2.894531 -7.460938 L 2.894531 -8.34375 L 1.722656 -8.296875 L 1.726562 -8.304688 L 0.0351562 -8.257812 L 0.0117188 -7.183594 L 0.398438 -7.195312 C 0.402344 -6.027344 0.519531 -5.101562 0.878906 -4.425781 C 1.234375 -3.746094 1.84375 -3.332031 2.835938 -3.183594 L 2.851562 -2.617188 C 2.859375 -2.414062 2.871094 -2.203125 2.875 -1.996094 C 2.882812 -1.785156 2.894531 -1.582031 2.898438 -1.386719 L 2.917969 -0.871094 C 2.921875 -0.574219 2.957031 -0.308594 3.121094 -0.121094 C 3.277344 0.0625 3.566406 0.175781 4.085938 0.175781 Z M 4.085938 0.175781 "/></g></g></g><g fill="#ffffff" fill-opacity="1"><g transform="translate(187.334807, 36.009791)"><g><path d="M 4.496094 0.234375 C 5.714844 0.234375 6.675781 0.00390625 7.40625 -0.378906 C 8.132812 -0.765625 8.636719 -1.304688 8.960938 -1.945312 C 9.28125 -2.578125 9.414062 -3.300781 9.398438 -4.046875 C 9.378906 -4.625 9.292969 -5.265625 9.089844 -5.773438 C 8.882812 -6.28125 8.574219 -6.667969 8.128906 -6.746094 L 8.601562 -7.050781 C 8.246094 -7.582031 7.742188 -7.976562 7.132812 -8.238281 C 6.515625 -8.496094 5.796875 -8.625 5.007812 -8.625 C 4.164062 -8.625 3.367188 -8.480469 2.6875 -8.164062 C 2.003906 -7.847656 1.429688 -7.359375 1.023438 -6.699219 C 0.621094 -6.039062 0.386719 -5.1875 0.378906 -4.132812 C 0.363281 -2.847656 0.691406 -1.757812 1.371094 -0.988281 C 2.050781 -0.214844 3.09375 0.234375 4.496094 0.234375 Z M 4.75 -1.136719 C 4.238281 -1.136719 3.769531 -1.375 3.425781 -1.828125 C 3.082031 -2.273438 2.871094 -2.933594 2.871094 -3.792969 C 2.871094 -4.914062 3.15625 -5.699219 3.570312 -6.203125 C 3.988281 -6.703125 4.527344 -6.921875 5.035156 -6.921875 C 5.503906 -6.921875 5.84375 -6.808594 6.101562 -6.621094 C 6.359375 -6.429688 6.535156 -6.15625 6.679688 -5.820312 L 6.855469 -5.933594 C 6.839844 -5.738281 6.875 -5.511719 6.910156 -5.242188 C 6.945312 -4.972656 6.984375 -4.648438 7.003906 -4.28125 C 7.007812 -3.835938 6.972656 -3.335938 6.851562 -2.875 C 6.726562 -2.40625 6.523438 -1.972656 6.183594 -1.65625 C 5.84375 -1.339844 5.375 -1.136719 4.75 -1.136719 Z M 4.75 -1.136719 "/></g></g></g><g fill="#ffffff" fill-opacity="1"><g transform="translate(197.250894, 36.009791)"><g><path d="M 4.671875 0.234375 C 6.429688 0.234375 7.589844 -0.238281 8.316406 -1.019531 C 9.035156 -1.796875 9.3125 -2.875 9.3125 -4.09375 C 9.3125 -4.472656 9.289062 -5.035156 9.246094 -5.605469 C 9.199219 -6.171875 9.136719 -6.738281 9.058594 -7.132812 C 8.925781 -7.742188 8.753906 -8.050781 8.480469 -8.210938 C 8.199219 -8.367188 7.824219 -8.363281 7.289062 -8.363281 C 6.796875 -8.355469 6.597656 -8.203125 6.546875 -7.90625 C 6.492188 -7.605469 6.59375 -7.15625 6.710938 -6.546875 L 6.75 -6.214844 C 6.78125 -5.933594 6.816406 -5.59375 6.84375 -5.246094 C 6.867188 -4.894531 6.898438 -4.585938 6.910156 -4.355469 C 6.914062 -4.246094 6.914062 -4.167969 6.914062 -4.128906 C 6.914062 -3.261719 6.804688 -2.519531 6.5 -1.984375 C 6.191406 -1.445312 5.667969 -1.136719 4.867188 -1.136719 C 4.351562 -1.136719 3.929688 -1.351562 3.628906 -1.828125 C 3.332031 -2.300781 3.160156 -3.046875 3.160156 -4.097656 C 3.160156 -5.222656 3.171875 -6.078125 3.183594 -6.761719 C 3.195312 -7.441406 3.195312 -7.945312 3.191406 -8.351562 L 0.8125 -8.238281 C 0.765625 -7.742188 0.730469 -7.078125 0.707031 -6.351562 C 0.683594 -5.621094 0.671875 -4.820312 0.671875 -4.027344 C 0.671875 -2.648438 0.964844 -1.582031 1.617188 -0.859375 C 2.265625 -0.132812 3.265625 0.234375 4.671875 0.234375 Z M 4.671875 0.234375 "/></g></g></g><g fill="#ffffff" fill-opacity="1"><g transform="translate(104.106852, 58.085744)"><g><path d="M 2.695312 0.160156 C 2.957031 0.160156 3.210938 0.0742188 3.394531 -0.0429688 C 3.578125 -0.164062 3.6875 -0.3125 3.679688 -0.445312 C 3.65625 -0.730469 3.636719 -1.160156 3.617188 -1.675781 C 3.597656 -2.183594 3.585938 -2.78125 3.578125 -3.40625 L 6.066406 -3.394531 C 6.503906 -3.390625 6.824219 -3.425781 7.03125 -3.585938 C 7.234375 -3.746094 7.332031 -4.015625 7.332031 -4.492188 C 7.332031 -4.664062 7.28125 -4.824219 7.203125 -4.945312 C 7.128906 -5.066406 7.027344 -5.132812 6.929688 -5.132812 C 6.644531 -5.109375 6.125 -5.082031 5.515625 -5.078125 C 4.90625 -5.070312 4.207031 -5.058594 3.566406 -5.058594 C 3.558594 -5.4375 3.558594 -5.78125 3.558594 -6.09375 L 3.558594 -6.992188 L 6.714844 -6.976562 C 7.265625 -6.96875 7.660156 -7.011719 7.914062 -7.214844 C 8.167969 -7.414062 8.289062 -7.753906 8.289062 -8.339844 C 8.289062 -8.542969 8.226562 -8.75 8.128906 -8.910156 C 8.027344 -9.0625 7.90625 -9.164062 7.800781 -9.15625 C 7.417969 -9.113281 6.738281 -9.089844 5.976562 -9.0625 C 5.214844 -9.039062 4.367188 -9.019531 3.648438 -9.011719 C 3.289062 -9.003906 2.96875 -9.003906 2.695312 -9 C 2.417969 -8.992188 2.214844 -8.992188 2.089844 -8.992188 L 1.960938 -8.992188 C 1.828125 -8.988281 1.683594 -8.988281 1.523438 -8.988281 C 1.363281 -8.988281 1.207031 -8.988281 1.058594 -8.980469 C 0.886719 -8.972656 0.71875 -8.972656 0.546875 -8.972656 L 0.515625 -7.8125 L 1.007812 -7.824219 L 0.957031 -1.847656 C 0.953125 -1.136719 1.015625 -0.640625 1.269531 -0.316406 C 1.515625 0.0117188 1.953125 0.160156 2.695312 0.160156 Z M 2.695312 0.160156 "/></g></g></g><g fill="#ffffff" fill-opacity="1"><g transform="translate(112.616507, 58.085744)"><g><path d="M 4.875 0.253906 C 6.195312 0.253906 7.234375 0.0078125 8.027344 -0.414062 C 8.816406 -0.832031 9.359375 -1.414062 9.710938 -2.105469 C 10.058594 -2.792969 10.203125 -3.578125 10.1875 -4.386719 C 10.167969 -5.015625 10.070312 -5.707031 9.851562 -6.257812 C 9.628906 -6.808594 9.292969 -7.230469 8.808594 -7.3125 L 9.324219 -7.640625 C 8.9375 -8.21875 8.390625 -8.644531 7.730469 -8.929688 C 7.0625 -9.207031 6.28125 -9.347656 5.425781 -9.347656 C 4.511719 -9.347656 3.648438 -9.191406 2.914062 -8.847656 C 2.171875 -8.503906 1.546875 -7.976562 1.109375 -7.261719 C 0.671875 -6.542969 0.417969 -5.621094 0.414062 -4.480469 C 0.394531 -3.085938 0.75 -1.902344 1.484375 -1.074219 C 2.222656 -0.234375 3.351562 0.253906 4.875 0.253906 Z M 5.148438 -1.230469 C 4.59375 -1.230469 4.085938 -1.492188 3.710938 -1.980469 C 3.339844 -2.460938 3.109375 -3.179688 3.109375 -4.113281 C 3.109375 -5.324219 3.421875 -6.175781 3.871094 -6.722656 C 4.320312 -7.265625 4.90625 -7.5 5.457031 -7.5 C 5.964844 -7.5 6.332031 -7.382812 6.613281 -7.179688 C 6.890625 -6.96875 7.082031 -6.671875 7.242188 -6.308594 L 7.433594 -6.429688 C 7.414062 -6.21875 7.449219 -5.972656 7.488281 -5.679688 C 7.527344 -5.386719 7.570312 -5.039062 7.589844 -4.640625 C 7.597656 -4.15625 7.558594 -3.617188 7.425781 -3.117188 C 7.292969 -2.609375 7.070312 -2.140625 6.703125 -1.796875 C 6.332031 -1.453125 5.824219 -1.230469 5.148438 -1.230469 Z M 5.148438 -1.230469 "/></g></g></g><g fill="#ffffff" fill-opacity="1"><g transform="translate(123.366205, 58.085744)"><g><path d="M 6.828125 0.40625 C 7.101562 0.414062 7.527344 0.378906 8.15625 0.226562 C 8.839844 0.0585938 9.039062 -0.285156 8.632812 -0.886719 C 8.105469 -1.464844 7.652344 -2.101562 7.246094 -2.734375 C 8.636719 -3.222656 9.253906 -4.175781 9.203125 -5.707031 C 9.175781 -6.59375 8.9375 -7.265625 8.53125 -7.753906 C 8.125 -8.242188 7.558594 -8.574219 6.878906 -8.769531 C 6.195312 -8.96875 5.402344 -9.042969 4.539062 -9.042969 C 4.066406 -9.042969 3.636719 -9.03125 3.242188 -9.003906 C 2.457031 -8.953125 1.839844 -8.890625 1.433594 -8.828125 C 1.226562 -8.796875 1.074219 -8.769531 0.976562 -8.765625 L 0.988281 -8.75 L 0.984375 -8.75 L 0.996094 -3.859375 L 0.539062 -3.898438 L 0.515625 -2.730469 L 0.996094 -2.679688 L 1.007812 0.09375 L 3.726562 -0.0820312 C 3.667969 -0.515625 3.625 -1.351562 3.578125 -2.347656 C 3.8125 -2.335938 4.035156 -2.328125 4.246094 -2.328125 L 4.519531 -2.328125 C 4.609375 -2.328125 4.695312 -2.328125 4.777344 -2.335938 C 5.015625 -1.835938 5.304688 -1.230469 5.597656 -0.722656 C 5.890625 -0.210938 6.167969 0.210938 6.417969 0.34375 C 6.421875 0.347656 6.453125 0.355469 6.523438 0.375 C 6.585938 0.394531 6.6875 0.40625 6.828125 0.40625 Z M 3.851562 -3.78125 C 3.738281 -3.78125 3.628906 -3.789062 3.535156 -3.796875 C 3.527344 -4.117188 3.515625 -4.449219 3.507812 -4.773438 L 3.492188 -5.71875 C 3.484375 -6.320312 3.472656 -6.875 3.464844 -7.3125 C 3.535156 -7.3125 3.605469 -7.3125 3.675781 -7.316406 L 3.890625 -7.316406 C 4.582031 -7.316406 5.253906 -7.285156 5.742188 -7.042969 C 6.230469 -6.804688 6.550781 -6.359375 6.53125 -5.539062 C 6.523438 -4.929688 6.257812 -4.488281 5.832031 -4.207031 C 5.40625 -3.921875 4.828125 -3.78125 4.195312 -3.78125 Z M 3.851562 -3.78125 "/></g></g></g><g fill="#ffffff" fill-opacity="1"><g transform="translate(133.202115, 58.085744)"><g/></g></g><g fill="#ffffff" fill-opacity="1"><g transform="translate(136.533639, 58.085744)"><g><path d="M 4.0625 0.183594 C 4.625 0.183594 5.253906 0.109375 5.839844 -0.0703125 C 6.417969 -0.246094 6.949219 -0.527344 7.34375 -0.953125 C 7.734375 -1.378906 7.976562 -1.9375 7.976562 -2.652344 C 7.976562 -3.109375 7.894531 -3.496094 7.722656 -3.820312 C 7.386719 -4.457031 6.824219 -4.886719 6.136719 -5.171875 C 5.445312 -5.453125 4.796875 -5.628906 4.265625 -5.769531 C 4 -5.839844 3.761719 -5.910156 3.558594 -5.976562 C 3.152344 -6.117188 2.886719 -6.269531 2.886719 -6.492188 C 2.886719 -6.695312 3.035156 -6.855469 3.253906 -6.960938 C 3.476562 -7.070312 3.769531 -7.132812 4.074219 -7.132812 C 4.488281 -7.132812 5.050781 -7.019531 5.570312 -6.855469 C 6.09375 -6.6875 6.554688 -6.480469 6.804688 -6.296875 L 7.585938 -8.1875 C 7.296875 -8.472656 6.835938 -8.734375 6.246094 -8.917969 C 5.65625 -9.09375 4.929688 -9.203125 4.117188 -9.203125 C 2.945312 -9.203125 2.039062 -8.902344 1.429688 -8.402344 C 0.8125 -7.894531 0.488281 -7.195312 0.488281 -6.382812 C 0.488281 -6.015625 0.558594 -5.699219 0.699219 -5.4375 C 0.976562 -4.90625 1.445312 -4.542969 2.03125 -4.289062 C 2.613281 -4.035156 3.222656 -3.859375 3.8125 -3.710938 C 4.113281 -3.636719 4.378906 -3.554688 4.613281 -3.472656 C 5.089844 -3.300781 5.414062 -3.089844 5.414062 -2.761719 C 5.414062 -2.5 5.253906 -2.296875 5.007812 -2.171875 C 4.753906 -2.039062 4.421875 -1.96875 4.074219 -1.96875 C 3.746094 -1.96875 3.445312 -2.011719 3.179688 -2.105469 C 2.640625 -2.292969 2.207031 -2.550781 1.839844 -2.78125 C 1.65625 -2.894531 1.480469 -2.96875 1.3125 -3.007812 C 0.882812 -3.101562 0.582031 -2.964844 0.394531 -2.734375 C 0.203125 -2.5 0.113281 -2.171875 0.132812 -1.871094 C 0.191406 -1.410156 0.601562 -0.894531 1.289062 -0.496094 C 1.972656 -0.09375 2.925781 0.183594 4.0625 0.183594 Z M 4.0625 0.183594 "/></g></g></g><g fill="#ffffff" fill-opacity="1"><g transform="translate(144.960793, 58.085744)"><g><path d="M 4.257812 0.191406 C 4.519531 0.191406 4.792969 0.101562 4.988281 -0.0117188 C 5.183594 -0.125 5.3125 -0.277344 5.292969 -0.414062 C 5.25 -0.648438 5.214844 -0.9375 5.191406 -1.289062 C 5.140625 -1.992188 5.101562 -2.835938 5.082031 -3.75 C 5.066406 -4.660156 5.066406 -5.554688 5.066406 -6.351562 C 5.066406 -6.753906 5.066406 -7.101562 5.070312 -7.40625 C 5.839844 -7.386719 6.5 -7.34375 6.980469 -7.273438 C 7.335938 -7.222656 7.597656 -7.324219 7.769531 -7.496094 C 7.9375 -7.667969 8.023438 -7.894531 8.023438 -8.089844 C 8.023438 -8.320312 7.964844 -8.535156 7.84375 -8.699219 C 7.71875 -8.867188 7.539062 -8.980469 7.3125 -9.003906 C 6.753906 -9.0625 5.996094 -9.101562 5.164062 -9.101562 C 4.335938 -9.101562 3.425781 -9.074219 2.558594 -9.011719 C 1.6875 -8.949219 0.855469 -8.851562 0.175781 -8.726562 L 0.277344 -7.253906 C 0.984375 -7.324219 1.769531 -7.367188 2.5625 -7.394531 C 2.558594 -7.128906 2.558594 -6.824219 2.550781 -6.480469 L 2.53125 -5.402344 C 2.527344 -4.652344 2.511719 -3.878906 2.511719 -3.230469 C 2.507812 -2.582031 2.511719 -2.050781 2.519531 -1.800781 C 2.542969 -1.089844 2.613281 -0.597656 2.855469 -0.273438 C 3.097656 0.0507812 3.515625 0.191406 4.257812 0.191406 Z M 4.257812 0.191406 "/></g></g></g><g fill="#ffffff" fill-opacity="1"><g transform="translate(153.045277, 58.085744)"><g><path d="M 5.066406 0.253906 C 6.96875 0.253906 8.226562 -0.261719 9.011719 -1.105469 C 9.792969 -1.949219 10.089844 -3.117188 10.089844 -4.4375 C 10.089844 -4.847656 10.066406 -5.457031 10.019531 -6.074219 C 9.96875 -6.6875 9.902344 -7.304688 9.816406 -7.730469 C 9.671875 -8.390625 9.488281 -8.726562 9.191406 -8.898438 C 8.886719 -9.070312 8.480469 -9.0625 7.902344 -9.0625 C 7.367188 -9.054688 7.152344 -8.890625 7.09375 -8.566406 C 7.039062 -8.242188 7.144531 -7.753906 7.273438 -7.09375 L 7.316406 -6.734375 C 7.347656 -6.429688 7.386719 -6.0625 7.417969 -5.6875 C 7.445312 -5.304688 7.476562 -4.96875 7.488281 -4.722656 C 7.496094 -4.601562 7.496094 -4.519531 7.496094 -4.472656 C 7.496094 -3.535156 7.375 -2.730469 7.042969 -2.152344 C 6.707031 -1.566406 6.144531 -1.230469 5.273438 -1.230469 C 4.714844 -1.230469 4.257812 -1.464844 3.933594 -1.980469 C 3.609375 -2.496094 3.425781 -3.300781 3.425781 -4.441406 C 3.425781 -5.660156 3.441406 -6.585938 3.453125 -7.332031 C 3.464844 -8.066406 3.464844 -8.613281 3.457031 -9.050781 L 0.882812 -8.929688 C 0.832031 -8.390625 0.792969 -7.671875 0.769531 -6.886719 C 0.742188 -6.09375 0.730469 -5.222656 0.730469 -4.367188 C 0.730469 -2.867188 1.046875 -1.714844 1.75 -0.933594 C 2.457031 -0.144531 3.542969 0.253906 5.066406 0.253906 Z M 5.066406 0.253906 "/></g></g></g><g fill="#ffffff" fill-opacity="1"><g transform="translate(163.775943, 58.085744)"><g><path d="M 4.855469 0.0820312 C 6.582031 0.0820312 7.824219 -0.367188 8.632812 -1.148438 C 9.4375 -1.929688 9.8125 -3.027344 9.8125 -4.339844 C 9.8125 -5.894531 9.285156 -7.078125 8.394531 -7.863281 C 7.5 -8.648438 6.238281 -9.042969 4.765625 -9.042969 C 4.335938 -9.042969 3.839844 -9.039062 3.355469 -9.023438 C 2.875 -9.011719 2.417969 -8.980469 2.082031 -8.949219 L 0.5 -8.898438 L 0.480469 -7.734375 L 0.976562 -7.753906 L 1.003906 -1.390625 C 1.003906 -0.8125 1.109375 -0.488281 1.363281 -0.292969 C 1.613281 -0.09375 2 -0.0390625 2.550781 -0.0117188 C 2.601562 -0.0078125 2.683594 0 2.804688 0.0078125 C 2.917969 0.0117188 3.050781 0.0234375 3.199219 0.03125 C 3.496094 0.0507812 3.839844 0.0625 4.152344 0.0703125 C 4.457031 0.0742188 4.722656 0.0820312 4.855469 0.0820312 Z M 4.796875 -1.371094 C 4.4375 -1.371094 4 -1.382812 3.675781 -1.410156 C 3.628906 -2.242188 3.59375 -3.292969 3.566406 -4.347656 C 3.535156 -5.402344 3.515625 -6.460938 3.496094 -7.296875 C 3.644531 -7.304688 3.808594 -7.3125 3.992188 -7.3125 L 4.5 -7.3125 C 5.183594 -7.3125 5.824219 -7.09375 6.289062 -6.605469 C 6.746094 -6.117188 7.042969 -5.363281 7.042969 -4.277344 C 7.042969 -3.433594 6.804688 -2.703125 6.402344 -2.191406 C 5.996094 -1.675781 5.433594 -1.371094 4.796875 -1.371094 Z M 4.796875 -1.371094 "/></g></g></g><g fill="#ffffff" fill-opacity="1"><g transform="translate(174.08779, 58.085744)"><g><path d="M 6.613281 0.03125 C 7.164062 0.0390625 7.558594 -0.0078125 7.8125 -0.210938 C 8.066406 -0.40625 8.1875 -0.75 8.1875 -1.332031 C 8.1875 -1.535156 8.125 -1.738281 8.027344 -1.886719 C 7.925781 -2.03125 7.804688 -2.121094 7.699219 -2.113281 C 7.550781 -2.101562 7.382812 -2.089844 7.179688 -2.082031 C 6.773438 -2.054688 6.296875 -2.042969 5.789062 -2.039062 C 5.527344 -2.03125 5.273438 -2.03125 5.019531 -2.023438 C 4.765625 -2.019531 4.519531 -2.019531 4.277344 -2.019531 L 3.609375 -2.019531 C 3.59375 -2.550781 3.585938 -3.140625 3.578125 -3.757812 L 6.015625 -3.738281 C 6.453125 -3.738281 6.773438 -3.757812 6.980469 -3.890625 C 7.183594 -4.023438 7.28125 -4.269531 7.28125 -4.746094 C 7.28125 -4.917969 7.230469 -5.089844 7.152344 -5.222656 C 7.078125 -5.351562 6.976562 -5.433594 6.878906 -5.433594 C 6.59375 -5.40625 6.085938 -5.382812 5.488281 -5.375 C 4.894531 -5.367188 4.203125 -5.355469 3.566406 -5.355469 C 3.558594 -5.6875 3.558594 -5.984375 3.558594 -6.246094 L 3.558594 -7.019531 L 6.804688 -7.007812 C 7.355469 -7 7.75 -7.042969 8.003906 -7.242188 C 8.257812 -7.4375 8.378906 -7.78125 8.378906 -8.363281 C 8.378906 -8.574219 8.3125 -8.785156 8.21875 -8.9375 C 8.125 -9.089844 8.003906 -9.191406 7.894531 -9.183594 C 7.535156 -9.140625 6.898438 -9.113281 6.175781 -9.09375 C 5.453125 -9.070312 4.640625 -9.054688 3.929688 -9.042969 C 3.21875 -9.03125 2.59375 -9.019531 2.257812 -9.019531 L 1.960938 -9.019531 C 1.828125 -9.011719 1.683594 -9.011719 1.523438 -9.011719 C 1.363281 -9.011719 1.207031 -9.011719 1.058594 -9.003906 C 0.886719 -9 0.71875 -9 0.546875 -9 L 0.515625 -7.835938 L 1.007812 -7.855469 L 0.957031 -2.011719 C 0.953125 -1.300781 1.015625 -0.804688 1.269531 -0.480469 C 1.515625 -0.152344 1.953125 -0.0078125 2.695312 -0.0078125 Z M 6.613281 0.03125 "/></g></g></g><g fill="#ffffff" fill-opacity="1"><g transform="translate(182.927424, 58.085744)"><g><path d="M 8.503906 0.125 C 8.808594 0.160156 9.121094 0.140625 9.355469 0.03125 C 9.582031 -0.0742188 9.734375 -0.277344 9.734375 -0.589844 L 9.761719 -7.164062 C 9.765625 -7.875 9.765625 -8.394531 9.578125 -8.746094 C 9.386719 -9.09375 9 -9.265625 8.257812 -9.265625 C 7.996094 -9.265625 7.753906 -9.183594 7.585938 -9.070312 C 7.414062 -8.953125 7.304688 -8.796875 7.324219 -8.664062 C 7.355469 -8.238281 7.382812 -7.476562 7.398438 -6.585938 C 7.417969 -5.691406 7.425781 -4.660156 7.425781 -3.695312 C 7.171875 -4.054688 6.910156 -4.429688 6.652344 -4.8125 C 6.125 -5.566406 5.621094 -6.28125 5.183594 -6.917969 C 4.964844 -7.230469 4.773438 -7.507812 4.609375 -7.75 C 4.4375 -7.988281 4.304688 -8.1875 4.195312 -8.339844 C 4.085938 -8.484375 4.03125 -8.574219 4.011719 -8.59375 C 3.839844 -8.917969 3.578125 -9.03125 3.253906 -9.042969 C 2.933594 -9.054688 2.558594 -8.96875 2.203125 -8.898438 C 1.839844 -8.828125 1.480469 -8.769531 1.191406 -8.847656 C 1.148438 -8.421875 1.105469 -7.976562 1.066406 -7.515625 C 0.988281 -6.574219 0.933594 -5.605469 0.902344 -4.660156 C 0.871094 -3.710938 0.851562 -2.832031 0.851562 -2.074219 C 0.851562 -1.3125 0.871094 -0.722656 0.902344 -0.363281 C 0.914062 -0.175781 0.933594 -0.0703125 0.957031 -0.0234375 L 3.25 0.0195312 C 3.242188 0.0195312 3.242188 -0.0703125 3.238281 -0.246094 L 3.21875 -0.964844 C 3.203125 -1.566406 3.1875 -2.398438 3.179688 -3.3125 C 3.171875 -4.21875 3.171875 -5.203125 3.199219 -6.117188 C 3.710938 -5.375 4.304688 -4.539062 4.875 -3.726562 C 5.445312 -2.90625 6.011719 -2.125 6.472656 -1.492188 C 6.9375 -0.855469 7.304688 -0.378906 7.5 -0.175781 C 7.546875 -0.152344 7.578125 -0.132812 7.621094 -0.113281 C 7.871094 0.0078125 8.191406 0.09375 8.503906 0.125 Z M 8.503906 0.125 "/></g></g></g><g fill="#ffffff" fill-opacity="1"><g transform="translate(193.778654, 58.085744)"><g><path d="M 4.257812 0.191406 C 4.519531 0.191406 4.792969 0.101562 4.988281 -0.0117188 C 5.183594 -0.125 5.3125 -0.277344 5.292969 -0.414062 C 5.25 -0.648438 5.214844 -0.9375 5.191406 -1.289062 C 5.140625 -1.992188 5.101562 -2.835938 5.082031 -3.75 C 5.066406 -4.660156 5.066406 -5.554688 5.066406 -6.351562 C 5.066406 -6.753906 5.066406 -7.101562 5.070312 -7.40625 C 5.839844 -7.386719 6.5 -7.34375 6.980469 -7.273438 C 7.335938 -7.222656 7.597656 -7.324219 7.769531 -7.496094 C 7.9375 -7.667969 8.023438 -7.894531 8.023438 -8.089844 C 8.023438 -8.320312 7.964844 -8.535156 7.84375 -8.699219 C 7.71875 -8.867188 7.539062 -8.980469 7.3125 -9.003906 C 6.753906 -9.0625 5.996094 -9.101562 5.164062 -9.101562 C 4.335938 -9.101562 3.425781 -9.074219 2.558594 -9.011719 C 1.6875 -8.949219 0.855469 -8.851562 0.175781 -8.726562 L 0.277344 -7.253906 C 0.984375 -7.324219 1.769531 -7.367188 2.5625 -7.394531 C 2.558594 -7.128906 2.558594 -6.824219 2.550781 -6.480469 L 2.53125 -5.402344 C 2.527344 -4.652344 2.511719 -3.878906 2.511719 -3.230469 C 2.507812 -2.582031 2.511719 -2.050781 2.519531 -1.800781 C 2.542969 -1.089844 2.613281 -0.597656 2.855469 -0.273438 C 3.097656 0.0507812 3.515625 0.191406 4.257812 0.191406 Z M 4.257812 0.191406 "/></g></g></g><g fill="#ffffff" fill-opacity="1"><g transform="translate(93.501384, 81.006691)"><g><path d="M 2.695312 0.160156 C 2.957031 0.160156 3.210938 0.0742188 3.394531 -0.0429688 C 3.578125 -0.164062 3.6875 -0.3125 3.679688 -0.445312 C 3.65625 -0.730469 3.636719 -1.160156 3.617188 -1.675781 C 3.597656 -2.183594 3.585938 -2.78125 3.578125 -3.40625 L 6.066406 -3.394531 C 6.503906 -3.390625 6.824219 -3.425781 7.03125 -3.585938 C 7.234375 -3.746094 7.332031 -4.015625 7.332031 -4.492188 C 7.332031 -4.664062 7.28125 -4.824219 7.203125 -4.945312 C 7.128906 -5.066406 7.027344 -5.132812 6.929688 -5.132812 C 6.644531 -5.109375 6.125 -5.082031 5.515625 -5.078125 C 4.90625 -5.070312 4.207031 -5.058594 3.566406 -5.058594 C 3.558594 -5.4375 3.558594 -5.78125 3.558594 -6.09375 L 3.558594 -6.992188 L 6.714844 -6.976562 C 7.265625 -6.96875 7.660156 -7.011719 7.914062 -7.214844 C 8.167969 -7.414062 8.289062 -7.753906 8.289062 -8.339844 C 8.289062 -8.542969 8.226562 -8.75 8.128906 -8.910156 C 8.027344 -9.0625 7.90625 -9.164062 7.800781 -9.15625 C 7.417969 -9.113281 6.738281 -9.089844 5.976562 -9.0625 C 5.214844 -9.039062 4.367188 -9.019531 3.648438 -9.011719 C 3.289062 -9.003906 2.96875 -9.003906 2.695312 -9 C 2.417969 -8.992188 2.214844 -8.992188 2.089844 -8.992188 L 1.960938 -8.992188 C 1.828125 -8.988281 1.683594 -8.988281 1.523438 -8.988281 C 1.363281 -8.988281 1.207031 -8.988281 1.058594 -8.980469 C 0.886719 -8.972656 0.71875 -8.972656 0.546875 -8.972656 L 0.515625 -7.8125 L 1.007812 -7.824219 L 0.957031 -1.847656 C 0.953125 -1.136719 1.015625 -0.640625 1.269531 -0.316406 C 1.515625 0.0117188 1.953125 0.160156 2.695312 0.160156 Z M 2.695312 0.160156 "/></g></g></g><g fill="#ffffff" fill-opacity="1"><g transform="translate(102.011039, 81.006691)"><g><path d="M 4.875 0.253906 C 6.195312 0.253906 7.234375 0.0078125 8.027344 -0.414062 C 8.816406 -0.832031 9.359375 -1.414062 9.710938 -2.105469 C 10.058594 -2.792969 10.203125 -3.578125 10.1875 -4.386719 C 10.167969 -5.015625 10.070312 -5.707031 9.851562 -6.257812 C 9.628906 -6.808594 9.292969 -7.230469 8.808594 -7.3125 L 9.324219 -7.640625 C 8.9375 -8.21875 8.390625 -8.644531 7.730469 -8.929688 C 7.0625 -9.207031 6.28125 -9.347656 5.425781 -9.347656 C 4.511719 -9.347656 3.648438 -9.191406 2.914062 -8.847656 C 2.171875 -8.503906 1.546875 -7.976562 1.109375 -7.261719 C 0.671875 -6.542969 0.417969 -5.621094 0.414062 -4.480469 C 0.394531 -3.085938 0.75 -1.902344 1.484375 -1.074219 C 2.222656 -0.234375 3.351562 0.253906 4.875 0.253906 Z M 5.148438 -1.230469 C 4.59375 -1.230469 4.085938 -1.492188 3.710938 -1.980469 C 3.339844 -2.460938 3.109375 -3.179688 3.109375 -4.113281 C 3.109375 -5.324219 3.421875 -6.175781 3.871094 -6.722656 C 4.320312 -7.265625 4.90625 -7.5 5.457031 -7.5 C 5.964844 -7.5 6.332031 -7.382812 6.613281 -7.179688 C 6.890625 -6.96875 7.082031 -6.671875 7.242188 -6.308594 L 7.433594 -6.429688 C 7.414062 -6.21875 7.449219 -5.972656 7.488281 -5.679688 C 7.527344 -5.386719 7.570312 -5.039062 7.589844 -4.640625 C 7.597656 -4.15625 7.558594 -3.617188 7.425781 -3.117188 C 7.292969 -2.609375 7.070312 -2.140625 6.703125 -1.796875 C 6.332031 -1.453125 5.824219 -1.230469 5.148438 -1.230469 Z M 5.148438 -1.230469 "/></g></g></g><g fill="#ffffff" fill-opacity="1"><g transform="translate(112.760737, 81.006691)"><g><path d="M 6.828125 0.40625 C 7.101562 0.414062 7.527344 0.378906 8.15625 0.226562 C 8.839844 0.0585938 9.039062 -0.285156 8.632812 -0.886719 C 8.105469 -1.464844 7.652344 -2.101562 7.246094 -2.734375 C 8.636719 -3.222656 9.253906 -4.175781 9.203125 -5.707031 C 9.175781 -6.59375 8.9375 -7.265625 8.53125 -7.753906 C 8.125 -8.242188 7.558594 -8.574219 6.878906 -8.769531 C 6.195312 -8.96875 5.402344 -9.042969 4.539062 -9.042969 C 4.066406 -9.042969 3.636719 -9.03125 3.242188 -9.003906 C 2.457031 -8.953125 1.839844 -8.890625 1.433594 -8.828125 C 1.226562 -8.796875 1.074219 -8.769531 0.976562 -8.765625 L 0.988281 -8.75 L 0.984375 -8.75 L 0.996094 -3.859375 L 0.539062 -3.898438 L 0.515625 -2.730469 L 0.996094 -2.679688 L 1.007812 0.09375 L 3.726562 -0.0820312 C 3.667969 -0.515625 3.625 -1.351562 3.578125 -2.347656 C 3.8125 -2.335938 4.035156 -2.328125 4.246094 -2.328125 L 4.519531 -2.328125 C 4.609375 -2.328125 4.695312 -2.328125 4.777344 -2.335938 C 5.015625 -1.835938 5.304688 -1.230469 5.597656 -0.722656 C 5.890625 -0.210938 6.167969 0.210938 6.417969 0.34375 C 6.421875 0.347656 6.453125 0.355469 6.523438 0.375 C 6.585938 0.394531 6.6875 0.40625 6.828125 0.40625 Z M 3.851562 -3.78125 C 3.738281 -3.78125 3.628906 -3.789062 3.535156 -3.796875 C 3.527344 -4.117188 3.515625 -4.449219 3.507812 -4.773438 L 3.492188 -5.71875 C 3.484375 -6.320312 3.472656 -6.875 3.464844 -7.3125 C 3.535156 -7.3125 3.605469 -7.3125 3.675781 -7.316406 L 3.890625 -7.316406 C 4.582031 -7.316406 5.253906 -7.285156 5.742188 -7.042969 C 6.230469 -6.804688 6.550781 -6.359375 6.53125 -5.539062 C 6.523438 -4.929688 6.257812 -4.488281 5.832031 -4.207031 C 5.40625 -3.921875 4.828125 -3.78125 4.195312 -3.78125 Z M 3.851562 -3.78125 "/></g></g></g><g fill="#ffffff" fill-opacity="1"><g transform="translate(122.596647, 81.006691)"><g/></g></g><g fill="#ffffff" fill-opacity="1"><g transform="translate(125.928171, 81.006691)"><g><path d="M 4.429688 0.191406 C 4.652344 0.191406 4.835938 0.171875 4.988281 0.140625 C 5.292969 0.0742188 5.484375 -0.0820312 5.589844 -0.375 C 5.691406 -0.667969 5.71875 -1.089844 5.742188 -1.546875 C 5.761719 -2 5.789062 -2.476562 5.792969 -2.933594 C 5.800781 -3.160156 5.800781 -3.371094 5.808594 -3.554688 C 6.96875 -3.808594 7.703125 -4.328125 8.140625 -5.019531 C 8.582031 -5.707031 8.734375 -6.574219 8.734375 -7.515625 C 8.734375 -7.683594 8.71875 -7.933594 8.644531 -8.179688 C 8.566406 -8.429688 8.421875 -8.683594 8.160156 -8.871094 C 7.902344 -9.0625 7.519531 -9.191406 6.96875 -9.191406 C 6.582031 -9.191406 6.367188 -8.941406 6.25 -8.644531 C 6.136719 -8.34375 6.113281 -7.996094 6.113281 -7.792969 C 6.113281 -7.03125 6.105469 -6.308594 5.894531 -5.769531 C 5.6875 -5.230469 5.28125 -4.878906 4.46875 -4.878906 C 3.914062 -4.878906 3.585938 -5.113281 3.390625 -5.628906 C 3.191406 -6.144531 3.136719 -6.941406 3.136719 -8.085938 L 3.136719 -9.042969 L 1.867188 -8.992188 L 1.871094 -9 L 0.0390625 -8.949219 L 0.0117188 -7.785156 L 0.429688 -7.800781 C 0.4375 -6.53125 0.566406 -5.527344 0.953125 -4.796875 C 1.339844 -4.0625 2 -3.609375 3.070312 -3.453125 L 3.089844 -2.835938 C 3.097656 -2.613281 3.109375 -2.386719 3.117188 -2.164062 C 3.121094 -1.9375 3.136719 -1.714844 3.140625 -1.503906 L 3.160156 -0.945312 C 3.167969 -0.621094 3.203125 -0.335938 3.382812 -0.132812 C 3.554688 0.0703125 3.863281 0.191406 4.429688 0.191406 Z M 4.429688 0.191406 "/></g></g></g><g fill="#ffffff" fill-opacity="1"><g transform="translate(134.913751, 81.006691)"><g><path d="M 4.875 0.253906 C 6.195312 0.253906 7.234375 0.0078125 8.027344 -0.414062 C 8.816406 -0.832031 9.359375 -1.414062 9.710938 -2.105469 C 10.058594 -2.792969 10.203125 -3.578125 10.1875 -4.386719 C 10.167969 -5.015625 10.070312 -5.707031 9.851562 -6.257812 C 9.628906 -6.808594 9.292969 -7.230469 8.808594 -7.3125 L 9.324219 -7.640625 C 8.9375 -8.21875 8.390625 -8.644531 7.730469 -8.929688 C 7.0625 -9.207031 6.28125 -9.347656 5.425781 -9.347656 C 4.511719 -9.347656 3.648438 -9.191406 2.914062 -8.847656 C 2.171875 -8.503906 1.546875 -7.976562 1.109375 -7.261719 C 0.671875 -6.542969 0.417969 -5.621094 0.414062 -4.480469 C 0.394531 -3.085938 0.75 -1.902344 1.484375 -1.074219 C 2.222656 -0.234375 3.351562 0.253906 4.875 0.253906 Z M 5.148438 -1.230469 C 4.59375 -1.230469 4.085938 -1.492188 3.710938 -1.980469 C 3.339844 -2.460938 3.109375 -3.179688 3.109375 -4.113281 C 3.109375 -5.324219 3.421875 -6.175781 3.871094 -6.722656 C 4.320312 -7.265625 4.90625 -7.5 5.457031 -7.5 C 5.964844 -7.5 6.332031 -7.382812 6.613281 -7.179688 C 6.890625 -6.96875 7.082031 -6.671875 7.242188 -6.308594 L 7.433594 -6.429688 C 7.414062 -6.21875 7.449219 -5.972656 7.488281 -5.679688 C 7.527344 -5.386719 7.570312 -5.039062 7.589844 -4.640625 C 7.597656 -4.15625 7.558594 -3.617188 7.425781 -3.117188 C 7.292969 -2.609375 7.070312 -2.140625 6.703125 -1.796875 C 6.332031 -1.453125 5.824219 -1.230469 5.148438 -1.230469 Z M 5.148438 -1.230469 "/></g></g></g><g fill="#ffffff" fill-opacity="1"><g transform="translate(145.663449, 81.006691)"><g><path d="M 5.066406 0.253906 C 6.96875 0.253906 8.226562 -0.261719 9.011719 -1.105469 C 9.792969 -1.949219 10.089844 -3.117188 10.089844 -4.4375 C 10.089844 -4.847656 10.066406 -5.457031 10.019531 -6.074219 C 9.96875 -6.6875 9.902344 -7.304688 9.816406 -7.730469 C 9.671875 -8.390625 9.488281 -8.726562 9.191406 -8.898438 C 8.886719 -9.070312 8.480469 -9.0625 7.902344 -9.0625 C 7.367188 -9.054688 7.152344 -8.890625 7.09375 -8.566406 C 7.039062 -8.242188 7.144531 -7.753906 7.273438 -7.09375 L 7.316406 -6.734375 C 7.347656 -6.429688 7.386719 -6.0625 7.417969 -5.6875 C 7.445312 -5.304688 7.476562 -4.96875 7.488281 -4.722656 C 7.496094 -4.601562 7.496094 -4.519531 7.496094 -4.472656 C 7.496094 -3.535156 7.375 -2.730469 7.042969 -2.152344 C 6.707031 -1.566406 6.144531 -1.230469 5.273438 -1.230469 C 4.714844 -1.230469 4.257812 -1.464844 3.933594 -1.980469 C 3.609375 -2.496094 3.425781 -3.300781 3.425781 -4.441406 C 3.425781 -5.660156 3.441406 -6.585938 3.453125 -7.332031 C 3.464844 -8.066406 3.464844 -8.613281 3.457031 -9.050781 L 0.882812 -8.929688 C 0.832031 -8.390625 0.792969 -7.671875 0.769531 -6.886719 C 0.742188 -6.09375 0.730469 -5.222656 0.730469 -4.367188 C 0.730469 -2.867188 1.046875 -1.714844 1.75 -0.933594 C 2.457031 -0.144531 3.542969 0.253906 5.066406 0.253906 Z M 5.066406 0.253906 "/></g></g></g><g fill="#ffffff" fill-opacity="1"><g transform="translate(156.394115, 81.006691)"><g><path d="M 6.828125 0.40625 C 7.101562 0.414062 7.527344 0.378906 8.15625 0.226562 C 8.839844 0.0585938 9.039062 -0.285156 8.632812 -0.886719 C 8.105469 -1.464844 7.652344 -2.101562 7.246094 -2.734375 C 8.636719 -3.222656 9.253906 -4.175781 9.203125 -5.707031 C 9.175781 -6.59375 8.9375 -7.265625 8.53125 -7.753906 C 8.125 -8.242188 7.558594 -8.574219 6.878906 -8.769531 C 6.195312 -8.96875 5.402344 -9.042969 4.539062 -9.042969 C 4.066406 -9.042969 3.636719 -9.03125 3.242188 -9.003906 C 2.457031 -8.953125 1.839844 -8.890625 1.433594 -8.828125 C 1.226562 -8.796875 1.074219 -8.769531 0.976562 -8.765625 L 0.988281 -8.75 L 0.984375 -8.75 L 0.996094 -3.859375 L 0.539062 -3.898438 L 0.515625 -2.730469 L 0.996094 -2.679688 L 1.007812 0.09375 L 3.726562 -0.0820312 C 3.667969 -0.515625 3.625 -1.351562 3.578125 -2.347656 C 3.8125 -2.335938 4.035156 -2.328125 4.246094 -2.328125 L 4.519531 -2.328125 C 4.609375 -2.328125 4.695312 -2.328125 4.777344 -2.335938 C 5.015625 -1.835938 5.304688 -1.230469 5.597656 -0.722656 C 5.890625 -0.210938 6.167969 0.210938 6.417969 0.34375 C 6.421875 0.347656 6.453125 0.355469 6.523438 0.375 C 6.585938 0.394531 6.6875 0.40625 6.828125 0.40625 Z M 3.851562 -3.78125 C 3.738281 -3.78125 3.628906 -3.789062 3.535156 -3.796875 C 3.527344 -4.117188 3.515625 -4.449219 3.507812 -4.773438 L 3.492188 -5.71875 C 3.484375 -6.320312 3.472656 -6.875 3.464844 -7.3125 C 3.535156 -7.3125 3.605469 -7.3125 3.675781 -7.316406 L 3.890625 -7.316406 C 4.582031 -7.316406 5.253906 -7.285156 5.742188 -7.042969 C 6.230469 -6.804688 6.550781 -6.359375 6.53125 -5.539062 C 6.523438 -4.929688 6.257812 -4.488281 5.832031 -4.207031 C 5.40625 -3.921875 4.828125 -3.78125 4.195312 -3.78125 Z M 3.851562 -3.78125 "/></g></g></g><g fill="#ffffff" fill-opacity="1"><g transform="translate(166.230026, 81.006691)"><g/></g></g><g fill="#ffffff" fill-opacity="1"><g transform="translate(169.561549, 81.006691)"><g><path d="M 4.0625 0.183594 C 4.625 0.183594 5.253906 0.109375 5.839844 -0.0703125 C 6.417969 -0.246094 6.949219 -0.527344 7.34375 -0.953125 C 7.734375 -1.378906 7.976562 -1.9375 7.976562 -2.652344 C 7.976562 -3.109375 7.894531 -3.496094 7.722656 -3.820312 C 7.386719 -4.457031 6.824219 -4.886719 6.136719 -5.171875 C 5.445312 -5.453125 4.796875 -5.628906 4.265625 -5.769531 C 4 -5.839844 3.761719 -5.910156 3.558594 -5.976562 C 3.152344 -6.117188 2.886719 -6.269531 2.886719 -6.492188 C 2.886719 -6.695312 3.035156 -6.855469 3.253906 -6.960938 C 3.476562 -7.070312 3.769531 -7.132812 4.074219 -7.132812 C 4.488281 -7.132812 5.050781 -7.019531 5.570312 -6.855469 C 6.09375 -6.6875 6.554688 -6.480469 6.804688 -6.296875 L 7.585938 -8.1875 C 7.296875 -8.472656 6.835938 -8.734375 6.246094 -8.917969 C 5.65625 -9.09375 4.929688 -9.203125 4.117188 -9.203125 C 2.945312 -9.203125 2.039062 -8.902344 1.429688 -8.402344 C 0.8125 -7.894531 0.488281 -7.195312 0.488281 -6.382812 C 0.488281 -6.015625 0.558594 -5.699219 0.699219 -5.4375 C 0.976562 -4.90625 1.445312 -4.542969 2.03125 -4.289062 C 2.613281 -4.035156 3.222656 -3.859375 3.8125 -3.710938 C 4.113281 -3.636719 4.378906 -3.554688 4.613281 -3.472656 C 5.089844 -3.300781 5.414062 -3.089844 5.414062 -2.761719 C 5.414062 -2.5 5.253906 -2.296875 5.007812 -2.171875 C 4.753906 -2.039062 4.421875 -1.96875 4.074219 -1.96875 C 3.746094 -1.96875 3.445312 -2.011719 3.179688 -2.105469 C 2.640625 -2.292969 2.207031 -2.550781 1.839844 -2.78125 C 1.65625 -2.894531 1.480469 -2.96875 1.3125 -3.007812 C 0.882812 -3.101562 0.582031 -2.964844 0.394531 -2.734375 C 0.203125 -2.5 0.113281 -2.171875 0.132812 -1.871094 C 0.191406 -1.410156 0.601562 -0.894531 1.289062 -0.496094 C 1.972656 -0.09375 2.925781 0.183594 4.0625 0.183594 Z M 4.0625 0.183594 "/></g></g></g><g fill="#ffffff" fill-opacity="1"><g transform="translate(177.988703, 81.006691)"><g><path d="M 11.085938 0.191406 C 11.347656 0.191406 11.601562 0.101562 11.785156 -0.0117188 C 11.96875 -0.125 12.078125 -0.277344 12.070312 -0.414062 C 12.050781 -0.617188 12.03125 -0.894531 12.019531 -1.242188 C 11.996094 -1.941406 11.96875 -2.8125 11.964844 -3.777344 C 11.957031 -4.257812 11.957031 -4.734375 11.949219 -5.203125 C 11.945312 -6.308594 11.9375 -7.496094 11.9375 -8.765625 C 11.9375 -8.910156 11.898438 -9.011719 11.816406 -9.070312 C 11.660156 -9.191406 11.386719 -9.191406 11.035156 -9.125 L 10.496094 -9.03125 C 10.117188 -8.96875 9.714844 -8.910156 9.386719 -8.988281 C 8.746094 -8.105469 8.167969 -7.230469 7.660156 -6.402344 C 7.152344 -5.578125 6.714844 -4.796875 6.359375 -4.136719 C 6.023438 -4.773438 5.707031 -5.464844 5.414062 -6.105469 C 5.121094 -6.746094 4.867188 -7.335938 4.683594 -7.785156 C 4.589844 -8.007812 4.511719 -8.191406 4.457031 -8.339844 C 4.398438 -8.480469 4.359375 -8.5625 4.347656 -8.59375 C 4.195312 -8.902344 3.898438 -9.023438 3.546875 -9.039062 C 3.191406 -9.050781 2.773438 -8.960938 2.375 -8.890625 C 1.972656 -8.820312 1.585938 -8.769531 1.300781 -8.847656 C 1.230469 -8.421875 1.175781 -7.976562 1.117188 -7.507812 C 1.007812 -6.570312 0.921875 -5.597656 0.863281 -4.652344 C 0.804688 -3.707031 0.773438 -2.824219 0.753906 -2.070312 C 0.734375 -1.3125 0.75 -0.722656 0.773438 -0.363281 C 0.785156 -0.175781 0.804688 -0.0703125 0.832031 -0.0234375 L 2.558594 0.0195312 C 2.550781 0.0195312 2.550781 -0.0625 2.558594 -0.222656 C 2.558594 -0.378906 2.558594 -0.597656 2.5625 -0.871094 C 2.5625 -1.421875 2.578125 -2.183594 2.601562 -3.027344 C 2.621094 -3.871094 2.652344 -4.804688 2.683594 -5.691406 C 2.988281 -5.015625 3.304688 -4.328125 3.59375 -3.726562 C 3.878906 -3.117188 4.136719 -2.589844 4.335938 -2.234375 C 4.511719 -1.878906 4.675781 -1.53125 4.886719 -1.277344 C 5.097656 -1.023438 5.351562 -0.855469 5.707031 -0.855469 C 6.0625 -0.855469 6.472656 -1.003906 6.898438 -1.351562 C 6.910156 -1.359375 6.949219 -1.421875 7.019531 -1.542969 C 7.089844 -1.65625 7.179688 -1.816406 7.292969 -2.019531 C 7.40625 -2.222656 7.539062 -2.460938 7.699219 -2.734375 L 8.191406 -3.617188 C 8.546875 -4.253906 8.953125 -4.964844 9.367188 -5.671875 L 9.347656 -1.910156 C 9.34375 -1.199219 9.40625 -0.679688 9.660156 -0.328125 C 9.90625 0.0234375 10.34375 0.191406 11.085938 0.191406 Z M 11.085938 0.191406 "/></g></g></g><g fill="#ffffff" fill-opacity="1"><g transform="translate(191.016531, 81.006691)"><g><path d="M 2.628906 0.191406 C 2.886719 0.191406 3.152344 0.101562 3.355469 -0.0117188 C 3.554688 -0.125 3.679688 -0.277344 3.660156 -0.414062 C 3.605469 -0.824219 3.558594 -1.585938 3.527344 -2.480469 C 3.496094 -3.371094 3.472656 -4.40625 3.464844 -5.386719 C 3.445312 -6.542969 3.441406 -7.785156 3.445312 -9.113281 L 0.945312 -8.988281 C 0.925781 -7.8125 0.914062 -6.738281 0.902344 -5.761719 C 0.894531 -4.925781 0.882812 -4.054688 0.882812 -3.339844 C 0.875 -2.621094 0.882812 -2.050781 0.886719 -1.800781 C 0.914062 -1.089844 0.984375 -0.597656 1.226562 -0.273438 C 1.464844 0.0507812 1.886719 0.191406 2.628906 0.191406 Z M 2.628906 0.191406 "/></g></g></g><g fill="#ffffff" fill-opacity="1"><g transform="translate(195.610853, 81.006691)"><g><path d="M 6.269531 0.0898438 C 6.652344 0.140625 7.011719 0.0742188 7.273438 -0.152344 C 7.535156 -0.375 7.699219 -0.761719 7.699219 -1.34375 C 7.699219 -1.546875 7.628906 -1.738281 7.527344 -1.871094 C 7.425781 -2.003906 7.304688 -2.105469 7.203125 -2.132812 C 6.722656 -2.265625 6.015625 -2.285156 5.304688 -2.257812 C 4.59375 -2.226562 3.871094 -2.144531 3.332031 -2.070312 C 3.339844 -2.722656 3.363281 -3.476562 3.394531 -4.257812 C 3.425781 -5.039062 3.457031 -5.824219 3.503906 -6.535156 C 3.546875 -7.367188 3.59375 -8.210938 3.644531 -9.054688 L 2.214844 -9.019531 L 2.222656 -9.03125 L 1.230469 -8.992188 L 0.964844 -8.988281 L 0.964844 -8.980469 L 0.496094 -8.96875 L 0.46875 -7.8125 L 0.953125 -7.832031 L 0.914062 -1.847656 C 0.90625 -1.292969 0.90625 -0.902344 0.972656 -0.621094 C 1.035156 -0.34375 1.167969 -0.171875 1.429688 -0.0742188 C 1.683594 0.0234375 2.074219 0.0507812 2.652344 0.0507812 C 2.722656 0.0507812 2.785156 0.0429688 2.84375 0.03125 L 3.25 0.0117188 C 3.578125 0 3.992188 0 4.4375 0 C 4.660156 0 4.875 0 5.097656 0.0078125 C 5.535156 0.0195312 5.945312 0.0429688 6.269531 0.0898438 Z M 6.269531 0.0898438 "/></g></g></g><g fill="#ffffff" fill-opacity="1"><g transform="translate(203.625539, 81.006691)"><g><path d="M 6.613281 0.03125 C 7.164062 0.0390625 7.558594 -0.0078125 7.8125 -0.210938 C 8.066406 -0.40625 8.1875 -0.75 8.1875 -1.332031 C 8.1875 -1.535156 8.125 -1.738281 8.027344 -1.886719 C 7.925781 -2.03125 7.804688 -2.121094 7.699219 -2.113281 C 7.550781 -2.101562 7.382812 -2.089844 7.179688 -2.082031 C 6.773438 -2.054688 6.296875 -2.042969 5.789062 -2.039062 C 5.527344 -2.03125 5.273438 -2.03125 5.019531 -2.023438 C 4.765625 -2.019531 4.519531 -2.019531 4.277344 -2.019531 L 3.609375 -2.019531 C 3.59375 -2.550781 3.585938 -3.140625 3.578125 -3.757812 L 6.015625 -3.738281 C 6.453125 -3.738281 6.773438 -3.757812 6.980469 -3.890625 C 7.183594 -4.023438 7.28125 -4.269531 7.28125 -4.746094 C 7.28125 -4.917969 7.230469 -5.089844 7.152344 -5.222656 C 7.078125 -5.351562 6.976562 -5.433594 6.878906 -5.433594 C 6.59375 -5.40625 6.085938 -5.382812 5.488281 -5.375 C 4.894531 -5.367188 4.203125 -5.355469 3.566406 -5.355469 C 3.558594 -5.6875 3.558594 -5.984375 3.558594 -6.246094 L 3.558594 -7.019531 L 6.804688 -7.007812 C 7.355469 -7 7.75 -7.042969 8.003906 -7.242188 C 8.257812 -7.4375 8.378906 -7.78125 8.378906 -8.363281 C 8.378906 -8.574219 8.3125 -8.785156 8.21875 -8.9375 C 8.125 -9.089844 8.003906 -9.191406 7.894531 -9.183594 C 7.535156 -9.140625 6.898438 -9.113281 6.175781 -9.09375 C 5.453125 -9.070312 4.640625 -9.054688 3.929688 -9.042969 C 3.21875 -9.03125 2.59375 -9.019531 2.257812 -9.019531 L 1.960938 -9.019531 C 1.828125 -9.011719 1.683594 -9.011719 1.523438 -9.011719 C 1.363281 -9.011719 1.207031 -9.011719 1.058594 -9.003906 C 0.886719 -9 0.71875 -9 0.546875 -9 L 0.515625 -7.835938 L 1.007812 -7.855469 L 0.957031 -2.011719 C 0.953125 -1.300781 1.015625 -0.804688 1.269531 -0.480469 C 1.515625 -0.152344 1.953125 -0.0078125 2.695312 -0.0078125 Z M 6.613281 0.03125 "/></g></g></g><g fill="#545454" fill-opacity="1"><g transform="translate(81.102947, 60.535714)"><g><path d="M 4.53125 0.226562 C 6.238281 0.226562 7.359375 -0.234375 8.066406 -0.988281 C 8.765625 -1.742188 9.03125 -2.789062 9.03125 -3.96875 C 9.03125 -4.339844 9.007812 -4.882812 8.96875 -5.4375 C 8.921875 -5.988281 8.859375 -6.539062 8.785156 -6.917969 C 8.65625 -7.507812 8.492188 -7.808594 8.222656 -7.964844 C 7.953125 -8.117188 7.589844 -8.109375 7.070312 -8.109375 C 6.59375 -8.105469 6.402344 -7.957031 6.351562 -7.667969 C 6.300781 -7.378906 6.394531 -6.941406 6.507812 -6.351562 L 6.550781 -6.027344 C 6.578125 -5.753906 6.613281 -5.425781 6.640625 -5.089844 C 6.664062 -4.75 6.691406 -4.449219 6.703125 -4.226562 C 6.707031 -4.117188 6.707031 -4.042969 6.707031 -4.003906 C 6.707031 -3.164062 6.601562 -2.441406 6.304688 -1.925781 C 6.003906 -1.402344 5.5 -1.101562 4.71875 -1.101562 C 4.21875 -1.101562 3.8125 -1.3125 3.523438 -1.773438 C 3.230469 -2.230469 3.066406 -2.953125 3.066406 -3.976562 C 3.066406 -5.066406 3.078125 -5.894531 3.089844 -6.558594 C 3.101562 -7.21875 3.101562 -7.707031 3.09375 -8.097656 L 0.789062 -7.992188 C 0.742188 -7.507812 0.710938 -6.867188 0.6875 -6.164062 C 0.664062 -5.453125 0.652344 -4.675781 0.652344 -3.90625 C 0.652344 -2.566406 0.9375 -1.535156 1.566406 -0.835938 C 2.199219 -0.128906 3.167969 0.226562 4.53125 0.226562 Z M 4.53125 0.226562 "/></g></g></g><g fill="#545454" fill-opacity="1"><g transform="translate(82.134197, 38.035715)"><g><path d="M 3.636719 0.164062 C 4.140625 0.164062 4.703125 0.0976562 5.226562 -0.0625 C 5.742188 -0.222656 6.21875 -0.472656 6.570312 -0.851562 C 6.925781 -1.234375 7.140625 -1.730469 7.140625 -2.375 C 7.140625 -2.78125 7.066406 -3.128906 6.914062 -3.417969 C 6.613281 -3.988281 6.105469 -4.375 5.492188 -4.628906 C 4.875 -4.878906 4.292969 -5.039062 3.816406 -5.164062 C 3.578125 -5.226562 3.367188 -5.289062 3.1875 -5.351562 C 2.824219 -5.476562 2.585938 -5.613281 2.585938 -5.8125 C 2.585938 -5.992188 2.714844 -6.132812 2.914062 -6.230469 C 3.113281 -6.328125 3.375 -6.382812 3.648438 -6.382812 C 4.015625 -6.382812 4.519531 -6.28125 4.988281 -6.132812 C 5.453125 -5.988281 5.867188 -5.800781 6.089844 -5.632812 L 6.789062 -7.328125 C 6.53125 -7.582031 6.117188 -7.816406 5.589844 -7.980469 C 5.0625 -8.140625 4.414062 -8.234375 3.6875 -8.234375 C 2.636719 -8.234375 1.824219 -7.96875 1.277344 -7.519531 C 0.726562 -7.066406 0.4375 -6.441406 0.4375 -5.714844 C 0.4375 -5.382812 0.5 -5.101562 0.625 -4.867188 C 0.875 -4.390625 1.296875 -4.066406 1.816406 -3.839844 C 2.339844 -3.613281 2.886719 -3.453125 3.414062 -3.324219 C 3.679688 -3.253906 3.917969 -3.179688 4.128906 -3.105469 C 4.554688 -2.953125 4.84375 -2.765625 4.84375 -2.472656 C 4.84375 -2.238281 4.703125 -2.054688 4.480469 -1.941406 C 4.253906 -1.824219 3.957031 -1.761719 3.648438 -1.761719 C 3.351562 -1.761719 3.085938 -1.800781 2.84375 -1.886719 C 2.363281 -2.050781 1.976562 -2.285156 1.648438 -2.488281 C 1.484375 -2.589844 1.324219 -2.660156 1.175781 -2.691406 C 0.789062 -2.777344 0.523438 -2.652344 0.351562 -2.449219 C 0.183594 -2.238281 0.101562 -1.941406 0.121094 -1.675781 C 0.171875 -1.261719 0.539062 -0.800781 1.152344 -0.441406 C 1.765625 -0.0859375 2.617188 0.164062 3.636719 0.164062 Z M 3.636719 0.164062 "/></g></g></g><g fill="#545454" fill-opacity="1"><g transform="translate(82.286541, 49.285715)"><g><path d="M 3.8125 0.171875 C 4.042969 0.171875 4.289062 0.0898438 4.464844 -0.0117188 C 4.640625 -0.113281 4.753906 -0.25 4.738281 -0.371094 C 4.699219 -0.578125 4.667969 -0.839844 4.644531 -1.152344 C 4.601562 -1.785156 4.566406 -2.539062 4.550781 -3.355469 C 4.53125 -4.167969 4.53125 -4.96875 4.53125 -5.6875 C 4.53125 -6.042969 4.53125 -6.355469 4.539062 -6.628906 C 5.226562 -6.613281 5.816406 -6.570312 6.246094 -6.507812 C 6.566406 -6.464844 6.800781 -6.554688 6.953125 -6.707031 C 7.105469 -6.863281 7.179688 -7.066406 7.179688 -7.242188 C 7.179688 -7.445312 7.128906 -7.640625 7.019531 -7.789062 C 6.90625 -7.933594 6.746094 -8.035156 6.542969 -8.058594 C 6.042969 -8.109375 5.367188 -8.144531 4.625 -8.144531 C 3.878906 -8.144531 3.066406 -8.121094 2.289062 -8.066406 C 1.511719 -8.007812 0.765625 -7.921875 0.160156 -7.808594 L 0.25 -6.492188 C 0.878906 -6.554688 1.585938 -6.59375 2.292969 -6.617188 C 2.289062 -6.378906 2.289062 -6.105469 2.285156 -5.800781 L 2.265625 -4.832031 C 2.261719 -4.164062 2.25 -3.46875 2.25 -2.890625 C 2.242188 -2.3125 2.25 -1.835938 2.253906 -1.613281 C 2.277344 -0.976562 2.339844 -0.535156 2.554688 -0.246094 C 2.773438 0.046875 3.148438 0.171875 3.8125 0.171875 Z M 3.8125 0.171875 "/></g></g></g></svg>