<svg width="320" height="25" viewBox="0 0 320 25" fill="none" xmlns="http://www.w3.org/2000/svg">
<path d="M298.527 13.1208C298.092 13.1416 297.653 13.1558 297.227 13.187C296.95 13.2065 296.831 13.1494 296.647 13.1195C296.585 13.1091 296.519 13.0883 296.462 13.0909C296.032 13.1117 295.601 13.1351 295.17 13.1584C295.039 13.2091 294.955 13.2766 294.753 13.3013C294.555 13.3247 294.323 13.3247 294.103 13.3363C293.813 13.3506 293.523 13.3649 293.233 13.3779C293.088 13.3844 292.969 13.4091 292.921 13.4558C292.912 13.4636 293.009 13.4831 293.062 13.4948C293.237 13.5337 293.409 13.5779 293.602 13.6077C293.786 13.6363 294.015 13.5896 294.213 13.6259C294.656 13.7077 294.661 13.7064 294.999 13.6909C295.289 13.6766 295.579 13.661 295.869 13.6506C295.926 13.648 295.992 13.6675 296.054 13.6779C296.238 13.7064 296.357 13.7714 296.629 13.7467C296.836 13.7272 297.064 13.7233 297.279 13.7129C297.46 13.7506 297.626 13.7934 297.82 13.8233C298 13.8519 298.053 13.874 297.956 13.9116C297.868 13.9467 297.745 13.961 297.583 13.9636C297.438 13.9649 297.293 13.9765 297.148 13.983C297.073 13.9869 297.003 13.9895 296.932 13.9934C296.656 14.0077 296.655 14.0077 296.15 13.9246C295.953 13.8921 295.728 13.9376 295.54 13.9064C295.412 13.8856 295.302 13.8545 295.179 13.8324C295.127 13.8233 295.043 13.822 294.977 13.8246C294.758 13.8337 294.538 13.8402 294.327 13.8571C294.178 13.8688 294.09 13.9051 294.107 13.9415C294.112 13.9558 294.217 13.9765 294.279 13.9778C294.419 13.9804 294.569 13.9623 294.705 13.9713C294.837 13.9804 294.973 14.0064 295.069 14.035C295.267 14.0947 295.491 14.0415 295.68 14.0571C295.878 14.0739 296.04 14.1259 296.229 14.157C296.278 14.1648 296.37 14.1518 296.445 14.1479C296.66 14.1389 296.875 14.1311 297.091 14.122C297.271 14.1596 297.464 14.1934 297.627 14.2363C297.921 14.3142 298.237 14.344 298.619 14.3064C298.835 14.2856 299.046 14.2934 299.217 14.344C299.393 14.396 299.595 14.3908 299.819 14.3804C300.025 14.37 300.236 14.3414 300.447 14.3778C300.904 14.4583 300.909 14.4622 301.449 14.431C301.611 14.422 301.734 14.4194 301.857 14.4492C301.972 14.4765 302.095 14.4999 302.213 14.5258C302.429 14.5167 302.648 14.5077 302.864 14.4973C303.14 14.483 303.294 14.5012 303.36 14.5739C303.4 14.618 303.417 14.6583 303.514 14.6882C303.628 14.7245 303.751 14.7232 303.918 14.7128C304.076 14.7037 304.19 14.6895 304.256 14.6427C304.283 14.6232 304.335 14.605 304.384 14.5895C304.423 14.5778 304.485 14.5596 304.52 14.5622C304.586 14.5674 304.674 14.5817 304.696 14.5985C304.911 14.7557 304.911 14.757 305.131 14.8024C305.372 14.8531 305.623 14.8985 305.842 14.9557C306.04 15.0063 306.238 14.9842 306.453 14.9842C306.616 14.9842 306.721 15.018 306.708 15.0518C306.699 15.0712 306.638 15.0998 306.585 15.1024C306.154 15.1284 305.719 15.1504 305.284 15.1686C305.232 15.1712 305.166 15.1478 305.104 15.1362C304.981 15.1128 304.871 15.0764 304.74 15.0686C304.608 15.0608 304.454 15.0803 304.309 15.0868C304.164 15.0933 304.01 15.1102 303.879 15.0998C303.747 15.0894 303.641 15.0518 303.518 15.0271C303.461 15.0154 303.382 14.9985 303.334 15.0024C303.013 15.0336 302.776 14.9907 302.547 14.9336C302.499 14.9219 302.416 14.9141 302.354 14.9167C301.844 14.9388 301.339 14.9647 300.829 14.9894C300.623 14.9998 300.456 14.9544 300.412 14.8777C300.39 14.8349 300.346 14.792 300.346 14.7492C300.346 14.6713 300.104 14.6284 299.929 14.6375C299.639 14.6505 299.344 14.6609 299.059 14.6804C298.826 14.6959 298.628 14.6804 298.47 14.6336C298.286 14.5804 298.075 14.5908 297.864 14.605C297.706 14.6154 297.662 14.6583 297.67 14.7661C297.679 14.8531 297.604 14.8803 297.319 14.8946C296.959 14.9128 296.594 14.931 296.229 14.9453C296.172 14.9479 296.106 14.9258 296.049 14.9141C295.926 14.8907 295.816 14.8531 295.684 14.8453C295.553 14.8362 295.399 14.8557 295.254 14.8635C295.109 14.87 294.955 14.8881 294.823 14.879C294.692 14.87 294.582 14.831 294.463 14.8063C294.406 14.7946 294.336 14.7778 294.279 14.7804C293.989 14.7907 293.699 14.8063 293.409 14.8206C293.084 14.8362 293.083 14.8362 292.622 14.7557C292.411 14.7193 292.2 14.7479 291.994 14.7583C291.774 14.7687 291.568 14.7739 291.396 14.7219C291.282 14.6882 291.155 14.6674 291.019 14.6739C290.654 14.6895 290.294 14.7089 289.929 14.7245C289.867 14.7271 289.784 14.7206 289.736 14.7089C289.503 14.6544 289.274 14.6115 288.949 14.6388C288.668 14.6622 288.365 14.6635 288.084 14.6856C287.93 14.6972 287.86 14.7388 287.89 14.7713C287.908 14.7881 288 14.8076 288.062 14.8076C288.202 14.8089 288.356 14.7894 288.488 14.7972C288.76 14.8128 288.896 14.9219 289.252 14.892C289.463 14.8738 289.683 14.8674 289.903 14.8622C289.96 14.8609 290.021 14.8855 290.083 14.8985C290.258 14.9336 290.412 14.979 290.667 14.9557C290.878 14.9375 291.102 14.9323 291.317 14.9219C291.66 14.905 291.66 14.9063 292.104 14.9855C292.315 15.0232 292.526 14.9933 292.732 14.9842C292.886 14.9777 293.031 14.9648 293.154 14.9829C293.343 15.0102 293.479 15.0725 293.712 15.0686C293.931 15.0647 294.147 15.0466 294.366 15.0401C294.503 15.0362 294.63 15.0569 294.74 15.092C294.854 15.1271 294.977 15.1426 295.126 15.1349C295.342 15.1245 295.561 15.1115 295.781 15.105C295.843 15.1037 295.913 15.1154 295.97 15.1258C296.093 15.1491 296.212 15.1764 296.33 15.2011C296.546 15.1933 296.765 15.1907 296.976 15.1751C297.139 15.1634 297.253 15.1686 297.385 15.1946C297.552 15.2297 297.688 15.292 297.96 15.2621C298.097 15.2478 298.255 15.2517 298.391 15.2387C298.558 15.2219 298.672 15.2284 298.791 15.2673C299.015 15.3413 299.296 15.3426 299.586 15.3141C299.902 15.2829 300.14 15.3193 300.377 15.3764C300.627 15.4361 300.627 15.4348 300.821 15.579C300.878 15.6205 301.04 15.64 301.176 15.6322C301.405 15.6192 301.603 15.6257 301.77 15.6751C301.945 15.7283 302.156 15.7218 302.371 15.7075C302.657 15.6881 302.943 15.6712 303.176 15.7465C303.29 15.7829 303.413 15.7919 303.567 15.7828C304.002 15.7595 304.441 15.7452 304.867 15.7166C305.126 15.6984 305.276 15.74 305.451 15.7751C305.689 15.8231 305.948 15.866 305.948 15.9685C305.948 15.9854 306.009 16.0049 306.062 16.0179C306.176 16.0452 306.299 16.0685 306.418 16.0945C306.594 16.1335 306.765 16.1659 307.007 16.1451C307.218 16.1283 307.442 16.1231 307.657 16.1114C307.872 16.0997 308.07 16.0932 308.263 16.1425C308.487 16.1984 308.725 16.2516 308.979 16.2932C309.16 16.3231 309.397 16.2724 309.59 16.3127C309.709 16.3373 309.823 16.3659 309.95 16.3867C310.003 16.3958 310.087 16.3893 310.157 16.3867C310.302 16.3815 310.451 16.3776 310.592 16.3646C310.755 16.3503 310.878 16.3529 311.001 16.3828C311.115 16.4101 311.229 16.4477 311.361 16.4555C311.559 16.4672 311.778 16.4153 311.976 16.475C312.077 16.5049 312.204 16.5334 312.336 16.5425C312.468 16.5516 312.622 16.5321 312.762 16.5334C312.824 16.5334 312.899 16.5542 312.934 16.5711C312.956 16.5802 312.925 16.6048 312.894 16.6178C312.855 16.6334 312.797 16.6542 312.74 16.6568C312.305 16.6802 311.87 16.6996 311.436 16.7217C311.176 16.7347 311.176 16.7347 310.653 16.6529C310.53 16.6334 310.394 16.6373 310.24 16.6464C310.034 16.6581 309.823 16.6802 309.608 16.6568C309.327 16.5685 308.98 16.5607 308.61 16.5944C308.457 16.6087 308.316 16.6087 308.202 16.5841C307.96 16.5347 307.705 16.4893 307.49 16.4308C307.323 16.3854 307.244 16.3815 307.174 16.4438C307.152 16.4633 307.13 16.4841 307.134 16.5023C307.161 16.5672 307.209 16.6308 307.235 16.6957C307.244 16.7139 307.209 16.7347 307.187 16.7542C307.117 16.8087 307.024 16.8048 306.871 16.7594C306.717 16.7139 306.532 16.6841 306.286 16.7048C306.075 16.723 305.847 16.7204 305.636 16.7399C305.311 16.7685 305.082 16.7269 304.85 16.6711C304.801 16.6594 304.718 16.6529 304.656 16.6555C304.002 16.6854 303.351 16.7191 302.697 16.749C302.556 16.7555 302.429 16.736 302.319 16.7009C302.205 16.6659 302.077 16.6477 301.937 16.6542C301.357 16.6815 300.777 16.7061 300.197 16.7399C299.959 16.7542 299.771 16.7373 299.608 16.6918C299.485 16.6581 299.371 16.6477 299.217 16.6516C299.05 16.6555 298.931 16.6685 298.848 16.7061C298.769 16.7425 298.826 16.7646 299.002 16.7931C299.191 16.8243 299.366 16.8646 299.546 16.9009C299.691 16.8957 299.836 16.8853 299.977 16.8866C300.039 16.8866 300.096 16.91 300.157 16.923C300.333 16.9606 300.495 16.9983 300.746 16.9775C300.957 16.9594 301.181 16.9555 301.396 16.9438C301.695 16.9295 301.695 16.9295 302.178 17.0113C302.301 17.0321 302.433 17.0308 302.591 17.0191C302.727 17.01 302.868 17.0282 302.965 17.0671C303.004 17.0827 302.991 17.1087 302.908 17.1944C302.908 17.258 303 17.2295 303.031 17.1879C303.079 17.1282 302.987 17.1087 302.811 17.1412C302.688 17.1645 302.626 17.1983 302.657 17.2256C302.675 17.2398 302.758 17.258 302.908 17.1944C303.294 17.1165 303.589 17.1074 303.87 17.0866C304.037 17.0749 304.142 17.0801 304.274 17.1139C304.432 17.1541 304.59 17.197 304.85 17.1762C305.131 17.1528 305.429 17.1502 305.715 17.1308C305.979 17.1126 306.115 17.1697 306.282 17.2035C306.484 17.2437 306.708 17.1983 306.893 17.2217C307.086 17.245 307.222 17.3022 307.446 17.3126C307.771 17.2775 307.978 17.3424 308.224 17.3853C308.417 17.4177 308.646 17.3892 308.852 17.3749C309.085 17.3593 309.278 17.3736 309.441 17.4203C309.625 17.4736 309.832 17.4619 310.043 17.4502C310.535 17.4242 310.552 17.4203 310.838 17.4918C311.044 17.5437 311.242 17.5203 311.449 17.5138C311.629 17.5489 311.805 17.5866 311.993 17.6177C312.042 17.6255 312.134 17.6125 312.209 17.6086C312.424 17.5982 312.644 17.5879 312.859 17.5775C313.004 17.571 313.158 17.5515 313.29 17.5593C313.421 17.5684 313.531 17.606 313.65 17.6307C313.769 17.6554 313.892 17.6801 314.006 17.706C314.182 17.745 314.348 17.7775 314.594 17.758C314.805 17.7411 315.025 17.7359 315.245 17.7242C315.521 17.7099 315.513 17.7138 316.027 17.7917C316.304 17.8346 316.589 17.7826 316.87 17.7775C317.011 17.7749 317.147 17.7891 317.244 17.8268C317.283 17.8424 317.27 17.8684 317.283 17.8904C316.558 17.9255 315.829 17.9554 315.113 17.9982C314.836 18.0151 314.691 17.9683 314.542 17.9294C314.296 17.867 313.971 17.9579 313.738 17.8774C313.597 17.8294 313.395 17.8021 313.153 17.8255C313.013 17.8385 312.863 17.8372 312.718 17.8489C312.349 17.8774 312.011 17.8787 311.717 17.7891C311.616 17.758 311.471 17.7411 311.365 17.7112C311.242 17.6788 311.124 17.6606 310.979 17.6671C310.324 17.6982 309.674 17.7294 309.023 17.7632C308.966 17.7658 308.909 17.7852 308.861 17.7995C308.738 17.8359 308.777 17.8645 308.975 17.8878C309.041 17.8956 309.094 17.9125 309.155 17.9255C309.274 17.9502 309.384 17.9891 309.515 17.9982C309.647 18.0073 309.801 17.9891 309.946 17.9826C310.091 17.9761 310.245 17.9566 310.377 17.9644C310.508 17.9735 310.618 18.0112 310.741 18.0346C310.798 18.0463 310.869 18.0657 310.926 18.0644C311.216 18.0566 311.501 18.0424 311.791 18.0307C311.972 18.0657 312.125 18.1164 312.341 18.1281C312.477 18.1359 312.622 18.1216 312.762 18.1242C312.824 18.1255 312.903 18.1449 312.934 18.1618C312.951 18.1722 312.894 18.1982 312.85 18.2112C312.683 18.2605 312.455 18.2514 312.248 18.267C312.024 18.2839 311.822 18.2787 311.651 18.2281C311.537 18.1943 311.409 18.1761 311.268 18.1826C310.904 18.1995 310.544 18.219 310.179 18.2333C310.117 18.2359 310.043 18.2242 309.986 18.2151C309.524 18.1359 309.524 18.1333 309.199 18.1501C308.72 18.1748 308.72 18.1748 308.4 18.106C308.338 18.093 308.272 18.0683 308.219 18.0696C307.71 18.0904 307.204 18.1112 306.699 18.141C306.532 18.1501 306.418 18.1501 306.295 18.1164C306.19 18.0878 306.067 18.0553 305.935 18.0476C305.799 18.0398 305.649 18.0592 305.504 18.0657C305.359 18.0722 305.205 18.0891 305.078 18.0787C304.946 18.0683 304.832 18.032 304.718 18.006C304.599 17.9787 304.472 17.98 304.309 17.9904C303.808 18.0203 303.804 18.0164 303.307 17.9359C303.25 17.9268 303.176 17.9164 303.114 17.919C302.749 17.9346 302.389 17.9541 302.025 17.9696C301.884 17.9761 301.748 17.9593 301.651 17.9216C301.611 17.906 301.625 17.88 301.598 17.8294C301.568 17.8177 301.603 17.8385 301.611 17.858C301.677 17.8554 301.757 17.858 301.805 17.8476C301.928 17.8229 301.989 17.7904 301.959 17.7632C301.941 17.7489 301.858 17.7307 301.805 17.7307C301.708 17.7307 301.625 17.7593 301.598 17.8294C301.322 17.8722 301.027 17.8813 300.741 17.9021C300.575 17.9151 300.469 17.9086 300.337 17.8748C300.179 17.8333 300.017 17.793 299.757 17.8138C299.476 17.8372 299.177 17.8411 298.887 17.8593C298.553 17.88 298.409 17.7632 298.127 17.7658C297.837 17.7684 297.547 17.7904 297.257 17.806C297.003 17.819 297.003 17.819 296.475 17.7346C296.282 17.7034 296.054 17.7489 295.865 17.7164C295.737 17.6956 295.627 17.6645 295.504 17.6424C295.452 17.6333 295.368 17.6333 295.302 17.6359C294.938 17.6515 294.569 17.6619 294.217 17.6904C293.817 17.7242 293.514 17.6879 293.229 17.6112C292.868 17.6255 292.504 17.6333 292.148 17.658C291.889 17.6762 291.739 17.6333 291.563 17.5983C291.502 17.5866 291.449 17.5671 291.383 17.5619C291.317 17.5567 291.238 17.5671 291.168 17.571C290.878 17.5853 290.579 17.5918 290.298 17.6151C289.951 17.645 289.819 17.5385 289.551 17.5255C289.371 17.5892 289.274 17.6762 288.918 17.6826C288.628 17.6878 288.338 17.7086 288.048 17.7229C287.904 17.7294 287.759 17.7372 287.614 17.7437C287.381 17.7554 287.271 17.806 287.319 17.8839C287.346 17.9268 287.367 17.9696 287.389 18.0125C287.433 18.0891 287.324 18.154 287.139 18.1631C286.629 18.1878 286.124 18.2138 285.614 18.2358C285.478 18.2423 285.346 18.2203 285.237 18.1852C285.122 18.1501 284.995 18.1346 284.854 18.141C284.345 18.1657 283.839 18.1917 283.33 18.2138C283.273 18.2164 283.198 18.2034 283.141 18.193C283.018 18.1696 282.899 18.1424 282.781 18.1177C282.491 18.1294 282.205 18.1371 281.919 18.1527C281.458 18.1761 281.458 18.1774 281.12 18.106C281.058 18.093 280.997 18.0683 280.94 18.0696C280.72 18.0748 280.505 18.0878 280.285 18.0995C279.639 18.1333 279.639 18.1333 279.45 18.0943C279.279 18.0579 279.125 18.0138 278.866 18.0346C278.585 18.0579 278.286 18.0657 277.996 18.0787C277.781 18.0878 277.565 18.0982 277.35 18.1008C277.293 18.1021 277.232 18.0774 277.17 18.0644C276.994 18.0242 276.823 17.9917 276.581 18.0138C276.441 18.0268 276.291 18.0294 276.146 18.0359C275.768 18.0541 275.768 18.054 275.149 17.9761C275.087 17.9683 275.013 17.9592 274.951 17.9631C274.442 17.9865 273.936 18.0125 273.427 18.0346C273.365 18.0372 273.29 18.0294 273.229 18.0229C272.535 17.9476 272.535 17.9476 271.797 17.9839C271.515 17.9969 271.507 18.0021 271.212 17.9333C271.08 17.9034 270.971 17.8891 270.817 17.8982C270.237 17.9294 269.653 17.9502 269.077 17.9865C268.818 18.0021 268.668 17.9631 268.493 17.9281C268.431 17.9164 268.365 17.8904 268.313 17.8917C267.733 17.9164 267.153 17.9463 266.573 17.9709C266.52 17.9735 266.454 17.9476 266.393 17.9359C266.274 17.9125 266.16 17.8774 266.028 17.8696C265.892 17.8619 265.742 17.8813 265.593 17.8878C265.228 17.9047 265.228 17.9034 264.806 17.8268C264.749 17.8164 264.675 17.8021 264.618 17.8047C264.038 17.8307 263.453 17.8528 262.878 17.8904C262.548 17.9112 262.324 17.8735 262.091 17.819C262.043 17.8073 261.959 17.8021 261.898 17.8047C261.243 17.8346 260.593 17.8683 259.938 17.8982C259.802 17.9047 259.67 17.8826 259.561 17.8489C259.385 17.7956 259.178 17.8021 258.959 17.8138C258.453 17.8411 258.449 17.8398 258.15 17.7775C258.089 17.7645 258.036 17.7476 257.97 17.7411C257.909 17.7346 257.829 17.7385 257.764 17.7411C257.474 17.7541 257.184 17.7684 256.894 17.7826C256.604 17.7969 256.309 17.8047 256.024 17.8268C255.672 17.8541 255.505 17.7697 255.259 17.7307C254.899 17.7476 254.53 17.758 254.174 17.7852C253.902 17.806 253.774 17.7489 253.594 17.719C253.533 17.7086 253.467 17.6865 253.41 17.6891C252.755 17.7177 252.1 17.7489 251.45 17.7839C251.292 17.7917 251.186 17.7813 251.055 17.7502C250.76 17.6801 250.747 17.6827 250.255 17.7086C250.04 17.7203 249.833 17.7307 249.649 17.6775C249.486 17.6294 249.288 17.6177 249.056 17.6333C248.77 17.6528 248.476 17.6632 248.186 17.6762C247.896 17.6904 247.606 17.7099 247.316 17.7164C247.083 17.7229 246.942 17.6619 246.758 17.6307C246.701 17.6216 246.621 17.6203 246.556 17.6229C246.266 17.6346 245.967 17.6437 245.686 17.6658C245.343 17.693 245.154 17.6216 244.912 17.5801C244.86 17.571 244.772 17.5762 244.706 17.5801C244.196 17.6034 243.691 17.6294 243.181 17.6541C243.001 17.619 242.817 17.5853 242.636 17.5502C242.346 17.5632 242.057 17.5775 241.767 17.5905C241.547 17.6008 241.323 17.6047 241.116 17.6242C240.848 17.6502 240.716 17.5892 240.536 17.5593C240.475 17.5489 240.409 17.5268 240.352 17.5294C239.987 17.5437 239.622 17.5593 239.262 17.5814C238.92 17.6034 238.783 17.4866 238.502 17.4879C238.212 17.4892 237.913 17.5061 237.632 17.5294C237.307 17.5567 237.079 17.5151 236.846 17.4593C236.797 17.4476 236.714 17.4411 236.652 17.4437C236.288 17.4593 235.928 17.4788 235.563 17.4944C235.501 17.497 235.427 17.4905 235.365 17.4827C234.671 17.4061 234.671 17.4048 234.368 17.4203C234.153 17.4307 233.933 17.4437 233.713 17.4502C233.652 17.4528 233.577 17.4411 233.52 17.4307C233.063 17.3515 233.063 17.3502 232.733 17.3658C232.443 17.3801 232.153 17.3944 231.863 17.4087C231.683 17.3736 231.499 17.3398 231.319 17.3048C230.958 17.3217 230.589 17.3346 230.233 17.358C230.066 17.3684 229.957 17.3645 229.829 17.332C229.671 17.2931 229.513 17.2476 229.249 17.2697C228.968 17.2931 228.669 17.2957 228.384 17.3152C228.041 17.3385 227.9 17.2204 227.624 17.2217C227.334 17.223 227.035 17.2398 226.754 17.2632C226.429 17.2905 226.2 17.2489 225.967 17.1931C225.919 17.1814 225.835 17.1749 225.774 17.1775C224.974 17.2152 224.179 17.2528 223.379 17.2931C222.887 17.3177 222.887 17.3191 221.952 17.2476C221.886 17.2424 221.815 17.2372 221.749 17.2398C221.459 17.2515 221.161 17.2606 220.879 17.2827C220.537 17.31 220.348 17.2398 220.106 17.197C220.053 17.1879 219.97 17.1931 219.9 17.1957C219.68 17.2048 219.465 17.2165 219.245 17.2269C218.955 17.2411 218.665 17.2554 218.375 17.2697C218.195 17.2359 218.01 17.2009 217.83 17.1671C217.47 17.184 217.101 17.1931 216.745 17.2204C216.473 17.2411 216.345 17.1866 216.165 17.1554C216.104 17.145 216.038 17.123 215.981 17.1243C215.326 17.1528 214.671 17.1827 214.021 17.2191C213.753 17.2346 213.63 17.1762 213.45 17.1463C213.388 17.1372 213.318 17.1204 213.261 17.123C212.826 17.1412 212.391 17.1632 211.956 17.1853C211.71 17.1983 211.71 17.1983 211.174 17.1178C211.113 17.1087 211.042 17.0996 210.981 17.1022C209.601 17.1671 208.226 17.2359 206.846 17.3009C206.706 17.3074 206.578 17.2879 206.469 17.2528C206.354 17.2178 206.227 17.1996 206.086 17.2061C205.506 17.2334 204.922 17.258 204.346 17.2918C204.109 17.3061 203.92 17.2892 203.758 17.2437C203.635 17.21 203.52 17.197 203.367 17.2048C203.077 17.2204 202.787 17.2333 202.497 17.2476C202.207 17.2619 201.917 17.2762 201.627 17.2905C201.337 17.3048 201.043 17.3126 200.757 17.3346C200.405 17.3619 200.234 17.2814 199.992 17.2411C199.557 17.2606 199.122 17.2801 198.692 17.3009C198.112 17.3281 197.532 17.358 196.952 17.384C196.899 17.3866 196.833 17.3632 196.772 17.3515C196.592 17.3191 196.46 17.2736 196.192 17.2879C194.891 17.3567 193.582 17.4152 192.277 17.4827C192.005 17.497 191.886 17.4411 191.702 17.4113C191.64 17.4022 191.57 17.384 191.513 17.3866C190.788 17.4191 190.063 17.4554 189.338 17.4905C189.044 17.5047 189.044 17.5047 188.552 17.4242C188.494 17.4151 188.42 17.4035 188.358 17.4061C187.414 17.4502 186.473 17.497 185.529 17.5424C185.388 17.5489 185.261 17.5307 185.147 17.4957C185.037 17.4606 184.905 17.4411 184.769 17.4476C183.899 17.4892 183.024 17.5294 182.159 17.5749C181.926 17.5879 181.733 17.5762 181.566 17.5294C181.447 17.4957 181.329 17.4814 181.179 17.4892C179.874 17.5528 178.569 17.6138 177.264 17.6814C177.014 17.6943 176.838 17.6697 176.68 17.6268C176.553 17.5931 176.443 17.5866 176.285 17.5918C176.118 17.5982 176.017 17.6125 175.924 17.6515C175.806 17.7021 175.731 17.7658 175.45 17.7697C175.16 17.7736 174.866 17.7891 174.58 17.8112C174.308 17.8333 174.18 17.7749 174.009 17.7398C173.881 17.7151 173.763 17.7112 173.6 17.7229C173.451 17.7333 173.359 17.7554 173.271 17.7969C173.077 17.8852 173.06 17.8852 172.823 17.8294C172.695 17.7995 172.581 17.7761 172.44 17.7813C171.86 17.8073 171.28 17.8359 170.7 17.8657C170.367 17.8826 170.362 17.8852 170.112 17.8203C169.989 17.7878 169.87 17.7722 169.725 17.78C168.13 17.858 166.535 17.9333 164.94 18.0151C164.694 18.0281 164.527 18.0008 164.352 17.9618C164.295 17.9489 164.238 17.9307 164.172 17.9255C164.106 17.9203 164.031 17.9255 163.961 17.9281C162.801 17.9839 161.636 18.0372 160.481 18.0995C160.217 18.1138 160.077 18.0722 159.897 18.0385C159.835 18.0268 159.782 18.0086 159.716 18.0034C159.651 17.9995 159.571 18.0086 159.501 18.0125C158.341 18.0683 157.177 18.1216 156.022 18.1839C155.745 18.1982 155.626 18.1436 155.446 18.1151C155.384 18.1047 155.319 18.0852 155.261 18.0878C154.897 18.1021 154.536 18.1216 154.172 18.1384C153.302 18.1813 152.432 18.2216 151.562 18.2657C151.228 18.2826 151.083 18.167 150.802 18.1722C150.437 18.1787 150.077 18.2047 149.712 18.2229C149.422 18.2371 149.132 18.2501 148.842 18.2657C148.557 18.28 148.557 18.28 147.845 18.2047C147.784 18.1982 147.709 18.1891 147.647 18.1917C146.632 18.2397 145.613 18.2878 144.603 18.3397C144.37 18.3514 144.176 18.3449 144.009 18.2969C143.891 18.2631 143.768 18.2462 143.623 18.254C142.098 18.328 140.578 18.4021 139.053 18.4748C138.996 18.4774 138.922 18.4644 138.865 18.454C138.742 18.4306 138.623 18.4034 138.504 18.3787C138.416 18.4086 138.302 18.4358 138.245 18.4696C138.166 18.515 138.061 18.528 137.894 18.5358C137.727 18.5436 137.621 18.541 137.489 18.5072C137.331 18.4657 137.169 18.4332 136.909 18.4462C135.315 18.528 133.72 18.602 132.125 18.6826C131.861 18.6955 131.738 18.6384 131.554 18.6085C131.492 18.5994 131.422 18.5852 131.365 18.5878C130.71 18.6176 130.06 18.6501 129.405 18.6813C127.591 18.7696 125.776 18.854 123.966 18.9475C123.636 18.9643 123.412 18.9319 123.18 18.876C123.131 18.8644 123.048 18.8579 122.986 18.8605C120.447 18.9825 117.907 19.1059 115.372 19.2292C115.236 19.2357 115.104 19.215 114.994 19.1812C114.88 19.1461 114.753 19.1293 114.612 19.1358C113.452 19.1916 112.292 19.2474 111.132 19.3046C110.842 19.3189 110.838 19.3201 110.539 19.2578C110.478 19.2448 110.412 19.2202 110.363 19.2228C110.262 19.2293 110.166 19.2617 110.095 19.3059C110.025 19.3526 109.915 19.3656 109.753 19.3747C109.586 19.3838 109.476 19.3799 109.349 19.3487C109.186 19.3098 109.037 19.2721 108.773 19.2851C105.438 19.4513 102.104 19.611 98.7688 19.7759C98.5008 19.7889 98.3777 19.7344 98.1932 19.7045C98.1317 19.6954 98.0702 19.6824 98.0043 19.6798C97.934 19.6772 97.8593 19.685 97.789 19.6889C92.3498 19.9526 86.9106 20.2175 81.4713 20.4811C81.1462 20.4967 81.1506 20.4967 80.7947 20.6161C80.7508 20.6304 80.6936 20.6499 80.6321 20.6525C78.9669 20.7356 77.2974 20.8161 75.6279 20.8966C74.9029 20.9317 74.178 20.968 73.453 21.0018C73.1938 21.0135 73.1938 21.0135 72.5743 21.1537C72.5216 21.1654 72.46 21.181 72.3985 21.1836C69.4988 21.3251 66.599 21.4667 63.6948 21.6056C63.4664 21.616 63.2819 21.6394 63.1764 21.7017C63.1017 21.7459 63.0051 21.7718 62.8601 21.7796C60.8303 21.8783 58.8005 21.9783 56.7663 22.0744C56.5246 22.0861 56.3796 22.1225 56.2609 22.177C56.2214 22.1952 56.1862 22.2159 56.1291 22.2289C56.0764 22.2406 55.9973 22.2445 55.9314 22.2484C54.1916 22.3328 52.4517 22.4198 50.7075 22.5003C50.4483 22.512 50.3428 22.5601 50.2154 22.6107C50.1714 22.6276 50.1406 22.651 50.0835 22.6627C50.0264 22.6731 49.9429 22.6731 49.8727 22.6756C48.4228 22.7458 46.9729 22.8172 45.5231 22.8873C45.2419 22.8808 45.1803 22.9561 45.0441 23.0016C44.9958 23.0172 44.9607 23.0379 44.9036 23.0483C44.8421 23.0587 44.7629 23.0574 44.6882 23.06C43.5283 23.1159 42.3684 23.1756 41.2041 23.2275C40.9361 23.2392 40.8834 23.3054 40.7384 23.3509C40.6901 23.3652 40.6418 23.3873 40.5847 23.3912C39.8597 23.4288 39.1348 23.4639 38.4099 23.4976C38.1682 23.5093 38.1682 23.508 37.742 23.6366C37.6937 23.6509 37.6365 23.6665 37.575 23.6704C36.4898 23.7249 35.4002 23.7768 34.3106 23.8301C34.17 23.8366 34.0734 23.8677 34.0031 23.9119C33.9328 23.956 33.8318 23.9846 33.6912 23.9911C32.8213 24.034 31.9512 24.0781 31.0813 24.1171C30.8397 24.1274 30.6815 24.1599 30.5761 24.2183C30.497 24.2625 30.4004 24.2846 30.2466 24.2924C29.3766 24.3339 28.5067 24.3794 27.6324 24.4157C27.3776 24.4261 27.2457 24.4703 27.1403 24.5248C27.0568 24.569 26.9601 24.5845 26.7976 24.5923C25.2027 24.6677 23.6035 24.743 22.013 24.8261C21.745 24.8404 21.6088 24.7949 21.433 24.7624C21.1826 24.717 20.9498 24.6676 20.9498 24.5664C20.9498 24.5508 20.8751 24.5326 20.8224 24.5196C20.4313 24.4222 20.4313 24.4222 20.3698 24.3183C20.3347 24.2547 20.2951 24.1898 20.2644 24.1249C20.2073 24.0184 20.0666 23.9911 19.6624 24.0106C19.5174 24.0171 19.3724 24.0262 19.2275 24.0313C19.0122 24.0404 18.8496 23.9976 18.8101 23.9197C18.7881 23.8768 18.7618 23.834 18.7398 23.7911C18.9595 23.7807 18.9551 23.7794 19.3417 23.6223C19.5042 23.5561 19.5043 23.5561 19.1924 23.4899C19.0737 23.4652 18.9595 23.4379 18.8321 23.4145C18.775 23.4041 18.7003 23.3976 18.6388 23.4002C18.2741 23.4158 17.9139 23.434 17.5536 23.4522C16.9736 23.4808 16.9736 23.4808 16.3848 23.3483C16.3365 23.3379 16.2618 23.3184 16.2706 23.3081C16.3189 23.26 16.4375 23.2392 16.5869 23.234C16.8066 23.2262 17.0219 23.2132 17.2371 23.2029C17.3821 23.1964 17.5271 23.1886 17.6721 23.1821C17.8083 23.1327 17.949 23.0847 18.0764 23.0341C18.2785 22.9561 18.2784 22.9535 18.0016 22.899C17.8259 22.8626 17.637 22.8302 17.4568 22.7964C17.2415 22.8068 17.0219 22.8185 16.8066 22.8276C16.5342 22.8393 16.4243 22.8146 16.354 22.7302C16.2925 22.6562 16.3672 22.5925 16.5781 22.577C16.7934 22.5614 16.9956 22.551 17.1054 22.4848C17.2109 22.4211 17.3954 22.3965 17.6238 22.3913C17.7688 22.3874 17.9138 22.3783 18.0588 22.3705C18.2477 22.3601 18.3488 22.2939 18.3093 22.2199C18.2873 22.1718 18.2433 22.1315 18.072 22.1212C17.3119 22.0757 17.3031 22.077 16.9252 21.9887C16.8901 21.9809 16.8638 21.9575 16.877 21.9459C16.8989 21.9264 16.9473 21.8978 17 21.8939C17.5052 21.8653 18.0105 21.8394 18.5157 21.8199C18.6827 21.8134 18.8057 21.8043 18.8629 21.7563C18.9419 21.69 18.9068 21.629 18.753 21.5835C18.7047 21.5693 18.6255 21.5511 18.5728 21.5524C17.9929 21.5758 17.4173 21.6056 16.8374 21.629C16.7846 21.6316 16.688 21.6095 16.6661 21.5926C16.6221 21.5615 16.688 21.5199 16.8418 21.5056C17.0439 21.4862 17.2504 21.4849 17.3866 21.4199C17.5755 21.3277 17.8083 21.2433 18.0192 21.155C18.0544 21.1395 18.1116 21.1096 18.0984 21.107C17.9885 21.0784 17.8611 21.0563 17.7469 21.0291C17.5536 20.9836 17.5535 20.92 17.5975 20.859C17.6326 20.8096 17.7644 20.7901 17.927 20.7901C17.9973 20.7901 18.0851 20.7901 18.1423 20.7784C18.2916 20.7499 18.34 20.7135 18.2653 20.6862C18.2213 20.6707 18.1423 20.6486 18.0896 20.6512C17.1494 20.694 16.2047 20.7356 15.2688 20.7888C14.992 20.8044 14.8647 20.7551 14.6978 20.72C14.5703 20.6927 14.4516 20.6823 14.2935 20.7018C14.1441 20.72 13.9992 20.7096 13.9069 20.6668C13.8322 20.6317 13.964 20.6018 14.3199 20.5681C14.3858 20.5616 14.4604 20.5577 14.5088 20.5447C15.0184 20.4044 15.0184 20.4032 15.3699 20.385C15.7126 20.3681 15.7127 20.3668 15.8928 20.2915C15.9763 20.2564 16.0685 20.2213 16.1475 20.185C16.1783 20.1707 16.2311 20.1447 16.2135 20.1369C16.1169 20.0967 15.985 20.0876 15.8312 20.0967C15.4885 20.1188 15.0844 20.1006 14.9042 20.224C14.8339 20.2707 14.7241 20.2837 14.5659 20.2915C12.9755 20.3668 11.3849 20.4473 9.79006 20.52C9.53084 20.5317 9.41228 20.5798 9.31122 20.633C9.22335 20.6772 9.12667 20.6901 8.95972 20.6979C8.79276 20.7057 8.66089 20.7096 8.56423 20.6668C8.50711 20.6408 8.55546 20.6044 8.68726 20.5681C8.87619 20.5161 8.84102 20.4512 8.77951 20.3902C8.73558 20.3499 8.59938 20.3213 8.45439 20.3239C8.23911 20.3291 8.03266 20.3434 7.85253 20.2915C7.74708 20.2616 7.61525 20.2408 7.49662 20.2149C7.26816 20.1616 7.03968 20.1071 6.71895 20.1421C6.49927 20.1292 6.3455 20.0824 6.16975 20.046C5.87538 19.9863 5.84902 19.9772 6.05991 19.9136C6.29717 19.8422 6.1126 19.7487 6.24441 19.6785C6.385 19.6032 6.57839 19.537 6.74973 19.4669C6.79367 19.4487 6.83323 19.4318 6.87717 19.4136C6.77611 19.3877 6.68387 19.3552 6.56524 19.337C6.41146 19.3137 6.33238 19.2851 6.34116 19.2046C6.31041 19.1929 6.3235 19.2228 6.35865 19.2305C6.39819 19.2383 6.49492 19.2319 6.54325 19.2228C6.66627 19.1981 6.72772 19.1656 6.69696 19.1384C6.67939 19.1241 6.59597 19.1059 6.54325 19.1059C6.44659 19.1059 6.36313 19.1345 6.33676 19.2046C5.84468 19.2578 5.33495 19.2838 4.82529 19.3046C4.77257 19.3072 4.7067 19.2812 4.64519 19.2682C4.44309 19.2241 4.44306 19.2253 3.84993 19.2124C3.78842 19.2111 3.70499 19.1929 3.67423 19.1747C3.54682 19.0955 3.55125 19.0085 3.48974 18.9241C3.60397 18.8695 3.71811 18.8163 3.83674 18.7631C4.07399 18.6553 4.38161 18.5605 4.56614 18.4423C4.5266 18.3787 4.47387 18.3151 4.66718 18.2631C5.21638 18.1982 5.21202 18.1982 5.3614 18.1359C5.78758 17.9593 6.20934 17.7813 6.65309 17.6073C6.77172 17.5619 6.77173 17.5372 6.56084 17.5177C6.49494 17.5125 6.42455 17.5112 6.35425 17.5138C6.13457 17.5229 5.9149 17.5463 5.69961 17.5411C5.48432 17.5372 5.32616 17.4801 5.15041 17.445C4.97028 17.4087 4.79015 17.371 4.61001 17.3333C4.40351 17.3372 4.19705 17.3736 3.99056 17.3152C3.83239 17.2697 3.63469 17.2372 3.45455 17.1996C3.59075 17.1009 3.84562 17.0256 4.04333 16.9386C4.22347 16.8594 4.22776 16.8607 4.71106 16.7996C4.93952 16.7711 5.01861 16.6243 4.82529 16.5815C4.59243 16.5295 4.34644 16.4815 4.10919 16.4321C3.90269 16.436 3.69184 16.4711 3.49413 16.4127C3.34036 16.3685 3.16458 16.3386 2.90975 16.3555C2.47918 16.3841 2.03984 16.3984 1.60487 16.4217C1.45549 16.4295 1.29288 16.4243 1.22698 16.3802C1.18304 16.349 1.31047 16.3062 1.45545 16.2971C1.67513 16.2841 1.87282 16.2685 1.98266 16.2036C2.08811 16.1387 2.2814 16.1192 2.50987 16.1101C2.57138 16.1075 2.64173 16.0919 2.67248 16.0763C2.83065 16.001 3.00641 15.9361 3.34471 15.9387C3.48531 15.9127 3.55995 15.8802 3.51602 15.8491C3.48965 15.8322 3.39744 15.8101 3.34471 15.8127C2.98005 15.8257 2.61539 15.8387 2.25951 15.8621C2.09256 15.8725 1.96507 15.875 1.85963 15.8361C1.78494 15.8101 1.82448 15.7751 1.96507 15.7374C2.08809 15.7049 2.12328 15.6673 2.11449 15.6231C2.09252 15.5205 1.96069 15.4907 1.53891 15.4972C1.23575 15.5024 1.16105 15.4855 1.09515 15.3972C1.07758 15.3764 1.03372 15.3478 1.06447 15.3335C1.2534 15.2452 1.37642 15.1362 1.7323 15.0946C1.8729 15.079 2.02222 15.079 2.11009 15.0453C2.19796 15.0115 2.27709 14.9725 2.36935 14.9401C2.48358 14.9011 2.56259 14.8648 2.50987 14.8401C2.422 14.7959 2.28145 14.792 2.11889 14.8076C1.97829 14.8206 1.82892 14.8219 1.68393 14.8297C1.42471 14.844 1.21386 14.8102 1.18311 14.7531C1.09963 14.6025 1.01173 14.4531 0.937041 14.3025C0.928254 14.2843 0.950162 14.2609 0.98531 14.2453C1.10833 14.1908 1.24019 14.1389 1.3676 14.0856C1.51698 14.0246 1.75428 14.0363 1.95638 14.0246C2.24196 14.0077 2.24186 14.009 2.62411 13.8843C2.77349 13.835 3.03272 13.8545 3.1865 13.8103C3.23483 13.796 3.30952 13.7727 3.29634 13.7597C3.27876 13.7428 3.19094 13.7298 3.12503 13.722C3.06352 13.7142 2.98885 13.7103 2.92295 13.7142C2.12332 13.7519 1.3281 13.7921 0.528469 13.8285C0.392268 13.835 0.242882 13.8064 0.194552 13.7662C0.146223 13.7285 0.159361 13.6831 0.150574 13.6402C0.277987 13.587 0.42292 13.5376 0.532759 13.4805C0.616237 13.4363 0.712913 13.4169 0.879869 13.4143C1.09955 13.4104 1.31485 13.3948 1.56089 13.3831C2.01783 13.1935 2.46594 12.9948 2.95802 12.8052C3.15573 12.7286 3.10748 12.6507 3.14702 12.5689C3.18657 12.4936 3.48092 12.5053 3.67863 12.4832C3.8368 12.465 3.88945 12.4235 3.82794 12.3949C3.79279 12.378 3.71375 12.3585 3.65224 12.3585C3.50725 12.3585 3.36227 12.3702 3.21728 12.3767C3.07229 12.3832 2.90535 12.3793 2.78672 12.4014C2.67249 12.4222 2.59775 12.4663 2.52306 12.504C2.43958 12.5455 2.32982 12.5598 2.16287 12.5624C1.94758 12.565 1.73231 12.5767 1.51702 12.5858C1.27977 12.5351 1.03368 12.4858 0.805212 12.4325C0.761277 12.4222 0.752442 12.3923 0.756836 12.3728C0.765623 12.3222 0.699737 12.291 0.554748 12.2663C0.431728 12.2455 0.330667 12.2157 0.216434 12.1897C0.304306 12.1547 0.400999 12.1209 0.471296 12.0832C0.625071 12.004 0.81841 11.9469 1.15232 11.9495C1.28413 11.8988 1.38955 11.8365 1.56089 11.8014C1.72346 11.7677 2.00027 11.8014 2.12329 11.7248C2.1848 11.6872 2.27711 11.6443 2.39574 11.6287C2.58466 11.6041 2.8307 11.6171 2.94054 11.5443C3.00644 11.5028 3.10306 11.4651 3.23048 11.4547C3.37546 11.443 3.52481 11.4404 3.63025 11.4158C3.68737 11.4028 3.74889 11.382 3.74889 11.3638C3.74889 11.3521 3.66108 11.334 3.59957 11.3262C3.54246 11.3171 3.46768 11.3106 3.40178 11.3132C3.1821 11.321 2.96682 11.3353 2.74714 11.343C2.68563 11.3456 2.61535 11.3366 2.54945 11.3288C2.35613 11.308 2.36929 11.282 2.52306 11.2353C2.67684 11.1898 2.78674 11.1314 2.91415 11.0781C3.05475 11.069 3.23046 11.0729 3.32712 11.0483C3.48968 11.008 3.60389 10.9496 3.73569 10.8989C3.88068 10.8911 4.03006 10.8885 4.16626 10.8743C4.22337 10.8691 4.24976 10.8405 4.29808 10.8236C4.38596 10.7912 4.46071 10.7444 4.57933 10.7288C4.77265 10.7055 5.0099 10.7145 5.12413 10.6431C5.19004 10.6016 5.29105 10.5574 5.41407 10.5548C5.75677 10.5496 5.90176 10.4782 6.0775 10.4107C6.20931 10.36 6.49051 10.386 6.6355 10.3354C6.73216 10.3029 6.8025 10.2626 6.89916 10.2315C6.9387 10.2185 7.02215 10.212 7.08805 10.2081C7.44832 10.1886 7.81298 10.1743 8.17325 10.1536C8.23037 10.1497 8.28313 10.1302 8.32707 10.1146C8.41933 10.0808 8.47639 10.0341 8.59062 10.012C8.70485 9.98994 8.86739 9.98994 9.00799 9.98345C9.46052 9.96397 9.49571 9.96915 9.70221 9.85878C9.86916 9.76917 10.2778 9.83281 10.414 9.73412C10.4931 9.67698 10.638 9.63024 10.8972 9.62374C11.2619 9.61465 11.6222 9.58998 11.9868 9.5731C12.312 9.55751 12.3076 9.55751 12.6591 9.43674C12.8172 9.3822 13.0501 9.39 13.2566 9.37961C13.4763 9.36922 13.6784 9.35365 13.7839 9.28872C13.8893 9.22509 14.0826 9.2043 14.3067 9.19521C14.5132 9.18612 14.7461 9.19262 14.9086 9.14068C15.3041 9.01602 15.2997 9.01471 15.5765 9.00172C16.0114 8.98095 16.4464 8.96017 16.8813 8.9381C17.1713 8.92381 17.4745 8.92122 17.7469 8.89265C17.9446 8.87187 18.0324 8.79915 18.1598 8.74851C18.5201 8.72903 18.8804 8.70955 19.2406 8.69137C19.7459 8.66539 20.2555 8.64203 20.7652 8.61735C20.9849 8.56801 21.0157 8.45893 21.3848 8.45373C21.6044 8.45114 21.8197 8.43426 22.0394 8.42387C22.4041 8.40569 22.7643 8.38231 23.129 8.37322C23.4058 8.36673 23.4541 8.2966 23.599 8.25245C23.6474 8.23687 23.6913 8.2148 23.7485 8.2109C24.3196 8.17454 24.9083 8.16675 25.4663 8.11351C25.5234 8.10831 25.5762 8.08104 25.5893 8.06156C25.5981 8.05117 25.5234 8.03171 25.4751 8.02262C25.418 8.01223 25.3433 8.00184 25.2818 8.00443C23.4673 8.09144 21.6528 8.17974 19.8382 8.26675C19.5834 8.27973 19.5834 8.27843 18.9639 8.42127C18.9112 8.43296 18.8496 8.44594 18.7837 8.44983C18.4937 8.46542 18.1994 8.47452 17.9138 8.494C17.6809 8.50958 17.4877 8.49398 17.3207 8.44723C17.2021 8.41347 17.079 8.40309 16.9296 8.40569C16.7627 8.40958 16.6529 8.42387 16.5562 8.45893C16.4288 8.50698 16.3629 8.5693 16.0949 8.58229C14.8603 8.63813 13.6256 8.70046 12.3954 8.76019C12.2241 8.74201 12.1406 8.71475 12.1845 8.68228C12.2109 8.6628 12.2636 8.63683 12.3164 8.63424C12.8216 8.60697 13.3313 8.5836 13.8365 8.55762C13.9068 8.55373 14.0035 8.55631 14.043 8.54333C14.2363 8.48489 14.3067 8.3901 14.6714 8.38361C14.8823 8.37971 15.0975 8.36024 15.2996 8.34206C15.3567 8.33686 15.4095 8.30959 15.4227 8.29011C15.427 8.27972 15.3567 8.26024 15.304 8.25115C15.1107 8.21349 14.8867 8.25895 14.6934 8.23298C14.6275 8.22389 14.5351 8.2109 14.5219 8.19532C14.5132 8.18104 14.5879 8.15766 14.6406 8.14337C14.6889 8.13039 14.7548 8.1187 14.8207 8.11481C15.4006 8.08494 15.9807 8.05377 16.5606 8.0304C16.7979 8.02131 16.9648 7.98884 17.0702 7.92911C17.1493 7.88496 17.246 7.86159 17.3954 7.8551C18.4103 7.80705 19.4252 7.75381 20.4445 7.70966C20.6993 7.69927 20.8312 7.65642 20.9366 7.60058C21.0201 7.55643 21.1168 7.54084 21.2793 7.53305C22.7336 7.46553 24.179 7.39021 25.6333 7.32529C25.9013 7.3136 25.9805 7.25776 26.1167 7.20971C26.165 7.19283 26.1957 7.17205 26.2572 7.16166C26.3187 7.15128 26.3978 7.15256 26.4725 7.14997C27.6324 7.09413 28.7923 7.0344 29.9566 6.98246C30.229 6.97077 30.2817 6.90584 30.4223 6.86039C30.4706 6.8461 30.5146 6.82274 30.5717 6.81884C31.4416 6.77469 32.3115 6.73314 33.1815 6.69028C33.7614 6.66172 34.3413 6.63314 34.9213 6.60587C35.2069 6.59289 35.2069 6.59158 35.5935 6.46822C35.6375 6.45393 35.699 6.43705 35.7561 6.43315C37.4257 6.35005 39.0908 6.27085 40.7604 6.18904C40.901 6.18255 41.002 6.15266 41.0723 6.10851C41.1426 6.06436 41.2437 6.03449 41.3799 6.028C42.6848 5.96307 43.9897 5.89945 45.299 5.83842C45.5362 5.82803 45.7031 5.79686 45.8086 5.73842C45.8877 5.69427 45.9843 5.67091 46.1337 5.66441C47.4386 5.60208 48.7436 5.53584 50.0529 5.47611C50.3033 5.46442 50.4263 5.42028 50.5493 5.36833C50.5932 5.35015 50.6284 5.32029 50.6811 5.31769C51.3314 5.28133 51.9772 5.24367 52.6318 5.219C52.9042 5.20861 52.9965 5.15406 53.1064 5.10212C53.1942 5.06057 53.2953 5.04629 53.4623 5.04109C53.8269 5.02941 54.1872 5.00734 54.5431 4.98526C54.5958 4.98137 54.6617 4.9528 54.6661 4.93462C54.6749 4.90085 54.5738 4.87748 54.4069 4.86579C52.667 4.9502 50.9228 5.0346 49.1829 5.119C48.8974 5.13329 48.8973 5.1333 48.5107 5.25666C48.4668 5.27094 48.4052 5.28783 48.3437 5.29172C46.6741 5.37353 45.009 5.45405 43.3395 5.53586C43.1989 5.54235 43.0978 5.57221 43.0275 5.61637C42.9572 5.66052 42.8561 5.69038 42.7199 5.69688C41.125 5.77479 39.5302 5.85401 37.9309 5.92803C37.6937 5.93841 37.5268 5.96827 37.4213 6.028C37.3422 6.07215 37.2456 6.09554 37.0962 6.10203C35.5716 6.17475 34.0514 6.25136 32.5224 6.32148C32.3686 6.32797 32.2545 6.29031 32.2633 6.25525C32.2677 6.23707 32.3335 6.20722 32.3862 6.20462C33.1814 6.16177 33.9724 6.11761 34.772 6.08515C35.04 6.07476 35.119 6.01762 35.2552 5.96957C35.2991 5.95269 35.3343 5.93062 35.3914 5.92153C35.4529 5.91114 35.532 5.91244 35.6067 5.90984C37.4916 5.81765 39.3765 5.72415 41.2657 5.63715C41.5381 5.62416 41.5907 5.56052 41.7313 5.51507C41.7797 5.49949 41.8236 5.47612 41.8808 5.47353C42.4607 5.44236 43.0406 5.41509 43.6206 5.38782C44.6355 5.33847 45.6504 5.28912 46.6697 5.23978C46.9641 5.22549 46.9641 5.22549 47.3419 5.10342C47.3859 5.08914 47.4474 5.07097 47.5046 5.06837C50.189 4.93722 52.8735 4.80606 55.558 4.6762C55.6986 4.66971 55.7996 4.63984 55.8699 4.59569C55.9402 4.55284 56.0413 4.52167 56.1775 4.51388C59.8066 4.33728 63.4313 4.16067 67.0604 3.98666C67.2976 3.97497 67.4645 3.9477 67.57 3.88666C67.6447 3.84251 67.7457 3.81914 67.8951 3.81135C71.8845 3.61787 75.8738 3.42438 79.8676 3.2296C82.5521 3.09974 85.2366 2.96729 87.9211 2.84003C88.1671 2.82834 88.2989 2.78808 88.4219 2.73484C88.4614 2.71666 88.501 2.68679 88.5537 2.68419C89.1293 2.65173 89.7048 2.62186 90.2804 2.592C90.4605 2.62706 90.6406 2.66083 90.8208 2.69589C90.957 2.64654 91.0888 2.5959 91.2251 2.54655C92.095 2.50889 92.9517 2.45045 93.8304 2.43227C93.8875 2.43098 93.949 2.45565 94.0105 2.46864C94.4191 2.55045 94.652 2.54395 94.9112 2.43487C95.0035 2.39592 95.0825 2.36086 95.2231 2.35436C95.6581 2.33099 96.0976 2.31541 96.5281 2.28814C96.761 2.27385 96.9542 2.28683 97.1212 2.33358C97.2398 2.36735 97.3629 2.38164 97.5079 2.37385C98.3075 2.33489 99.1027 2.29723 99.9024 2.25567C99.9595 2.25307 100.012 2.23099 100.056 2.21541C100.148 2.18165 100.227 2.14529 100.315 2.11023C100.434 2.13231 100.566 2.14919 100.662 2.17776C100.785 2.21152 100.9 2.21152 101.067 2.20243C104.256 2.0453 107.451 1.89207 110.64 1.73364C110.913 1.72066 111.031 1.7752 111.216 1.80377C111.277 1.81416 111.339 1.82714 111.405 1.82974C111.475 1.83233 111.55 1.82455 111.62 1.82065C114.014 1.70378 116.409 1.5882 118.804 1.47133C119.12 1.45575 119.12 1.45575 119.59 1.53626C119.647 1.54665 119.722 1.55834 119.783 1.55444C120.873 1.5038 121.962 1.44926 123.048 1.39732C123.188 1.39083 123.307 1.4116 123.434 1.44147C123.685 1.4999 123.702 1.49991 123.887 1.4142C123.975 1.37395 124.067 1.34926 124.212 1.33758C124.37 1.32459 124.498 1.3285 124.621 1.35187C124.796 1.38434 124.924 1.43887 125.192 1.42458C126.352 1.36355 127.516 1.31291 128.671 1.25058C128.935 1.2363 129.076 1.28045 129.251 1.31291C129.313 1.3246 129.37 1.34278 129.436 1.34667C129.502 1.35057 129.581 1.34147 129.651 1.33758C131.101 1.26745 132.555 1.19864 134.001 1.12332C134.273 1.10904 134.392 1.16487 134.576 1.19344C134.638 1.20382 134.708 1.22201 134.765 1.21942C135.635 1.17916 136.51 1.1363 137.38 1.09344C137.692 1.07786 137.691 1.07916 138.166 1.15837C138.223 1.16876 138.298 1.17915 138.359 1.17655C139.374 1.12851 140.394 1.07916 141.408 1.02982C141.72 1.01423 141.72 1.01424 142.621 1.08176C142.687 1.08696 142.757 1.09476 142.823 1.09216C143.983 1.03632 145.147 0.981774 146.307 0.92204C146.54 0.910353 146.733 0.920738 146.9 0.967487C147.019 1.00125 147.142 1.01554 147.287 1.00775C148.592 0.94412 149.901 0.88309 151.202 0.815564C151.452 0.802579 151.615 0.831136 151.79 0.868794C151.848 0.88178 151.905 0.899964 151.971 0.905158C152.037 0.910352 152.111 0.905154 152.182 0.901258C153.486 0.837629 154.796 0.777897 156.096 0.709073C156.36 0.694789 156.5 0.738937 156.676 0.771402C156.738 0.783089 156.804 0.806464 156.856 0.805166C157.366 0.78309 157.876 0.763618 158.381 0.731154C158.653 0.712974 158.772 0.772698 158.956 0.801266C159.018 0.810356 159.088 0.829844 159.145 0.827247C160.235 0.776603 161.325 0.723365 162.41 0.668826C162.564 0.661034 162.678 0.67271 162.801 0.706473C162.963 0.751923 163.152 0.770104 163.39 0.755819C163.895 0.725952 164.404 0.705181 164.914 0.680508C165.213 0.666224 165.213 0.666228 166.127 0.733754C166.193 0.738948 166.263 0.746734 166.329 0.744137C167.199 0.702583 168.073 0.662329 168.939 0.61688C169.171 0.603894 169.365 0.615578 169.532 0.662326C169.65 0.696089 169.769 0.710381 169.918 0.70259C170.718 0.663633 171.513 0.624672 172.313 0.585715C172.603 0.571431 172.893 0.546752 173.183 0.546752C173.394 0.54805 173.548 0.610379 173.736 0.641545C173.789 0.650635 173.877 0.640258 173.947 0.637661C174.962 0.588316 175.982 0.542861 176.992 0.487023C177.256 0.472739 177.396 0.516887 177.572 0.549352C177.634 0.561039 177.699 0.584414 177.752 0.583116C178.117 0.568831 178.477 0.549351 178.842 0.53247C179.277 0.511692 179.716 0.49611 180.147 0.467541C180.498 0.444167 180.63 0.557139 180.911 0.561034C181.126 0.56493 181.346 0.542858 181.561 0.53247C181.996 0.511692 182.431 0.488321 182.866 0.470141C183.02 0.463648 183.139 0.442862 183.187 0.396114C183.196 0.387024 183.121 0.367553 183.073 0.355866C182.488 0.223412 182.488 0.223406 181.9 0.251974C181.535 0.270154 181.175 0.288338 180.81 0.30392C180.749 0.306517 180.678 0.29613 180.617 0.288338C180.441 0.266263 180.459 0.240294 180.608 0.193545C180.757 0.146797 180.872 0.0896649 180.999 0.0364236C181.179 0.0701864 181.355 0.103937 181.535 0.1377C181.68 0.131207 181.825 0.123427 181.97 0.116934C182.695 0.0831714 183.42 0.0481076 184.145 0.0169419C184.198 0.0143448 184.263 0.04032 184.325 0.0533056C184.501 0.0909641 184.659 0.123419 184.914 0.109135C185.564 0.0714767 186.219 0.0442068 186.869 0.0117426C187.154 -0.00254166 187.154 -0.00254039 187.655 0.0779708C187.712 0.0870608 187.787 0.09745 187.849 0.0948528C188.503 0.0649858 189.153 0.0325254 189.808 0.00135975C189.949 -0.00513309 190.085 0.0117477 190.186 0.0494061C190.226 0.0649889 190.217 0.0909552 190.384 0.30392C190.902 0.47663 191.258 0.458459 191.618 0.442876C191.772 0.436383 191.908 0.429884 192.009 0.403913C192.062 0.389628 192.128 0.368848 192.128 0.351967C192.128 0.338981 192.031 0.3182 191.97 0.315603C191.535 0.289632 191.122 0.344179 190.696 0.355866C190.498 0.361061 190.327 0.31561 190.291 0.241592C190.283 0.220815 190.269 0.19874 190.256 0.177963C190.243 0.157186 190.234 0.135112 190.221 0.114335C190.05 0.107842 189.949 0.131212 189.874 0.175363C189.813 0.211723 189.725 0.253277 189.606 0.272756C189.487 0.293533 189.325 0.289644 189.18 0.296137C189.039 0.30263 188.885 0.319509 188.754 0.31042C188.622 0.300031 188.516 0.262366 188.393 0.238992C188.336 0.227305 188.266 0.21043 188.209 0.213027C187.704 0.235103 187.203 0.25717 186.702 0.285738C186.438 0.301321 186.306 0.24679 186.14 0.213027C186.008 0.187056 185.876 0.19354 185.854 0.253274C185.797 0.396117 185.999 0.455848 186.447 0.428578C186.816 0.405204 187.15 0.40132 187.44 0.489623C187.48 0.50131 187.572 0.506502 187.629 0.503905C187.989 0.488322 188.345 0.468842 188.705 0.453259C188.771 0.450662 188.842 0.455848 188.903 0.461042C189.799 0.531165 189.799 0.53247 190.103 0.516887C190.248 0.509096 190.388 0.502602 190.375 0.30522C190.652 0.0935536 191.091 0.0792719 191.517 0.0481063C191.794 0.0286278 191.913 0.0857673 192.093 0.115634C192.154 0.126023 192.22 0.146796 192.277 0.144199C193.222 0.101346 194.162 0.0558901 195.102 0.00784308C195.261 5.16698e-05 195.375 0.00784435 195.498 0.0416071C195.656 0.0844598 195.832 0.111735 196.082 0.0961527C196.583 0.064987 197.093 0.045513 197.602 0.0195416C197.861 0.00655592 197.862 0.00654261 198.384 0.0870538C198.441 0.0961438 198.516 0.106533 198.578 0.103936C199.087 0.0818602 199.593 0.0545985 200.098 0.0312243C200.238 0.0247314 200.366 0.0429095 200.476 0.0779708C200.586 0.113032 200.717 0.13121 200.854 0.124717C201.363 0.101343 201.868 0.07538 202.374 0.0520058C202.435 0.0494087 202.51 0.058498 202.567 0.067588C203.103 0.148099 203.103 0.148086 203.349 0.1351C203.709 0.115622 204.078 0.106542 204.434 0.0805705C204.781 0.0545991 204.962 0.12991 205.199 0.171464C205.849 0.141597 206.504 0.11693 207.15 0.0805705C207.413 0.0649877 207.554 0.107837 207.729 0.141599C207.791 0.153286 207.852 0.177962 207.91 0.176663C208.129 0.171469 208.345 0.157187 208.56 0.146799C208.775 0.13641 208.995 0.126023 209.21 0.115634C209.456 0.153293 209.619 0.241594 209.97 0.211727C210.181 0.193547 210.405 0.189651 210.62 0.179263C210.836 0.168874 211.055 0.158487 211.271 0.148099C211.416 0.141606 211.565 0.137704 211.706 0.126017C211.965 0.106539 212.092 0.170176 212.277 0.198745C212.338 0.207835 212.409 0.223407 212.466 0.22081C212.901 0.20263 213.34 0.187049 213.766 0.157182C214.096 0.133807 214.32 0.172769 214.553 0.227309C214.601 0.238996 214.685 0.245489 214.746 0.242891C215.256 0.220816 215.761 0.193538 216.266 0.170164C216.402 0.163671 216.534 0.184448 216.644 0.21821C216.758 0.253272 216.886 0.270166 217.026 0.263673C217.532 0.240299 218.041 0.21432 218.547 0.190946C218.608 0.188348 218.683 0.198739 218.74 0.209127C219.232 0.289639 219.232 0.290938 219.522 0.275356C219.592 0.27146 219.667 0.268853 219.737 0.264957C220.097 0.246777 220.471 0.240293 220.822 0.209127C221.227 0.174066 221.521 0.218219 221.807 0.292238C222.167 0.276655 222.536 0.267563 222.887 0.241592C223.151 0.222113 223.292 0.271456 223.467 0.30392C223.529 0.315607 223.595 0.338982 223.647 0.336385C224.157 0.314309 224.667 0.294837 225.168 0.262373C225.44 0.244193 225.559 0.302618 225.743 0.332485C225.805 0.342874 225.871 0.361063 225.928 0.358466C226.218 0.348077 226.508 0.332487 226.798 0.318203C227.136 0.301321 227.136 0.302619 227.584 0.381831C227.795 0.41949 228.006 0.389621 228.212 0.380531C228.432 0.370143 228.639 0.362354 228.814 0.415595C228.924 0.449358 229.056 0.470136 229.192 0.464941C229.482 0.453254 229.777 0.441573 230.062 0.422094C230.291 0.406512 230.488 0.416894 230.655 0.464941C230.774 0.498704 230.897 0.515596 231.042 0.507804C231.692 0.476639 232.347 0.444162 232.997 0.414295C233.054 0.411698 233.133 0.42339 233.186 0.435077C233.309 0.458451 233.428 0.484417 233.546 0.510388C233.832 0.498701 234.126 0.49352 234.407 0.47534C234.706 0.45716 234.978 0.450666 235.211 0.522087C235.26 0.53767 235.33 0.559733 235.387 0.558435C235.607 0.55324 235.822 0.540258 236.037 0.52987C236.253 0.519481 236.472 0.509094 236.688 0.498706C236.938 0.53117 237.096 0.624665 237.448 0.594798C237.659 0.576618 237.883 0.572723 238.098 0.562334C238.313 0.551946 238.533 0.54026 238.748 0.53117C238.818 0.528573 238.898 0.522076 238.959 0.52727C239.025 0.532465 239.082 0.550648 239.139 0.563634C239.315 0.601292 239.478 0.638955 239.728 0.61688C239.939 0.5987 240.163 0.594803 240.378 0.583116C240.673 0.568831 240.673 0.568834 241.16 0.650644C241.358 0.684406 241.582 0.640257 241.771 0.668826C241.898 0.688304 242.008 0.720761 242.131 0.742837C242.184 0.751927 242.267 0.755817 242.329 0.75322C242.619 0.741533 242.913 0.729851 243.199 0.710373C243.432 0.69479 243.625 0.710371 243.788 0.757119C243.906 0.790882 244.025 0.805174 244.174 0.797382C244.899 0.761023 245.624 0.729847 246.345 0.689591C246.591 0.675307 246.788 0.697388 246.925 0.744137C247.157 0.824648 247.487 0.729854 247.729 0.794783C247.878 0.835038 248.027 0.881789 248.3 0.862311C248.801 0.828548 249.31 0.810358 249.816 0.786984C249.996 0.822045 250.176 0.857114 250.36 0.892175C250.65 0.877891 250.94 0.863598 251.23 0.850612C251.446 0.840224 251.665 0.828538 251.881 0.819448C251.951 0.816851 252.026 0.811655 252.091 0.818148C252.157 0.824641 252.21 0.841526 252.272 0.854512C252.575 0.918142 252.575 0.919447 253.076 0.893475C253.291 0.881788 253.497 0.873997 253.678 0.925939C253.845 0.973986 254.042 0.983071 254.271 0.968786C254.701 0.942815 255.136 0.923338 255.576 0.905158C255.712 0.898665 255.839 0.920741 255.953 0.954504C256.125 1.00775 256.336 1.00255 256.551 0.988268C256.837 0.970088 257.118 0.951912 257.359 1.02463C257.408 1.04021 257.482 1.06228 257.535 1.06098C257.895 1.05059 258.26 1.04281 258.612 1.01813C258.963 0.99346 259.134 1.07397 259.376 1.11293C259.736 1.09604 260.101 1.07916 260.461 1.06228C260.532 1.05838 260.615 1.0467 260.676 1.0532C260.936 1.08047 261.085 1.17786 261.441 1.14799C261.647 1.13111 261.872 1.12592 262.087 1.12202C262.144 1.12073 262.219 1.14279 262.258 1.15967C262.28 1.16876 262.258 1.19343 262.232 1.20642C262.153 1.24278 262.056 1.27655 261.986 1.31421C261.977 1.3194 262.06 1.34277 262.109 1.35316C262.227 1.37653 262.364 1.37264 262.522 1.36226C262.658 1.35317 262.799 1.37135 262.895 1.4103C262.935 1.42589 262.922 1.45185 262.838 1.53756C262.838 1.60119 262.93 1.57261 262.961 1.53106C263.009 1.47133 262.917 1.45185 262.741 1.48431C262.618 1.50769 262.557 1.54145 262.588 1.56872C262.605 1.58301 262.689 1.60119 262.838 1.53756C263.225 1.45965 263.515 1.44537 263.805 1.43108C263.879 1.42719 263.967 1.41419 264.02 1.42199C264.209 1.45315 264.385 1.49082 264.569 1.52588C264.78 1.51809 264.978 1.4986 265.184 1.54924C265.474 1.62066 265.487 1.61417 265.769 1.59989C265.914 1.5921 266.059 1.58562 266.204 1.57912C266.349 1.57263 266.463 1.5921 266.59 1.62197C266.849 1.683 266.871 1.683 267.043 1.59989C267.144 1.54924 267.214 1.53237 267.342 1.55574C267.763 1.63495 267.768 1.64014 268.128 1.61677C268.427 1.59729 268.708 1.5921 268.928 1.66612C269.077 1.71806 269.125 1.70637 269.244 1.65183C269.56 1.50769 269.705 1.51029 270.298 1.61417C270.575 1.66352 270.861 1.61028 271.142 1.60379C271.379 1.59859 271.546 1.62975 271.564 1.71156C271.577 1.76221 271.617 1.79857 271.775 1.81546C271.836 1.82195 271.911 1.83103 271.972 1.82844C272.337 1.81285 272.697 1.79467 273.062 1.77649C273.246 1.7674 273.348 1.70638 273.312 1.62587C273.273 1.54016 273.343 1.50899 273.607 1.48431C273.765 1.47003 273.892 1.47264 274.02 1.49601C274.16 1.52198 274.121 1.54536 273.998 1.59211C273.703 1.70638 273.739 1.77649 274.116 1.8557C274.248 1.88297 274.354 1.90766 274.384 1.94791C274.402 1.96869 274.384 1.99596 274.424 2.01154C274.639 2.09854 274.938 2.15439 275.272 2.19594C275.593 2.16088 275.812 2.21931 276.058 2.26605C276.252 2.30241 276.48 2.27126 276.687 2.25827C276.92 2.24399 277.113 2.25437 277.28 2.30242C277.398 2.33618 277.521 2.35176 277.666 2.34527C277.956 2.33098 278.251 2.3219 278.536 2.30112C278.782 2.28294 278.967 2.30891 279.121 2.35306C279.314 2.4089 279.529 2.37124 279.731 2.37903C280.004 2.38812 280.14 2.50369 280.496 2.47252C280.707 2.45434 280.927 2.44785 281.146 2.44266C281.203 2.44136 281.274 2.46344 281.322 2.47902C281.555 2.55044 281.827 2.54655 282.126 2.52577C282.332 2.51148 282.535 2.4985 282.737 2.54785C283.071 2.63096 283.44 2.70368 283.791 2.7803C283.839 2.84003 283.804 2.91014 284.055 2.9452C284.187 2.96338 284.31 2.99066 284.411 3.02053C284.534 3.05559 284.648 3.06468 284.806 3.05559C285.092 3.03741 285.39 3.03351 285.672 3.01013C285.931 2.98935 286.093 3.03222 286.251 3.07248C286.379 3.10494 286.498 3.12052 286.651 3.09714C286.81 3.07507 286.924 3.08934 287.051 3.12441C287.231 3.17245 287.244 3.16727 287.842 3.18155C287.904 3.18285 287.978 3.20232 288.013 3.2192C288.031 3.22829 287.991 3.25428 287.961 3.26726C287.921 3.28284 287.86 3.30101 287.802 3.30491C287.152 3.33867 286.498 3.36854 285.847 3.4023C285.781 3.4062 285.711 3.4153 285.663 3.42828C285.61 3.44257 285.544 3.46203 285.544 3.48021C285.544 3.4932 285.632 3.50879 285.693 3.51788C285.887 3.54774 286.115 3.50229 286.304 3.53606C286.432 3.55813 286.537 3.58929 286.664 3.61007C286.717 3.61916 286.801 3.61787 286.867 3.61527C287.086 3.60618 287.302 3.5932 287.521 3.5854C287.583 3.58411 287.653 3.5971 287.71 3.60749C288.132 3.6854 288.132 3.6854 288.497 3.66851C288.642 3.66202 288.795 3.64254 288.932 3.65033C289.063 3.65812 289.178 3.69318 289.296 3.71526C289.542 3.76201 289.775 3.80746 289.793 3.90875C289.802 3.9477 289.946 3.98146 290.091 3.98406C290.232 3.98665 290.381 3.97238 290.526 3.96459C290.869 3.94901 290.869 3.94901 291.313 4.02822C291.436 4.0503 291.568 4.05289 291.726 4.0399C291.787 4.03471 291.862 4.03991 291.928 4.0464C292.143 4.06588 292.143 4.09055 292.003 4.1373C291.805 4.20612 291.823 4.21262 292.376 4.27105C292.587 4.29313 292.75 4.33468 292.925 4.37104C293.211 4.42948 293.207 4.42947 293.018 4.50608C292.974 4.52297 292.934 4.54115 292.89 4.55933C292.763 4.60997 292.662 4.66451 292.398 4.6697C292.108 4.6749 291.818 4.69568 291.528 4.70997C291.247 4.72425 291.172 4.75541 291.199 4.84371C291.229 4.95019 291.287 4.96188 291.792 4.96058C291.937 4.96058 292.064 4.97097 292.174 5.00603C292.121 5.04758 292.025 5.08005 291.884 5.08784C291.524 5.10732 291.159 5.1242 290.799 5.14109C290.509 5.15537 290.219 5.16965 289.929 5.18393C289.749 5.19302 289.635 5.26055 289.683 5.33587C289.709 5.37872 289.731 5.42157 289.753 5.46443C289.801 5.55013 289.894 5.57222 290.188 5.56832C290.263 5.56702 290.333 5.55662 290.403 5.55922C290.689 5.56831 290.825 5.67609 291.168 5.65401C291.453 5.63583 291.752 5.63194 292.034 5.60857C292.293 5.58779 292.438 5.63455 292.618 5.66961C292.679 5.6813 292.745 5.70596 292.798 5.70466C293.163 5.69038 293.527 5.6761 293.883 5.65143C294.05 5.64104 294.151 5.64883 294.283 5.67999C294.599 5.75531 294.608 5.75141 295.078 5.72804C295.421 5.70986 295.425 5.71246 295.865 5.79167C295.988 5.81375 296.12 5.81374 296.278 5.80335C296.484 5.79037 296.699 5.76959 296.915 5.78907C296.981 5.79426 297.064 5.80985 297.086 5.82673C297.099 5.83842 297.038 5.86699 296.985 5.87608C296.598 5.9436 296.146 5.93192 295.724 5.95919C295.592 5.96698 295.46 5.94231 295.351 5.90724C295.236 5.87218 295.113 5.8579 294.964 5.8644C294.674 5.87868 294.38 5.88777 294.094 5.90854C293.848 5.92672 293.677 5.89685 293.505 5.8566C293.448 5.84361 293.382 5.81894 293.325 5.82023C292.675 5.84621 292.02 5.87218 291.374 5.90854C291.115 5.92413 290.966 5.88258 290.79 5.84751C290.729 5.83583 290.667 5.81115 290.61 5.81245C290.39 5.81765 290.175 5.83193 289.955 5.84232C289.156 5.88127 288.36 5.92023 287.561 5.95659C287.508 5.95919 287.442 5.93191 287.381 5.92023C287.262 5.89685 287.139 5.87477 287.016 5.8527C286.796 5.86309 286.581 5.87607 286.361 5.88386C286.203 5.88906 286.063 5.90724 286.041 5.95659C286.027 5.98905 286.172 6.01892 286.326 6.01632C286.476 6.01372 286.625 5.99814 286.748 6.01502C287.359 6.09813 287.359 6.09943 287.741 6.08255C288.075 6.06696 288.04 6.05397 288.334 6.12539C288.461 6.15656 288.576 6.17475 288.721 6.16696C289.081 6.14878 289.446 6.13059 289.81 6.11501C289.867 6.11241 289.942 6.1254 289.999 6.13579C290.43 6.21371 290.43 6.2163 290.786 6.19682C291.251 6.17345 291.269 6.16696 291.581 6.24617C291.796 6.30071 291.994 6.26305 292.2 6.26045C292.438 6.31109 292.697 6.35655 292.912 6.41369C293.167 6.48121 293.435 6.46951 293.725 6.45004C293.94 6.43575 294.151 6.43056 294.327 6.4838C294.494 6.53315 294.696 6.53835 294.924 6.52536C295.131 6.51368 295.342 6.489 295.557 6.51756C295.614 6.52536 295.702 6.54484 295.698 6.55653C295.693 6.57471 295.636 6.60068 295.579 6.60847C295.175 6.66171 294.731 6.66041 294.305 6.68508C294.248 6.68898 294.173 6.67469 294.116 6.6643C293.993 6.64093 293.874 6.61366 293.756 6.58899C293.54 6.59678 293.321 6.59937 293.11 6.61496C292.947 6.62664 292.824 6.62536 292.706 6.59419C292.596 6.56562 292.477 6.53055 292.345 6.52146C292.214 6.51237 292.06 6.53185 291.915 6.53965C291.77 6.54744 291.603 6.54353 291.489 6.56431C291.374 6.58509 291.304 6.63054 291.229 6.6669C291.146 6.70716 291.032 6.72015 290.865 6.72405C290.711 6.72794 290.588 6.72274 290.474 6.68638C290.425 6.6708 290.359 6.65911 290.294 6.64872C290.232 6.63963 290.162 6.62534 290.105 6.62794C289.45 6.65781 288.8 6.69028 288.145 6.72145C287.82 6.73703 287.824 6.73702 287.148 6.6604C287.086 6.65391 287.012 6.64482 286.95 6.64742C286.585 6.663 286.225 6.68119 285.861 6.69937C285.491 6.71755 285.496 6.71495 284.868 6.63314C284.753 6.61756 284.586 6.63834 284.45 6.63574C284.165 6.62925 284.024 6.52017 283.69 6.54095C283.405 6.55913 283.106 6.56302 282.82 6.58639C282.561 6.60717 282.412 6.56172 282.236 6.52666C282.174 6.51498 282.108 6.489 282.056 6.4916C281.401 6.52017 280.751 6.55263 279.881 6.55653C279.666 6.55653 279.762 6.5838 279.903 6.59289C280.105 6.60718 280.171 6.57991 280.061 6.52796C279.982 6.4916 279.868 6.47341 279.775 6.4825C279.727 6.48769 279.666 6.51238 279.881 6.55653C280.109 6.60587 280.096 6.63314 280.136 6.64872C280.232 6.68638 280.369 6.70196 280.509 6.69677C280.729 6.68768 280.944 6.67469 281.164 6.6669C281.225 6.66431 281.3 6.6734 281.357 6.68378C281.84 6.7643 281.845 6.7695 282.359 6.73833C282.521 6.72924 282.64 6.72924 282.767 6.75391C282.943 6.78767 283.071 6.8448 283.339 6.82662C283.694 6.80195 284.059 6.78768 284.424 6.77339C284.481 6.7708 284.542 6.79417 284.608 6.80456C284.788 6.83572 284.92 6.89416 285.188 6.86949C285.395 6.85001 285.619 6.8448 285.839 6.84091C285.896 6.83961 285.983 6.86039 286.01 6.87727C286.063 6.90714 285.997 6.94221 285.847 6.96688C285.786 6.97727 285.702 6.97467 285.632 6.97856C285.342 6.99285 285.052 7.00842 284.762 7.02011C284.608 7.0266 284.463 7.04609 284.446 7.09414C284.433 7.1266 284.591 7.15516 284.74 7.15257C284.96 7.14867 285.179 7.13828 285.39 7.1214C285.764 7.09283 286.089 7.10062 286.392 7.18243C286.607 7.23957 286.594 7.2188 286.823 7.38761C286.88 7.43047 287.051 7.43436 287.201 7.43176C287.561 7.42527 287.728 7.44475 287.697 7.48501C287.657 7.53435 287.53 7.54993 287.367 7.55642C287.077 7.56681 286.788 7.5837 286.498 7.59798C286.427 7.60188 286.348 7.60966 286.282 7.60706C286.216 7.60447 286.155 7.58889 286.098 7.5772C285.975 7.55253 285.869 7.51486 285.737 7.50577C285.606 7.49668 285.452 7.51616 285.307 7.52395C285.162 7.53045 285.008 7.54993 284.876 7.54084C284.745 7.53175 284.635 7.4928 284.516 7.46942C284.459 7.45774 284.389 7.43955 284.332 7.44084C284.042 7.45123 283.752 7.46812 283.462 7.48111C283.106 7.49799 283.106 7.49799 282.675 7.41748C282.552 7.3941 282.425 7.39541 282.262 7.4058C281.911 7.42657 281.906 7.42267 281.265 7.34735C281.203 7.33956 281.129 7.33047 281.067 7.33437C280.412 7.36424 279.762 7.3967 279.112 7.42786C278.554 7.45513 278.554 7.45514 278.246 7.585C278.018 7.68109 278.014 7.68109 278.238 7.72524C278.418 7.7616 278.58 7.81484 278.778 7.83431C278.963 7.85249 279.191 7.79406 279.393 7.8538C279.494 7.88366 279.626 7.91613 279.753 7.92132C279.955 7.92782 280.171 7.89015 280.364 7.94729C280.461 7.97586 280.606 8.00573 280.729 8.00703C280.944 8.00963 281.164 7.98884 281.379 7.97975C281.445 7.97716 281.52 7.97716 281.581 7.98365C281.647 7.99144 281.704 8.00703 281.761 8.02002C281.937 8.06417 282.126 8.08494 282.354 8.06286C282.728 8.0265 283.062 8.04468 283.352 8.12779C283.391 8.13948 283.488 8.14078 283.549 8.13559C283.708 8.1226 283.844 8.1213 283.962 8.14597C284.011 8.15636 284.081 8.17453 284.072 8.18622C284.059 8.2057 284.006 8.23167 283.949 8.23817C283.536 8.28232 283.093 8.28752 282.666 8.31089C282.609 8.31349 282.539 8.2966 282.482 8.28491C282.359 8.26154 282.253 8.22259 282.122 8.2135C281.99 8.20441 281.836 8.22129 281.691 8.22778C281.546 8.23428 281.392 8.25376 281.26 8.24597C281.129 8.23688 281.006 8.20441 280.9 8.17584C280.777 8.14337 280.659 8.13949 280.496 8.15247C280.285 8.16935 280.065 8.17195 279.85 8.18104C279.732 8.15636 279.613 8.12908 279.49 8.10571C279.433 8.09402 279.362 8.07975 279.301 8.08105C279.011 8.09143 278.721 8.10701 278.431 8.12129C278.141 8.13558 278.141 8.13559 277.649 8.05508C277.592 8.04599 277.517 8.0356 277.456 8.0382C277.091 8.05378 276.731 8.07325 276.366 8.08883C276.225 8.09532 276.098 8.07714 275.984 8.04208C275.874 8.00702 275.742 7.98754 275.606 7.99404C275.026 8.02131 274.446 8.04728 273.866 8.07975C273.633 8.09273 273.435 8.08105 273.277 8.0343C273.093 7.98106 272.886 7.99405 272.671 8.00443C272.183 8.03041 272.179 8.0291 271.867 7.96287C271.805 7.94988 271.744 7.92521 271.687 7.92651C271.182 7.94599 270.672 7.96417 270.171 7.99534C269.907 8.01222 269.767 7.96677 269.591 7.93301C269.53 7.92132 269.464 7.89665 269.411 7.89924C269.046 7.91353 268.682 7.92652 268.326 7.95249C267.97 7.97846 267.834 7.8577 267.566 7.85899C267.201 7.86029 266.841 7.89016 266.48 7.90834C266.19 7.92263 265.9 7.9369 265.61 7.95119C265.32 7.96547 265.031 7.97715 264.741 7.99404C264.587 8.00313 264.473 7.99144 264.345 7.95897C264.183 7.91612 263.989 7.88237 263.814 7.84341C263.546 7.78757 263.546 7.78757 263.22 7.80315C263.15 7.80704 263.075 7.80964 263.005 7.81353C262.473 7.8421 262.473 7.83951 261.797 7.7577C261.766 7.75381 261.687 7.7681 261.656 7.77848C261.564 7.81225 261.481 7.8486 261.397 7.88366C261.278 7.86288 261.133 7.8512 261.054 7.82133C260.83 7.73692 260.479 7.85249 260.25 7.76939C260.167 7.73822 260.022 7.71095 259.89 7.70316C259.754 7.69537 259.6 7.71355 259.459 7.72134C259.095 7.74082 259.095 7.73952 258.783 7.8551C258.625 7.91223 258.396 7.90184 258.19 7.91482C257.974 7.92911 257.768 7.9369 257.588 7.88366C257.425 7.83561 257.228 7.82393 256.995 7.83951C256.709 7.85899 256.415 7.87067 256.125 7.88236C256.063 7.88496 255.989 7.87847 255.927 7.87068C255.255 7.79406 255.255 7.79277 254.93 7.80965C254.785 7.81744 254.635 7.82003 254.495 7.83171C254.257 7.85249 254.077 7.82522 253.906 7.78367C253.849 7.77068 253.783 7.74602 253.726 7.74732C253.436 7.75381 253.15 7.7655 252.865 7.77718C252.645 7.78627 252.425 7.79147 252.214 7.80965C251.863 7.83952 251.692 7.7551 251.45 7.71614C251.09 7.73302 250.725 7.74471 250.365 7.76809C250.198 7.77847 250.088 7.77459 249.961 7.74342C249.798 7.70446 249.649 7.66031 249.385 7.67979C249.034 7.70576 248.664 7.71486 248.304 7.73044C248.063 7.69018 247.887 7.60836 247.54 7.63823C247.329 7.65641 247.105 7.6603 246.889 7.67069C246.6 7.68498 246.31 7.69797 246.02 7.71356C245.708 7.72914 245.712 7.72524 245.233 7.64863C244.956 7.60318 244.671 7.65382 244.389 7.66161C244.17 7.6681 244.06 7.72783 244.113 7.80445C244.165 7.88106 244.047 7.9408 243.845 7.95119C243.339 7.97586 242.83 8.00182 242.325 8.0239C242.263 8.0265 242.188 8.01741 242.131 8.00832C241.591 7.92651 241.591 7.92782 241.349 7.93951C240.989 7.95898 240.62 7.96936 240.264 7.99404C240.018 8.01092 239.838 7.98366 239.68 7.93951C239.557 7.90574 239.442 7.89795 239.284 7.90574C237.544 7.99275 235.804 8.07325 234.069 8.16286C233.81 8.17584 233.66 8.13819 233.485 8.10313C233.423 8.09144 233.366 8.06676 233.304 8.06676C233.16 8.06676 233.015 8.07845 232.87 8.08624C232.219 8.11741 231.569 8.15506 230.914 8.17844C230.638 8.18883 230.563 8.24857 230.444 8.29791C230.352 8.33557 230.247 8.35115 230.084 8.35634C229.926 8.36153 229.812 8.35504 229.689 8.32128C229.53 8.27713 229.35 8.24985 229.104 8.26803C228.819 8.28881 228.529 8.29791 228.234 8.31219C228.085 8.31869 227.971 8.34206 227.922 8.3888C227.914 8.3966 228.006 8.41608 228.059 8.42777C228.234 8.46672 228.401 8.51217 228.599 8.53944C228.801 8.56671 229.021 8.53554 229.232 8.52774C229.306 8.52515 229.377 8.51736 229.447 8.51866C229.513 8.51996 229.592 8.52646 229.64 8.53814C229.869 8.59658 230.11 8.63683 230.427 8.60177C230.699 8.61865 230.84 8.72643 231.187 8.69786C231.398 8.68098 231.617 8.67319 231.837 8.6667C231.894 8.6654 231.956 8.68878 232.017 8.70046C232.193 8.73293 232.334 8.78487 232.597 8.76279C232.878 8.73942 233.177 8.73553 233.463 8.71735C233.621 8.70696 233.735 8.71605 233.858 8.74981C234.016 8.79266 234.196 8.82512 234.442 8.80434C234.653 8.78616 234.877 8.78226 235.093 8.77058C235.374 8.75629 235.374 8.75759 235.875 8.8381C235.932 8.84719 236.007 8.85758 236.068 8.85499C236.433 8.8394 236.793 8.81992 237.158 8.80434C237.298 8.79785 237.435 8.81473 237.531 8.85239C237.571 8.86797 237.557 8.89396 237.571 8.91603C236.846 8.95109 236.121 8.98095 235.4 9.02381C235.128 9.04069 235.005 8.98744 234.825 8.95758C234.763 8.94719 234.697 8.92512 234.64 8.92771C234.13 8.94979 233.625 8.97316 233.12 9.00172C232.962 9.01081 232.843 9.00562 232.725 8.96796C232.421 8.86797 232.052 8.92251 231.71 8.9368C231.446 8.94718 231.363 8.98745 231.393 9.07315C231.433 9.17444 231.591 9.20561 231.995 9.18743C232.14 9.18093 232.285 9.17184 232.43 9.16665C232.571 9.16145 232.698 9.17833 232.812 9.21339C232.922 9.24845 233.054 9.26663 233.19 9.26144C233.48 9.24975 233.775 9.23807 234.056 9.21859C234.289 9.20301 234.482 9.21599 234.645 9.26404C234.825 9.31728 235.036 9.30559 235.247 9.2939C235.739 9.26793 235.743 9.26924 236.05 9.33417C236.112 9.34715 236.174 9.37183 236.231 9.37053C236.736 9.35105 237.246 9.33417 237.742 9.303C238.001 9.28742 238.151 9.32897 238.322 9.36273C238.384 9.37442 238.445 9.40039 238.502 9.39779C238.867 9.38351 239.231 9.36922 239.587 9.34455C239.754 9.33286 239.855 9.34065 239.992 9.37181C240.317 9.44843 240.325 9.44583 240.787 9.42116C240.927 9.41337 241.081 9.39909 241.213 9.40948C241.345 9.41987 241.45 9.45753 241.573 9.4809C241.63 9.49129 241.701 9.50557 241.762 9.50297C242.052 9.49258 242.342 9.47701 242.632 9.46272C242.904 9.44844 242.904 9.44974 243.414 9.53025C243.621 9.56401 243.836 9.53544 244.042 9.52505C244.267 9.51336 244.469 9.51337 244.64 9.56401C244.811 9.61466 245.018 9.61205 245.238 9.60166C245.444 9.59127 245.655 9.56272 245.866 9.59778C246.349 9.67829 246.349 9.67957 246.648 9.66399C247.083 9.64192 247.513 9.62114 247.953 9.60166C248.01 9.59906 248.084 9.61465 248.142 9.62504C248.265 9.64842 248.37 9.68737 248.502 9.69646C248.634 9.70684 248.787 9.69126 248.928 9.68347C249.381 9.6588 249.411 9.64971 249.715 9.73542C249.969 9.80554 250.286 9.70425 250.523 9.78476C250.659 9.83021 250.844 9.86657 251.098 9.84449C251.309 9.82631 251.529 9.82112 251.749 9.81073C252.096 9.79385 252.096 9.79516 252.535 9.87307C252.592 9.88346 252.667 9.89644 252.724 9.89384C253.014 9.88345 253.309 9.87437 253.59 9.85099C253.919 9.82372 254.13 9.87307 254.376 9.92112C254.569 9.95878 254.798 9.92761 255.004 9.91462C255.229 9.90164 255.431 9.90552 255.597 9.95617C255.773 10.0081 255.98 10.0016 256.199 9.99123C256.406 9.98214 256.617 9.95227 256.828 9.98863C257.28 10.0691 257.28 10.0691 257.61 10.0536C257.9 10.0393 258.19 10.0237 258.48 10.0133C258.537 10.0107 258.607 10.0276 258.664 10.0393C258.787 10.0627 258.893 10.1016 259.025 10.1107C259.156 10.1198 259.31 10.1029 259.455 10.0964C259.6 10.0899 259.754 10.0705 259.886 10.0782C260.017 10.086 260.14 10.1185 260.246 10.1471C260.369 10.1808 260.483 10.1847 260.65 10.1717C260.861 10.1549 261.081 10.151 261.296 10.1419C261.415 10.1665 261.538 10.1912 261.652 10.2185C261.77 10.2471 261.898 10.2445 262.06 10.2354C262.601 10.2042 262.605 10.2081 263.058 10.2886C263.264 10.325 263.48 10.2951 263.686 10.286C263.906 10.2756 264.112 10.2704 264.284 10.3224C264.451 10.3717 264.657 10.3782 264.877 10.3626C265.017 10.3522 265.167 10.3458 265.312 10.3419C265.378 10.3406 265.457 10.3457 265.505 10.3561C265.738 10.4107 265.966 10.46 266.287 10.425C266.568 10.4354 266.709 10.5418 267.047 10.5211C267.333 10.5029 267.632 10.499 267.913 10.4756C268.172 10.4548 268.356 10.4912 268.488 10.5366C268.726 10.6172 269.059 10.5081 269.297 10.5873C269.433 10.6327 269.609 10.6691 269.872 10.6496C270.162 10.6288 270.254 10.6561 270.338 10.7379C270.386 10.7847 270.378 10.8223 270.29 10.8587C270.202 10.8963 270.105 10.8899 269.965 10.847C269.802 10.799 269.609 10.7898 269.376 10.8002C269.147 10.8106 269.007 10.7431 268.818 10.7171C268.629 10.6899 268.405 10.7353 268.207 10.7003C267.741 10.6185 267.741 10.6185 267.425 10.634C267.21 10.6444 266.986 10.6496 266.775 10.6678C266.524 10.6899 266.362 10.6496 266.19 10.6133C266.129 10.6003 266.067 10.5756 266.015 10.5769C265.509 10.5964 265 10.6146 264.499 10.647C264.235 10.6639 264.095 10.6172 263.919 10.5847C263.858 10.573 263.792 10.5496 263.739 10.5522C263.304 10.5704 262.873 10.5938 262.438 10.6159C262.355 10.6509 262.263 10.6847 262.183 10.7223C262.1 10.7613 261.986 10.7782 261.819 10.7769C261.542 10.7769 261.27 10.8314 260.993 10.7626C260.707 10.6925 260.685 10.6964 260.409 10.7132C260.057 10.7353 259.684 10.7301 259.354 10.7808C259.297 10.7899 259.235 10.8145 259.235 10.8327C259.231 10.8444 259.323 10.8613 259.38 10.8717C259.574 10.9028 259.798 10.8574 259.991 10.8898C260.118 10.9106 260.224 10.9418 260.351 10.9639C260.404 10.9729 260.483 10.9717 260.553 10.9704C260.628 10.9691 260.698 10.96 260.769 10.9613C260.835 10.9626 260.905 10.9704 260.958 10.982C261.199 11.0314 261.454 11.0768 261.669 11.1353C261.88 11.1924 262.078 11.1535 262.289 11.1509C263.132 11.2418 263.133 11.2431 263.699 11.2145C263.84 11.208 263.985 11.2002 264.13 11.2015C264.191 11.2015 264.248 11.2249 264.31 11.2379C264.486 11.2768 264.653 11.3119 264.899 11.2911C265.11 11.2729 265.334 11.269 265.549 11.2573C265.839 11.2431 265.839 11.2431 266.331 11.3249C266.454 11.3456 266.586 11.3431 266.744 11.3327C266.88 11.3236 267.021 11.3431 267.117 11.3807C267.157 11.3963 267.144 11.4223 267.157 11.4443C266.722 11.4651 266.283 11.4794 265.861 11.5106C265.589 11.53 265.465 11.4742 265.285 11.4443C265.224 11.4339 265.158 11.4119 265.101 11.4145C264.67 11.434 264.24 11.456 263.809 11.482C263.756 11.4846 263.691 11.5145 263.686 11.5326C263.677 11.5664 263.787 11.5989 263.945 11.5976C264.156 11.5963 264.363 11.5742 264.552 11.6274C264.71 11.6742 264.907 11.695 265.14 11.6742C265.281 11.6625 265.43 11.6625 265.571 11.6521C265.944 11.6209 266.283 11.6274 266.564 11.7157C266.779 11.7391 266.99 11.717 267.197 11.7054C267.35 11.6963 267.5 11.6872 267.61 11.7118C267.842 11.7638 268.071 11.8157 268.392 11.7807C268.739 11.817 269.002 11.8936 269.292 11.956C269.429 11.9858 269.534 12.0027 269.692 11.9832C269.758 11.9755 269.837 11.9754 269.907 11.9715C270.052 11.9651 270.206 11.9456 270.338 11.9534C270.47 11.9625 270.58 12.0001 270.698 12.0235C270.755 12.0352 270.821 12.0547 270.878 12.0534C271.098 12.0469 271.313 12.0339 271.529 12.0235C271.744 12.0144 271.959 12.0053 272.174 11.9962C272.355 12.03 272.539 12.0638 272.719 12.0975C273.009 12.0832 273.299 12.0689 273.585 12.056C273.906 12.0404 273.906 12.0417 274.367 12.1222C274.573 12.1585 274.793 12.1352 274.991 12.1183C275.32 12.091 275.54 12.1404 275.773 12.1923C275.821 12.2027 275.909 12.2092 275.966 12.204C276.195 12.1858 276.392 12.2001 276.559 12.2481C276.678 12.2819 276.797 12.2975 276.942 12.291C277.447 12.2663 277.952 12.2404 278.457 12.2183C278.519 12.2157 278.589 12.2274 278.646 12.2378C279.094 12.317 279.099 12.3209 279.428 12.3001C279.723 12.2819 279.995 12.2741 280.228 12.3455C280.276 12.3611 280.351 12.3832 280.404 12.3819C280.764 12.3689 281.129 12.3546 281.485 12.3326C281.647 12.3222 281.761 12.3261 281.889 12.3559C282.051 12.3936 282.196 12.439 282.464 12.4222C283.207 12.3741 283.211 12.3819 284.09 12.4715C284.151 12.478 284.235 12.4676 284.305 12.4624C284.455 12.4494 284.564 12.4676 284.696 12.4975C284.991 12.565 284.999 12.5611 285.281 12.5468C285.496 12.5351 285.72 12.5325 285.931 12.5131C286.256 12.4845 286.471 12.5351 286.713 12.5832C286.906 12.6208 287.13 12.5897 287.337 12.578C287.561 12.565 287.763 12.5689 287.93 12.6182C288.044 12.652 288.167 12.6702 288.312 12.6637C288.817 12.6403 289.323 12.6143 289.828 12.591C289.889 12.5884 289.964 12.5988 290.021 12.6079C290.522 12.6884 290.522 12.6923 291.019 12.6624C291.177 12.6533 291.309 12.6507 291.427 12.678C291.541 12.7039 291.664 12.7286 291.783 12.7533C291.998 12.7442 292.218 12.7416 292.429 12.726C292.591 12.7143 292.706 12.7195 292.833 12.7468C293 12.7819 293.141 12.8429 293.404 12.813C293.54 12.7987 293.699 12.8026 293.835 12.7897C293.997 12.7728 294.107 12.7832 294.235 12.8169C294.393 12.8572 294.555 12.8987 294.81 12.8779C295.091 12.8546 295.39 12.8507 295.676 12.8325C295.834 12.8221 295.944 12.8325 296.071 12.8663C296.229 12.9091 296.41 12.9364 296.656 12.9195C297.156 12.887 297.161 12.8935 297.648 12.9753C297.771 12.9961 297.903 12.9935 298.061 12.9831C298.198 12.974 298.338 12.9935 298.435 13.0312C298.527 13.0727 298.518 13.0987 298.527 13.1208ZM259.376 1.409C259.231 1.4155 259.086 1.42329 258.875 1.31031C258.862 1.29083 258.871 1.26746 258.84 1.25058C258.77 1.21552 258.66 1.19085 258.528 1.18695C258.291 1.18176 258.005 1.2259 258.01 1.25966C258.014 1.28823 258.089 1.3129 258.234 1.33628C258.295 1.34537 258.344 1.36095 258.401 1.37134C258.568 1.40121 258.699 1.45965 258.941 1.42978C258.897 1.34927 258.919 1.38953 258.941 1.42978C258.919 1.47913 258.985 1.51419 259.143 1.52848C259.187 1.53237 259.253 1.52977 259.288 1.52198C259.424 1.49341 259.446 1.45446 259.345 1.35187C259.328 1.36875 259.341 1.39861 259.38 1.4064C259.42 1.41419 259.517 1.40771 259.565 1.39862C259.688 1.37395 259.749 1.34148 259.719 1.31421C259.701 1.29993 259.618 1.28175 259.565 1.28175C259.473 1.28175 259.389 1.31031 259.376 1.409ZM294.902 16.4685C294.582 16.4932 294.213 16.4841 293.892 16.5347C293.835 16.5438 293.778 16.5672 293.773 16.5854C293.769 16.5971 293.857 16.6139 293.91 16.623C294.028 16.6438 294.16 16.6373 294.314 16.6308C294.547 16.6217 294.683 16.6815 294.863 16.7113C294.92 16.7204 294.995 16.7269 295.056 16.7243C295.412 16.7087 295.764 16.6919 296.119 16.6737C296.181 16.6698 296.247 16.6607 296.3 16.649C296.475 16.6113 296.458 16.5867 296.286 16.5581C296.098 16.5269 295.948 16.475 295.755 16.4503C295.478 16.4152 295.197 16.462 294.902 16.4685ZM269.951 17.4165C269.736 17.4268 269.525 17.4372 269.31 17.4476C269.24 17.4515 269.165 17.4528 269.099 17.458C268.963 17.4671 268.862 17.4944 268.796 17.5372C268.897 17.571 269.02 17.5905 269.156 17.5866C269.371 17.5788 269.582 17.5619 269.798 17.558C270.03 17.5528 270.167 17.6112 270.347 17.6411C270.404 17.6502 270.474 17.6515 270.54 17.6528C270.865 17.658 271.063 17.5905 271.001 17.4957C270.957 17.4216 270.791 17.3775 270.588 17.3866C270.378 17.3957 270.162 17.4061 269.951 17.4165ZM296.405 14.5492C296.458 14.5271 296.515 14.5116 296.541 14.4921C296.62 14.4258 296.59 14.3765 296.445 14.3246C296.269 14.2609 296.054 14.3038 295.856 14.3103C295.808 14.3116 295.755 14.3388 295.728 14.3557C295.711 14.3674 295.711 14.3921 295.737 14.3986C295.953 14.4505 296.181 14.4986 296.405 14.5492ZM258.291 10.7132C258.08 10.7236 257.865 10.7314 257.654 10.7457C257.601 10.7496 257.553 10.7743 257.522 10.7912C257.465 10.8223 257.526 10.8652 257.706 10.8691C257.913 10.8743 258.128 10.8522 258.343 10.8418C258.616 10.8288 258.778 10.7808 258.677 10.7392C258.581 10.699 258.449 10.6912 258.291 10.7132ZM27.0173 7.93821C27.1578 7.93171 27.3028 7.92651 27.4434 7.91742C27.5752 7.90833 27.6764 7.87977 27.7423 7.83691C27.6324 7.80315 27.5094 7.78497 27.3732 7.78887C27.1579 7.79666 26.947 7.80705 26.7361 7.82003C26.6043 7.82782 26.4769 7.85639 26.4462 7.90054C26.4154 7.9343 26.7097 7.95379 27.0173 7.93821ZM239.71 7.73822C239.767 7.74991 239.825 7.77328 239.882 7.77328C240.022 7.77328 240.167 7.76549 240.299 7.7525C240.356 7.74731 240.4 7.72394 240.426 7.70576C240.444 7.69407 240.44 7.6733 240.413 7.66291C240.286 7.60058 239.776 7.62265 239.693 7.69407C239.684 7.70706 239.706 7.72394 239.71 7.73822ZM225.849 0.627262C225.862 0.64804 225.866 0.668814 225.884 0.689591C225.919 0.728548 226.016 0.757122 226.156 0.776601C226.266 0.744137 226.323 0.707783 226.319 0.668826C226.314 0.648048 226.301 0.627258 226.284 0.606481C226.248 0.567524 226.152 0.538966 226.011 0.519487C225.901 0.550653 225.849 0.587007 225.849 0.627262ZM306.559 17.6424C306.519 17.6593 306.479 17.6762 306.436 17.6917C306.554 17.7294 306.664 17.7411 306.748 17.7203C306.8 17.7073 306.831 17.6878 306.871 17.671C306.752 17.6333 306.646 17.6229 306.559 17.6424ZM303.826 17.819C303.883 17.8307 303.936 17.8463 303.997 17.8541C304.098 17.8671 304.19 17.845 304.261 17.7982C304.204 17.7865 304.151 17.7709 304.089 17.7632C303.988 17.7502 303.896 17.7723 303.826 17.819ZM305.557 17.5814C305.526 17.6125 305.588 17.6385 305.75 17.6606C305.79 17.6437 305.842 17.6281 305.869 17.6099C305.913 17.5801 305.838 17.5528 305.68 17.532C305.636 17.5476 305.596 17.5645 305.557 17.5814ZM296.282 16.1815C296.251 16.2127 296.313 16.2386 296.475 16.2607C296.515 16.2438 296.568 16.2283 296.594 16.2101C296.638 16.1802 296.563 16.1529 296.405 16.1322C296.361 16.1477 296.322 16.1646 296.282 16.1815ZM283.646 6.99284C283.607 7.00973 283.567 7.02661 283.523 7.04219C283.642 7.07985 283.752 7.09153 283.835 7.07076C283.888 7.05777 283.919 7.03829 283.958 7.02141C283.839 6.98375 283.734 6.97337 283.646 6.99284ZM271.542 2.11802C271.647 2.12711 271.735 2.10893 271.81 2.06089C271.753 2.0492 271.7 2.03361 271.638 2.02582C271.537 2.01284 271.445 2.03492 271.375 2.08167C271.432 2.09465 271.489 2.10633 271.542 2.11802ZM265.114 1.81286C265.074 1.82974 265.035 1.84662 264.991 1.8622C265.11 1.89986 265.219 1.91154 265.303 1.89077C265.356 1.87778 265.386 1.8583 265.426 1.84142C265.307 1.80376 265.202 1.79468 265.114 1.81286ZM221.525 0.625963C221.486 0.642844 221.446 0.659726 221.402 0.675309C221.521 0.712967 221.631 0.724651 221.714 0.703874C221.767 0.690888 221.798 0.671409 221.837 0.654527C221.719 0.616869 221.613 0.607783 221.525 0.625963ZM4.48698 11.1911C4.42986 11.1794 4.3728 11.1677 4.32007 11.1548C4.19266 11.1898 4.15313 11.2223 4.22343 11.247C4.26736 11.2625 4.33322 11.2716 4.39033 11.2833C4.52214 11.2483 4.55288 11.2171 4.48698 11.1911Z" fill="#FFE492"/>
<path d="M29.9688 6.6057C29.4636 6.63038 28.9627 6.66153 28.4575 6.67712C28.1895 6.68491 28.0929 6.74075 27.983 6.79269C27.8952 6.83424 27.7941 6.84723 27.6315 6.85502C26.2607 6.91865 24.8943 6.98618 23.5279 7.0524C23.3565 7.03552 23.2731 7.00826 23.3126 6.97579C23.3346 6.95631 23.3873 6.92904 23.44 6.92645C24.3759 6.8784 25.3073 6.82905 26.2475 6.79139C26.5155 6.781 26.5902 6.72386 26.7264 6.67712C26.7704 6.66153 26.8055 6.63816 26.8626 6.62907C26.9198 6.61868 27.0032 6.61998 27.0779 6.61739C28.5893 6.54337 30.1007 6.47066 31.6121 6.39664C31.7835 6.41352 31.8669 6.44078 31.8274 6.47325C31.8054 6.49273 31.7527 6.52 31.7 6.52259C31.12 6.54986 30.5444 6.57714 29.9688 6.6057Z" fill="#FFE492"/>
<path d="M306.616 13.5208C306.388 13.5364 306.098 13.5585 305.86 13.4832C305.746 13.4468 305.623 13.4351 305.474 13.4429C305.259 13.4559 305.039 13.4663 304.819 13.4741C304.762 13.4754 304.687 13.4611 304.63 13.4494C304.507 13.426 304.402 13.3871 304.27 13.3767C304.138 13.3663 303.98 13.3949 303.844 13.3884C303.664 13.3793 303.589 13.3442 303.637 13.3118C303.664 13.2936 303.716 13.2676 303.774 13.2637C304.586 13.2157 304.591 13.2157 304.819 13.2624C304.995 13.2988 305.157 13.339 305.408 13.3169C305.619 13.2988 305.843 13.2949 306.058 13.2832C306.357 13.2676 306.357 13.2689 306.84 13.3507C306.963 13.3715 307.095 13.3702 307.253 13.3585C307.389 13.3494 307.521 13.3702 307.631 13.4052C307.561 13.4494 307.46 13.478 307.323 13.4858C307.104 13.4987 306.889 13.5078 306.616 13.5208Z" fill="#FFE492"/>
<path d="M298.528 13.1207C299.081 13.0935 299.639 13.0701 300.193 13.0389C300.421 13.026 300.602 13.0402 300.76 13.0844C300.931 13.1324 301.124 13.1285 301.335 13.1194C301.467 13.1143 301.595 13.135 301.682 13.1714C301.718 13.1857 301.709 13.2116 301.722 13.2324C301.239 13.2558 300.751 13.2805 300.263 13.3012C300.206 13.3038 300.136 13.2909 300.083 13.2805C299.964 13.2584 299.863 13.2194 299.736 13.2116C299.464 13.1935 299.191 13.2285 298.914 13.235C298.783 13.2376 298.655 13.2181 298.567 13.1831C298.532 13.1662 298.541 13.1415 298.528 13.1207Z" fill="#FFE492"/>
<path d="M98.4661 1.95558C99.0417 1.92701 99.6172 1.89975 100.193 1.87119C100.364 1.88937 100.443 1.91533 100.408 1.9478C100.386 1.96727 100.333 1.99455 100.281 1.99714C99.1295 2.05558 97.9784 2.11141 96.8317 2.16725C96.6604 2.14907 96.5813 2.1231 96.6164 2.09064C96.6384 2.07116 96.6911 2.04389 96.7439 2.04129C97.315 2.01142 97.8906 1.98415 98.4661 1.95558Z" fill="#FFE492"/>
<path d="M9.77795 9.17187C9.51873 9.17447 9.24638 9.22251 8.95641 9.18615C8.89929 9.17966 8.82018 9.15888 8.82458 9.14719C8.83336 9.12771 8.8861 9.10304 8.94321 9.09524C9.19365 9.06278 9.50562 9.05889 9.63303 8.96799C9.69454 8.92124 9.80878 8.90567 9.96255 8.89658C10.1251 8.88619 10.2393 8.89007 10.3667 8.91734C10.5337 8.9524 10.6743 9.01733 10.9379 8.98357C10.9511 9.00435 10.9818 9.02772 10.9686 9.0472C10.9554 9.06668 10.8984 9.08486 10.8457 9.09914C10.7973 9.11213 10.7314 9.12381 10.6699 9.12771C10.3799 9.14329 10.0899 9.15629 9.77795 9.17187Z" fill="#FFE492"/>
<path d="M238.278 8.91108C238.494 8.90069 238.718 8.89549 238.928 8.87731C239.095 8.86303 239.201 8.87211 239.333 8.90328C239.557 8.95782 239.57 8.95263 240.119 8.96042C240.181 8.96172 240.255 8.98119 240.291 8.99807C240.312 9.00716 240.282 9.03185 240.255 9.04483C240.216 9.06172 240.159 9.08378 240.106 9.08378C239.759 9.08768 239.407 9.1643 239.069 9.076C238.898 9.03185 238.709 9.01106 238.476 9.03054C238.335 9.04222 238.186 9.04742 238.041 9.05262C237.9 9.05781 237.755 9.04353 237.668 9.00457C237.54 8.94743 237.615 8.92536 237.843 8.92926C237.988 8.93186 238.133 8.91757 238.278 8.91108Z" fill="#FFE492"/>
<path d="M317.907 17.8619C318.184 17.8489 318.461 17.8333 318.742 17.8229C318.799 17.8203 318.87 17.8346 318.922 17.8437C319.133 17.8827 319.102 17.9489 319.111 18.0073C319.116 18.0683 318.628 18.1177 318.421 18.0761C318.193 18.0294 317.986 17.9761 317.67 18.0047C317.547 18.0151 317.402 17.9917 317.323 17.9541C317.204 17.8995 317.27 17.8774 317.494 17.8813C317.626 17.8839 317.767 17.8697 317.907 17.8619Z" fill="#FFE492"/>
<path d="M178.42 0.187075C178.706 0.172791 178.991 0.150726 179.277 0.149428C179.444 0.148129 179.527 0.190974 179.488 0.222139C179.466 0.241618 179.413 0.268888 179.36 0.271485C178.789 0.302651 178.218 0.328627 177.647 0.357195C177.48 0.339015 177.397 0.31175 177.436 0.280584C177.458 0.261106 177.511 0.235134 177.564 0.231238C177.849 0.213058 178.135 0.20136 178.42 0.187075Z" fill="#FFE492"/>
<path d="M312.428 13.635C312.705 13.622 312.986 13.6025 313.263 13.596C313.408 13.5934 313.522 13.6233 313.54 13.657C313.548 13.6726 313.478 13.6999 313.421 13.7064C313.026 13.7505 312.599 13.7557 312.186 13.7778C312.055 13.7843 311.914 13.7635 311.835 13.7272C311.716 13.6713 311.782 13.6505 312.006 13.6544C312.147 13.6557 312.288 13.6415 312.428 13.635Z" fill="#FFE492"/>
<path d="M245.536 9.0863C245.676 9.07981 245.821 9.06292 245.957 9.06812C246.102 9.07461 246.195 9.11227 246.239 9.14993C246.287 9.19278 246.283 9.23304 246.239 9.2694C246.168 9.33173 246.098 9.32914 245.936 9.28758C245.685 9.22265 245.668 9.23044 245.171 9.23304C245.114 9.23304 245.044 9.21355 245 9.19667C244.934 9.1707 244.969 9.13045 245.123 9.10708C245.237 9.0902 245.395 9.09279 245.536 9.0863Z" fill="#FFE492"/>
<path d="M302.134 13.2091C302.341 13.1987 302.547 13.1818 302.754 13.1818C302.899 13.1805 303.013 13.2104 303.026 13.2428C303.031 13.2584 302.965 13.2844 302.912 13.2922C302.662 13.3273 302.38 13.3299 302.108 13.3415C301.981 13.3467 301.84 13.326 301.761 13.2896C301.642 13.2351 301.713 13.2104 301.928 13.2182C301.994 13.2208 302.064 13.213 302.134 13.2091Z" fill="#FFE492"/>
<path d="M269.635 11.6159C269.328 11.6314 269.038 11.612 269.06 11.5782C269.091 11.5341 269.218 11.5055 269.35 11.4977C269.561 11.4847 269.771 11.4743 269.987 11.4665C270.123 11.4613 270.246 11.4808 270.356 11.5146C270.29 11.5561 270.189 11.586 270.057 11.5951C269.921 11.6042 269.776 11.6094 269.635 11.6159Z" fill="#FFE492"/>
<path d="M267.617 11.4496C267.824 11.4392 268.03 11.4224 268.237 11.4224C268.382 11.4211 268.496 11.4509 268.509 11.4834C268.513 11.499 268.447 11.5249 268.395 11.5327C268.144 11.5678 267.863 11.5704 267.591 11.5821C267.463 11.5873 267.323 11.5665 267.244 11.5301C267.125 11.4756 267.195 11.4509 267.411 11.4587C267.477 11.4613 267.547 11.4535 267.617 11.4496Z" fill="#FFE492"/>
<path d="M243.046 9.07589C243.252 9.0655 243.459 9.04861 243.665 9.04731C243.81 9.04601 243.924 9.07589 243.938 9.10836C243.942 9.12394 243.876 9.14861 243.823 9.1577C243.573 9.19276 243.292 9.19536 243.019 9.20705C242.892 9.21224 242.751 9.19146 242.672 9.1551C242.554 9.10056 242.624 9.07588 242.839 9.08368C242.905 9.08627 242.976 9.07849 243.046 9.07589Z" fill="#FFE492"/>
<path d="M241.889 8.99914C242.108 8.98875 242.179 8.98225 242.249 8.98225C242.381 8.98225 242.517 8.99784 242.596 9.0355C242.715 9.09004 242.644 9.10563 242.429 9.10823C242.152 9.11082 241.88 9.1381 241.603 9.14329C241.458 9.14589 241.344 9.11471 241.335 9.08225C241.331 9.06666 241.397 9.03939 241.449 9.0342C241.634 9.01472 241.836 9.00303 241.889 8.99914Z" fill="#FFE492"/>
<path d="M265.829 1.35968C265.689 1.36617 265.539 1.38436 265.408 1.37786C265.232 1.36877 265.161 1.33372 265.205 1.30125C265.232 1.28307 265.28 1.2571 265.333 1.25321C265.614 1.23503 265.9 1.22333 266.181 1.21034C266.348 1.22982 266.422 1.25709 266.378 1.28955C266.352 1.30773 266.304 1.33241 266.251 1.3376C266.115 1.35059 265.97 1.35319 265.829 1.35968Z" fill="#FFE492"/>
<path d="M95.3152 2.10886C95.4514 2.10757 95.5744 2.12445 95.6798 2.15691C95.6139 2.19847 95.5173 2.22573 95.3855 2.23742C95.3196 2.24262 95.2449 2.24651 95.1746 2.2478C95.0384 2.2504 94.9154 2.23222 94.8099 2.19976C94.8758 2.1582 94.9768 2.13093 95.1042 2.11925C95.1701 2.11405 95.2449 2.11276 95.3152 2.10886Z" fill="#FFE492"/>
<path d="M310.927 13.6299C310.922 13.5923 311.19 13.5494 311.432 13.5507C311.559 13.552 311.691 13.5702 311.766 13.6053C311.88 13.6585 311.814 13.6793 311.599 13.6754C311.467 13.6728 311.326 13.6949 311.195 13.691C311.045 13.6897 310.957 13.6611 310.927 13.6299Z" fill="#FFE492"/>
<path d="M246.809 9.24329C246.805 9.22901 246.783 9.21213 246.796 9.19915C246.879 9.12773 247.385 9.10565 247.516 9.16798C247.538 9.17967 247.547 9.19914 247.53 9.21083C247.503 9.22901 247.455 9.25238 247.402 9.25758C247.266 9.27056 247.125 9.27706 246.985 9.27836C246.923 9.27836 246.866 9.25628 246.809 9.24329Z" fill="#FFE492"/>
<path d="M11.3407 8.96412C10.8223 8.99139 10.8135 8.98878 10.9057 8.92385C10.9892 8.86542 11.143 8.83036 11.3671 8.83036C11.433 8.83036 11.5033 8.82777 11.5604 8.83296C11.6219 8.83945 11.7098 8.85242 11.723 8.86801C11.7494 8.89787 11.6746 8.93034 11.5428 8.95242C11.4857 8.96281 11.411 8.96022 11.3407 8.96412Z" fill="#FFE492"/>
<path d="M101.806 1.92597C101.652 1.94805 101.52 1.94026 101.424 1.89871C101.327 1.85715 101.481 1.8078 101.749 1.79611C101.819 1.79352 101.894 1.78314 101.96 1.78833C102.026 1.79223 102.092 1.8078 102.131 1.82338C102.201 1.84935 102.157 1.88442 102.017 1.91429C101.96 1.92598 101.876 1.92337 101.806 1.92597Z" fill="#FFE492"/>
<path d="M310.011 13.5322C310.051 13.5153 310.091 13.4984 310.135 13.4828C310.298 13.5049 310.368 13.5309 310.324 13.5607C310.298 13.5789 310.245 13.5945 310.205 13.6114C310.042 13.5893 309.976 13.562 310.011 13.5322Z" fill="#FFE492"/>
<path d="M18.2995 23.747C18.2995 23.7314 18.361 23.7067 18.4094 23.7016C18.5016 23.6925 18.6158 23.7106 18.6949 23.747C18.8047 23.7989 18.7389 23.8262 18.5368 23.8119C18.3962 23.8015 18.2995 23.7756 18.2995 23.747Z" fill="#FFE492"/>
<path d="M248.6 8.03432C248.657 8.04601 248.714 8.0577 248.767 8.07068C248.692 8.11873 248.6 8.1395 248.503 8.12651C248.442 8.11872 248.389 8.10314 248.332 8.09145C248.406 8.0434 248.494 8.02523 248.6 8.03432Z" fill="#FFE492"/>
<path d="M247.078 7.97579C247.166 7.95631 247.272 7.96671 247.395 8.00437C247.355 8.02125 247.32 8.04073 247.272 8.05371C247.188 8.07449 247.078 8.06409 246.96 8.02513C246.995 8.00955 247.034 7.99267 247.078 7.97579Z" fill="#FFE492"/>
<path d="M245.912 8.03282C245.969 8.04451 246.027 8.0562 246.079 8.06919C246.005 8.11723 245.917 8.138 245.816 8.12502C245.754 8.11722 245.701 8.10164 245.644 8.08995C245.719 8.04191 245.807 8.02243 245.912 8.03282Z" fill="#FFE492"/>
<path d="M245.059 7.96407C245.125 7.99004 245.09 8.0212 244.962 8.05626C244.905 8.04457 244.839 8.0355 244.795 8.01991C244.724 7.99524 244.759 7.96277 244.891 7.9277C244.944 7.94069 245.002 7.95238 245.059 7.96407Z" fill="#FFE492"/>
</svg>
