<svg xmlns="http://www.w3.org/2000/svg" xmlns:xlink="http://www.w3.org/1999/xlink" width="500" zoomAndPan="magnify" viewBox="0 0 375 374.999991" height="500" preserveAspectRatio="xMidYMid meet" version="1.0"><defs><g/><clipPath id="abee33a996"><path d="M 29.503906 18.75 L 345.496094 18.75 L 345.496094 356.25 L 29.503906 356.25 Z M 29.503906 18.75 " clip-rule="nonzero"/></clipPath><clipPath id="0683ffa61c"><path d="M 46.753906 18.75 L 328.246094 18.75 C 332.820312 18.75 337.207031 20.566406 340.445312 23.800781 C 343.679688 27.039062 345.496094 31.425781 345.496094 36 L 345.496094 339 C 345.496094 343.574219 343.679688 347.960938 340.445312 351.199219 C 337.207031 354.433594 332.820312 356.25 328.246094 356.25 L 46.753906 356.25 C 42.179688 356.25 37.792969 354.433594 34.554688 351.199219 C 31.320312 347.960938 29.503906 343.574219 29.503906 339 L 29.503906 36 C 29.503906 31.425781 31.320312 27.039062 34.554688 23.800781 C 37.792969 20.566406 42.179688 18.75 46.753906 18.75 Z M 46.753906 18.75 " clip-rule="nonzero"/></clipPath><linearGradient x1="-0.000000324376" gradientTransform="matrix(1.234346, 0, 0, 1.318359, 29.503679, 18.75)" y1="-0.000000324376" x2="255.999997" gradientUnits="userSpaceOnUse" y2="255.999997" id="d51f3e63b1"><stop stop-opacity="1" stop-color="rgb(100%, 92.498779%, 65.899658%)" offset="0"/><stop stop-opacity="1" stop-color="rgb(100%, 92.425537%, 65.705872%)" offset="0.0078125"/><stop stop-opacity="1" stop-color="rgb(100%, 92.279053%, 65.319824%)" offset="0.015625"/><stop stop-opacity="1" stop-color="rgb(100%, 92.132568%, 64.933777%)" offset="0.0234375"/><stop stop-opacity="1" stop-color="rgb(100%, 91.984558%, 64.547729%)" offset="0.03125"/><stop stop-opacity="1" stop-color="rgb(100%, 91.838074%, 64.161682%)" offset="0.0390625"/><stop stop-opacity="1" stop-color="rgb(100%, 91.691589%, 63.775635%)" offset="0.046875"/><stop stop-opacity="1" stop-color="rgb(100%, 91.545105%, 63.389587%)" offset="0.0546875"/><stop stop-opacity="1" stop-color="rgb(100%, 91.397095%, 63.00354%)" offset="0.0625"/><stop stop-opacity="1" stop-color="rgb(100%, 91.25061%, 62.617493%)" offset="0.0703125"/><stop stop-opacity="1" stop-color="rgb(100%, 91.104126%, 62.231445%)" offset="0.078125"/><stop stop-opacity="1" stop-color="rgb(100%, 90.956116%, 61.846924%)" offset="0.0859375"/><stop stop-opacity="1" stop-color="rgb(100%, 90.809631%, 61.460876%)" offset="0.09375"/><stop stop-opacity="1" stop-color="rgb(100%, 90.663147%, 61.074829%)" offset="0.101562"/><stop stop-opacity="1" stop-color="rgb(100%, 90.516663%, 60.688782%)" offset="0.109375"/><stop stop-opacity="1" stop-color="rgb(100%, 90.368652%, 60.302734%)" offset="0.117188"/><stop stop-opacity="1" stop-color="rgb(100%, 90.222168%, 59.916687%)" offset="0.125"/><stop stop-opacity="1" stop-color="rgb(100%, 90.075684%, 59.53064%)" offset="0.132812"/><stop stop-opacity="1" stop-color="rgb(100%, 89.929199%, 59.144592%)" offset="0.140625"/><stop stop-opacity="1" stop-color="rgb(100%, 89.781189%, 58.758545%)" offset="0.148438"/><stop stop-opacity="1" stop-color="rgb(100%, 89.634705%, 58.372498%)" offset="0.15625"/><stop stop-opacity="1" stop-color="rgb(100%, 89.48822%, 57.98645%)" offset="0.164062"/><stop stop-opacity="1" stop-color="rgb(100%, 89.341736%, 57.600403%)" offset="0.171875"/><stop stop-opacity="1" stop-color="rgb(100%, 89.193726%, 57.214355%)" offset="0.179688"/><stop stop-opacity="1" stop-color="rgb(100%, 89.047241%, 56.828308%)" offset="0.1875"/><stop stop-opacity="1" stop-color="rgb(100%, 88.900757%, 56.443787%)" offset="0.195312"/><stop stop-opacity="1" stop-color="rgb(100%, 88.754272%, 56.057739%)" offset="0.203125"/><stop stop-opacity="1" stop-color="rgb(100%, 88.606262%, 55.671692%)" offset="0.210938"/><stop stop-opacity="1" stop-color="rgb(100%, 88.459778%, 55.285645%)" offset="0.21875"/><stop stop-opacity="1" stop-color="rgb(100%, 88.313293%, 54.899597%)" offset="0.226562"/><stop stop-opacity="1" stop-color="rgb(100%, 88.166809%, 54.51355%)" offset="0.234375"/><stop stop-opacity="1" stop-color="rgb(100%, 88.018799%, 54.127502%)" offset="0.242188"/><stop stop-opacity="1" stop-color="rgb(100%, 87.872314%, 53.741455%)" offset="0.25"/><stop stop-opacity="1" stop-color="rgb(100%, 87.72583%, 53.355408%)" offset="0.257813"/><stop stop-opacity="1" stop-color="rgb(100%, 87.579346%, 52.96936%)" offset="0.265625"/><stop stop-opacity="1" stop-color="rgb(100%, 87.431335%, 52.583313%)" offset="0.273438"/><stop stop-opacity="1" stop-color="rgb(100%, 87.284851%, 52.197266%)" offset="0.28125"/><stop stop-opacity="1" stop-color="rgb(100%, 87.138367%, 51.811218%)" offset="0.289063"/><stop stop-opacity="1" stop-color="rgb(100%, 86.991882%, 51.425171%)" offset="0.296875"/><stop stop-opacity="1" stop-color="rgb(100%, 86.843872%, 51.040649%)" offset="0.304688"/><stop stop-opacity="1" stop-color="rgb(100%, 86.697388%, 50.654602%)" offset="0.3125"/><stop stop-opacity="1" stop-color="rgb(100%, 86.550903%, 50.268555%)" offset="0.320313"/><stop stop-opacity="1" stop-color="rgb(100%, 86.404419%, 49.882507%)" offset="0.328125"/><stop stop-opacity="1" stop-color="rgb(100%, 86.256409%, 49.49646%)" offset="0.335938"/><stop stop-opacity="1" stop-color="rgb(100%, 86.109924%, 49.110413%)" offset="0.34375"/><stop stop-opacity="1" stop-color="rgb(100%, 85.96344%, 48.724365%)" offset="0.351563"/><stop stop-opacity="1" stop-color="rgb(100%, 85.816956%, 48.338318%)" offset="0.359375"/><stop stop-opacity="1" stop-color="rgb(100%, 85.668945%, 47.952271%)" offset="0.367188"/><stop stop-opacity="1" stop-color="rgb(100%, 85.522461%, 47.566223%)" offset="0.375"/><stop stop-opacity="1" stop-color="rgb(100%, 85.375977%, 47.180176%)" offset="0.382813"/><stop stop-opacity="1" stop-color="rgb(100%, 85.229492%, 46.794128%)" offset="0.390625"/><stop stop-opacity="1" stop-color="rgb(100%, 85.081482%, 46.408081%)" offset="0.398438"/><stop stop-opacity="1" stop-color="rgb(100%, 84.934998%, 46.022034%)" offset="0.40625"/><stop stop-opacity="1" stop-color="rgb(100%, 84.788513%, 45.637512%)" offset="0.414063"/><stop stop-opacity="1" stop-color="rgb(100%, 84.640503%, 45.251465%)" offset="0.421875"/><stop stop-opacity="1" stop-color="rgb(100%, 84.494019%, 44.865417%)" offset="0.429688"/><stop stop-opacity="1" stop-color="rgb(100%, 84.347534%, 44.47937%)" offset="0.4375"/><stop stop-opacity="1" stop-color="rgb(100%, 84.20105%, 44.093323%)" offset="0.445313"/><stop stop-opacity="1" stop-color="rgb(100%, 84.05304%, 43.707275%)" offset="0.453125"/><stop stop-opacity="1" stop-color="rgb(100%, 83.906555%, 43.321228%)" offset="0.460938"/><stop stop-opacity="1" stop-color="rgb(100%, 83.760071%, 42.935181%)" offset="0.46875"/><stop stop-opacity="1" stop-color="rgb(100%, 83.613586%, 42.549133%)" offset="0.476563"/><stop stop-opacity="1" stop-color="rgb(100%, 83.465576%, 42.163086%)" offset="0.484375"/><stop stop-opacity="1" stop-color="rgb(100%, 83.319092%, 41.777039%)" offset="0.492188"/><stop stop-opacity="1" stop-color="rgb(100%, 83.172607%, 41.390991%)" offset="0.5"/><stop stop-opacity="1" stop-color="rgb(100%, 83.099365%, 41.19873%)" offset="0.5"/><stop stop-opacity="1" stop-color="rgb(100%, 83.026123%, 41.004944%)" offset="0.5"/><stop stop-opacity="1" stop-color="rgb(100%, 82.952881%, 40.812683%)" offset="0.507812"/><stop stop-opacity="1" stop-color="rgb(100%, 82.878113%, 40.618896%)" offset="0.515625"/><stop stop-opacity="1" stop-color="rgb(100%, 82.731628%, 40.234375%)" offset="0.523438"/><stop stop-opacity="1" stop-color="rgb(100%, 82.585144%, 39.848328%)" offset="0.53125"/><stop stop-opacity="1" stop-color="rgb(100%, 82.43866%, 39.46228%)" offset="0.539063"/><stop stop-opacity="1" stop-color="rgb(100%, 82.290649%, 39.076233%)" offset="0.546875"/><stop stop-opacity="1" stop-color="rgb(100%, 82.144165%, 38.690186%)" offset="0.554688"/><stop stop-opacity="1" stop-color="rgb(100%, 81.997681%, 38.304138%)" offset="0.5625"/><stop stop-opacity="1" stop-color="rgb(100%, 81.851196%, 37.918091%)" offset="0.570313"/><stop stop-opacity="1" stop-color="rgb(100%, 81.703186%, 37.532043%)" offset="0.578125"/><stop stop-opacity="1" stop-color="rgb(100%, 81.556702%, 37.145996%)" offset="0.585938"/><stop stop-opacity="1" stop-color="rgb(100%, 81.410217%, 36.759949%)" offset="0.59375"/><stop stop-opacity="1" stop-color="rgb(100%, 81.263733%, 36.373901%)" offset="0.601563"/><stop stop-opacity="1" stop-color="rgb(100%, 81.115723%, 35.987854%)" offset="0.609375"/><stop stop-opacity="1" stop-color="rgb(100%, 80.969238%, 35.601807%)" offset="0.617188"/><stop stop-opacity="1" stop-color="rgb(100%, 80.822754%, 35.215759%)" offset="0.625"/><stop stop-opacity="1" stop-color="rgb(100%, 80.67627%, 34.831238%)" offset="0.632813"/><stop stop-opacity="1" stop-color="rgb(100%, 80.528259%, 34.44519%)" offset="0.640625"/><stop stop-opacity="1" stop-color="rgb(100%, 80.381775%, 34.059143%)" offset="0.648438"/><stop stop-opacity="1" stop-color="rgb(100%, 80.235291%, 33.673096%)" offset="0.65625"/><stop stop-opacity="1" stop-color="rgb(100%, 80.088806%, 33.287048%)" offset="0.664063"/><stop stop-opacity="1" stop-color="rgb(100%, 79.940796%, 32.901001%)" offset="0.671875"/><stop stop-opacity="1" stop-color="rgb(100%, 79.794312%, 32.514954%)" offset="0.679688"/><stop stop-opacity="1" stop-color="rgb(100%, 79.647827%, 32.128906%)" offset="0.6875"/><stop stop-opacity="1" stop-color="rgb(100%, 79.501343%, 31.742859%)" offset="0.695313"/><stop stop-opacity="1" stop-color="rgb(100%, 79.353333%, 31.356812%)" offset="0.703125"/><stop stop-opacity="1" stop-color="rgb(100%, 79.206848%, 30.970764%)" offset="0.710938"/><stop stop-opacity="1" stop-color="rgb(100%, 79.060364%, 30.584717%)" offset="0.71875"/><stop stop-opacity="1" stop-color="rgb(100%, 78.912354%, 30.198669%)" offset="0.726563"/><stop stop-opacity="1" stop-color="rgb(100%, 78.765869%, 29.812622%)" offset="0.734375"/><stop stop-opacity="1" stop-color="rgb(100%, 78.619385%, 29.428101%)" offset="0.742188"/><stop stop-opacity="1" stop-color="rgb(100%, 78.4729%, 29.042053%)" offset="0.75"/><stop stop-opacity="1" stop-color="rgb(100%, 78.32489%, 28.656006%)" offset="0.757812"/><stop stop-opacity="1" stop-color="rgb(100%, 78.178406%, 28.269958%)" offset="0.765625"/><stop stop-opacity="1" stop-color="rgb(100%, 78.031921%, 27.883911%)" offset="0.773438"/><stop stop-opacity="1" stop-color="rgb(100%, 77.885437%, 27.497864%)" offset="0.78125"/><stop stop-opacity="1" stop-color="rgb(100%, 77.737427%, 27.111816%)" offset="0.789062"/><stop stop-opacity="1" stop-color="rgb(100%, 77.590942%, 26.725769%)" offset="0.796875"/><stop stop-opacity="1" stop-color="rgb(100%, 77.444458%, 26.339722%)" offset="0.804688"/><stop stop-opacity="1" stop-color="rgb(100%, 77.297974%, 25.953674%)" offset="0.8125"/><stop stop-opacity="1" stop-color="rgb(100%, 77.149963%, 25.567627%)" offset="0.820312"/><stop stop-opacity="1" stop-color="rgb(100%, 77.003479%, 25.18158%)" offset="0.828125"/><stop stop-opacity="1" stop-color="rgb(100%, 76.856995%, 24.795532%)" offset="0.835938"/><stop stop-opacity="1" stop-color="rgb(100%, 76.71051%, 24.411011%)" offset="0.84375"/><stop stop-opacity="1" stop-color="rgb(100%, 76.5625%, 24.024963%)" offset="0.851562"/><stop stop-opacity="1" stop-color="rgb(100%, 76.416016%, 23.638916%)" offset="0.859375"/><stop stop-opacity="1" stop-color="rgb(100%, 76.269531%, 23.252869%)" offset="0.867188"/><stop stop-opacity="1" stop-color="rgb(100%, 76.123047%, 22.866821%)" offset="0.875"/><stop stop-opacity="1" stop-color="rgb(100%, 75.975037%, 22.480774%)" offset="0.882812"/><stop stop-opacity="1" stop-color="rgb(100%, 75.828552%, 22.094727%)" offset="0.890625"/><stop stop-opacity="1" stop-color="rgb(100%, 75.682068%, 21.708679%)" offset="0.898438"/><stop stop-opacity="1" stop-color="rgb(100%, 75.535583%, 21.322632%)" offset="0.90625"/><stop stop-opacity="1" stop-color="rgb(100%, 75.387573%, 20.936584%)" offset="0.914062"/><stop stop-opacity="1" stop-color="rgb(100%, 75.241089%, 20.550537%)" offset="0.921875"/><stop stop-opacity="1" stop-color="rgb(100%, 75.094604%, 20.16449%)" offset="0.929688"/><stop stop-opacity="1" stop-color="rgb(100%, 74.94812%, 19.778442%)" offset="0.9375"/><stop stop-opacity="1" stop-color="rgb(100%, 74.80011%, 19.392395%)" offset="0.945312"/><stop stop-opacity="1" stop-color="rgb(100%, 74.653625%, 19.007874%)" offset="0.953125"/><stop stop-opacity="1" stop-color="rgb(100%, 74.507141%, 18.621826%)" offset="0.960938"/><stop stop-opacity="1" stop-color="rgb(100%, 74.360657%, 18.235779%)" offset="0.96875"/><stop stop-opacity="1" stop-color="rgb(100%, 74.212646%, 17.849731%)" offset="0.976562"/><stop stop-opacity="1" stop-color="rgb(100%, 74.066162%, 17.463684%)" offset="0.984375"/><stop stop-opacity="1" stop-color="rgb(100%, 73.919678%, 17.077637%)" offset="0.992188"/><stop stop-opacity="1" stop-color="rgb(100%, 73.773193%, 16.691589%)" offset="1"/></linearGradient></defs><g clip-path="url(#abee33a996)"><g clip-path="url(#0683ffa61c)"><path fill="url(#d51f3e63b1)" d="M 29.503906 18.75 L 29.503906 356.25 L 345.496094 356.25 L 345.496094 18.75 Z M 29.503906 18.75 " fill-rule="nonzero"/></g></g><g fill="#364f6b" fill-opacity="1"><g transform="translate(90.671873, 290.955669)"><g><path d="M 148.828125 -86.425781 L 147.507812 -208.738281 L 147.363281 -208.59375 L 147.363281 -208.738281 C 143.847656 -208.007812 140.769531 -207.566406 138.132812 -207.421875 C 132.714844 -207.273438 128.320312 -207.714844 124.363281 -208.886719 C 122.3125 -209.324219 120.261719 -209.910156 118.066406 -210.351562 C 113.671875 -211.375 108.542969 -212.253906 101.953125 -212.253906 C 94.921875 -212.253906 90.378906 -210.9375 85.839844 -207.421875 C 81.296875 -203.757812 77.050781 -197.898438 71.042969 -188.671875 L 0.878906 -86.425781 C -1.902344 -82.324219 -4.832031 -76.464844 -4.832031 -71.335938 C -4.832031 -64.304688 -2.929688 -61.082031 -1.316406 -58.300781 C 0.292969 -55.515625 1.464844 -52.878906 -0.144531 -47.460938 C 8.203125 -46.726562 21.824219 -46.140625 37.792969 -45.703125 C 53.613281 -45.261719 71.777344 -45.261719 89.941406 -45.261719 C 89.355469 -29.882812 88.621094 -16.84375 87.597656 -9.082031 C 88.769531 -6.296875 92.722656 -2.929688 97.703125 -0.144531 C 102.683594 2.636719 108.835938 4.6875 114.84375 4.6875 C 131.980469 4.6875 140.769531 1.464844 145.164062 -4.980469 C 149.558594 -11.277344 149.558594 -20.652344 149.414062 -33.398438 L 149.265625 -46.140625 C 157.03125 -46.289062 163.621094 -46.582031 169.042969 -47.019531 C 174.460938 -47.3125 178.125 -47.605469 180.175781 -48.046875 L 180.90625 -88.328125 C 171.972656 -87.597656 161.132812 -86.863281 148.828125 -86.425781 Z M 90.964844 -117.480469 C 90.964844 -106.933594 90.820312 -96.238281 90.671875 -85.398438 C 76.464844 -85.253906 62.546875 -85.253906 48.925781 -85.398438 C 51.121094 -88.769531 53.757812 -92.578125 56.835938 -97.117188 C 59.910156 -101.660156 63.28125 -106.492188 66.941406 -111.765625 L 78.515625 -128.464844 C 82.46875 -134.324219 86.71875 -140.183594 90.964844 -146.191406 Z M 90.964844 -117.480469 "/></g></g></g><g fill="#545454" fill-opacity="1"><g transform="translate(243.861059, 192.033807)"><g><path d="M 14.273438 0.714844 C 19.640625 0.714844 23.183594 -0.734375 25.398438 -3.113281 C 27.601562 -5.492188 28.441406 -8.78125 28.441406 -12.503906 C 28.441406 -13.664062 28.367188 -15.382812 28.242188 -17.117188 C 28.101562 -18.851562 27.902344 -20.589844 27.671875 -21.785156 C 27.261719 -23.648438 26.742188 -24.59375 25.902344 -25.078125 C 25.042969 -25.5625 23.898438 -25.542969 22.269531 -25.542969 C 20.765625 -25.523438 20.160156 -25.058594 19.996094 -24.148438 C 19.835938 -23.234375 20.140625 -21.859375 20.5 -19.996094 L 20.625 -18.976562 C 20.714844 -18.121094 20.820312 -17.082031 20.910156 -16.027344 C 20.980469 -14.953125 21.070312 -14.003906 21.105469 -13.308594 C 21.125 -12.96875 21.125 -12.734375 21.125 -12.609375 C 21.125 -9.964844 20.785156 -7.691406 19.855469 -6.0625 C 18.90625 -4.417969 17.316406 -3.46875 14.863281 -3.46875 C 13.289062 -3.46875 12.003906 -4.132812 11.089844 -5.582031 C 10.179688 -7.03125 9.660156 -9.300781 9.660156 -12.519531 C 9.660156 -15.957031 9.695312 -18.566406 9.730469 -20.660156 C 9.765625 -22.734375 9.765625 -24.273438 9.75 -25.507812 L 2.484375 -25.167969 C 2.34375 -23.648438 2.234375 -21.625 2.164062 -19.40625 C 2.09375 -17.171875 2.058594 -14.722656 2.058594 -12.304688 C 2.058594 -8.085938 2.953125 -4.828125 4.9375 -2.628906 C 6.921875 -0.410156 9.980469 0.714844 14.273438 0.714844 Z M 14.273438 0.714844 "/></g></g></g><g fill="#545454" fill-opacity="1"><g transform="translate(247.106823, 118.394458)"><g><path d="M 11.449219 0.519531 C 13.039062 0.519531 14.808594 0.304688 16.457031 -0.195312 C 18.082031 -0.699219 19.585938 -1.484375 20.695312 -2.683594 C 21.804688 -3.882812 22.484375 -5.457031 22.484375 -7.476562 C 22.484375 -8.765625 22.25 -9.855469 21.769531 -10.769531 C 20.820312 -12.558594 19.230469 -13.773438 17.296875 -14.578125 C 15.347656 -15.363281 13.523438 -15.867188 12.019531 -16.257812 C 11.269531 -16.457031 10.605469 -16.652344 10.035156 -16.851562 C 8.890625 -17.242188 8.136719 -17.671875 8.136719 -18.296875 C 8.136719 -18.871094 8.550781 -19.316406 9.175781 -19.621094 C 9.800781 -19.925781 10.625 -20.105469 11.484375 -20.105469 C 12.644531 -20.105469 14.238281 -19.78125 15.703125 -19.316406 C 17.171875 -18.851562 18.476562 -18.261719 19.175781 -17.742188 L 21.375 -23.074219 C 20.570312 -23.878906 19.265625 -24.613281 17.601562 -25.132812 C 15.9375 -25.632812 13.898438 -25.9375 11.609375 -25.9375 C 8.300781 -25.9375 5.742188 -25.09375 4.023438 -23.683594 C 2.289062 -22.25 1.378906 -20.285156 1.378906 -17.996094 C 1.378906 -16.957031 1.574219 -16.0625 1.96875 -15.328125 C 2.753906 -13.828125 4.078125 -12.808594 5.722656 -12.089844 C 7.371094 -11.375 9.085938 -10.875 10.75 -10.464844 C 11.589844 -10.25 12.34375 -10.015625 13.003906 -9.785156 C 14.34375 -9.300781 15.257812 -8.710938 15.257812 -7.78125 C 15.257812 -7.046875 14.808594 -6.476562 14.113281 -6.117188 C 13.398438 -5.742188 12.46875 -5.546875 11.484375 -5.546875 C 10.554688 -5.546875 9.710938 -5.671875 8.960938 -5.9375 C 7.441406 -6.457031 6.226562 -7.191406 5.1875 -7.835938 C 4.667969 -8.15625 4.167969 -8.371094 3.703125 -8.476562 C 2.484375 -8.746094 1.644531 -8.351562 1.109375 -7.710938 C 0.574219 -7.046875 0.320312 -6.117188 0.375 -5.277344 C 0.535156 -3.972656 1.699219 -2.523438 3.632812 -1.394531 C 5.5625 -0.269531 8.246094 0.519531 11.449219 0.519531 Z M 11.449219 0.519531 "/></g></g></g><g fill="#545454" fill-opacity="1"><g transform="translate(247.596264, 155.214132)"><g><path d="M 12.003906 0.535156 C 12.734375 0.535156 13.503906 0.285156 14.058594 -0.0351562 C 14.613281 -0.359375 14.972656 -0.785156 14.917969 -1.164062 C 14.792969 -1.824219 14.703125 -2.648438 14.632812 -3.632812 C 14.488281 -5.617188 14.382812 -7.996094 14.328125 -10.570312 C 14.273438 -13.128906 14.273438 -15.652344 14.273438 -17.90625 C 14.273438 -19.03125 14.273438 -20.015625 14.292969 -20.875 C 16.457031 -20.820312 18.316406 -20.695312 19.675781 -20.5 C 20.675781 -20.355469 21.410156 -20.640625 21.894531 -21.125 C 22.375 -21.609375 22.609375 -22.25 22.609375 -22.804688 C 22.609375 -23.449219 22.449219 -24.058594 22.109375 -24.523438 C 21.75 -24.988281 21.25 -25.308594 20.605469 -25.382812 C 19.03125 -25.542969 16.902344 -25.648438 14.558594 -25.648438 C 12.21875 -25.648438 9.660156 -25.578125 7.207031 -25.398438 C 4.757812 -25.222656 2.414062 -24.953125 0.5 -24.59375 L 0.785156 -20.445312 C 2.773438 -20.640625 4.992188 -20.765625 7.226562 -20.839844 C 7.207031 -20.085938 7.207031 -19.230469 7.191406 -18.261719 L 7.136719 -15.222656 C 7.117188 -13.109375 7.082031 -10.929688 7.082031 -9.105469 C 7.066406 -7.28125 7.082031 -5.777344 7.101562 -5.078125 C 7.171875 -3.078125 7.371094 -1.679688 8.050781 -0.769531 C 8.730469 0.144531 9.910156 0.535156 12.003906 0.535156 Z M 12.003906 0.535156 "/></g></g></g></svg>