<svg id="Layer_1" data-name="Layer 1" xmlns="http://www.w3.org/2000/svg" viewBox="0 0 400 300" data-imageid="achievement-3" imageName="Recycling" class="illustrations_image" style="width: 240px;"><title>#74_recycle_twocolour</title><rect x="301.5" y="228.11" width="29.25" height="11.53" fill="#e6e6e6" opacity="0.58"/><rect x="301.5" y="239.64" width="40.37" height="11.53" fill="#e6e6e6"/><path d="M166.55,78.93s-27.83,10.41-20,52.06-38.6,23.56-48-8.18L88.24,127s12.94,46.46,43.14,49.23,46.61-29.15,48.52-50.5S166.55,78.93,166.55,78.93Z" fill="#043873" class="target-color"/><path d="M166.55,78.93s-27.83,10.41-20,52.06-38.6,23.56-48-8.18L88.24,127s12.94,46.46,43.14,49.23,46.61-29.15,48.52-50.5S166.55,78.93,166.55,78.93Z" fill="#fff" opacity="0.46"/><ellipse cx="204" cy="251.41" rx="169" ry="14.53" fill="#e6e6e6" opacity="0.45"/><path d="M180.1,49.11s-.32,7,1,11.59a3.53,3.53,0,0,0,4.4,2.36c2.3-.72,5.21-2.37,5.83-6.1l1.85-6.2a6.3,6.3,0,0,0-3.05-6.6C186.11,41.48,180.08,44.83,180.1,49.11Z" fill="#f4a28c"/><polygon points="192.73 53.93 195.33 76.75 182.66 77.28 185.85 60.47 192.73 53.93" fill="#f4a28c"/><path d="M181.85,49.33a28.46,28.46,0,0,0,6.43-.76,5.84,5.84,0,0,0,.26,6.4,4.75,4.75,0,0,0,5.82,1.66l-.48-9A7.17,7.17,0,0,0,190,41.43a26.58,26.58,0,0,0-3.07-1.34c-2.63-.93-6.35.95-8.74-.7a1.7,1.7,0,0,0-2.64,1.21c-.29,2.76.38,7,4.14,8.39A6.81,6.81,0,0,0,181.85,49.33Z" fill="#24285b"/><path d="M187.79,54.8s-.06-2.7,2-2.58,2.14,4-.6,4.5Z" fill="#f4a28c"/><path d="M180.12,53.53l-1.84,2.77a1.12,1.12,0,0,0,.78,1.73l2.7.4Z" fill="#f4a28c"/><path d="M186,61a8.25,8.25,0,0,0,4.57-1.36s-.18,4.24-5.67,7.12Z" fill="#ce8172" opacity="0.31"/><path d="M140.56,236s-9.05-2.47-11-10.88c0,0,14-2.84,14.41,11.63Z" fill="#043873" opacity="0.58" class="target-color"/><path d="M141.67,235.13s-6.32-10-.76-19.34c0,0,10.66,6.77,5.92,19.36Z" fill="#043873" opacity="0.73" class="target-color"/><path d="M143.3,235.13s3.34-10.55,13.43-12.55c0,0,1.89,6.86-6.54,12.58Z" fill="#043873" class="target-color"/><polygon points="136.74 234.9 138.57 247.44 150.12 247.49 151.82 234.96 136.74 234.9" fill="#24285b"/><path d="M232.94,239.37s2,3.64,5.55,3.37,5,3,2,4.38-11.73-1.31-11.73-1.31l-.59-5.07Z" fill="#043873" class="target-color"/><path d="M180.62,239.37s-2,3.64-5.55,3.37-5,3-2,4.38,11.73-1.31,11.73-1.31l.59-5.07Z" fill="#043873" class="target-color"/><path d="M165.3,172.87l13.11,66.5,8.55,1.71.28-33.81a32.32,32.32,0,0,1,23.23-30.75l6.83-2Z" fill="#24285b"/><path d="M217.3,174.51l18.36,65.17-10.34,2.14s-11.81-41.77-42.64-61Z" fill="#24285b"/><path d="M169.58,77s49.36-9.46,66.23,0-18.51,97.5-18.51,97.5l-52-1.64S119.8,86.06,169.58,77Z" fill="#043873" class="target-color"/><path d="M210.14,89.2s-9.37,10.85,0,25.09-13.53,59.57-13.53,59.57l20.69.65s17.07-44.9,20.45-64.25C240.8,92.79,210.14,89.2,210.14,89.2Z" opacity="0.08"/><path d="M210.4,92.49c-2.2-11.76,9.65-21.35,20.91-17.29,17.9,6.44,45.87,20.08,53.5,44.05,11.47,36.06-59.49,57.16-59.49,57.16l-4.73-10.07s41.64-11,38.36-38.79C256.32,105.28,214.31,113.33,210.4,92.49Z" fill="#043873" class="target-color"/><path d="M210.4,92.49c-2.2-11.76,9.65-21.35,20.91-17.29,17.9,6.44,45.87,20.08,53.5,44.05,11.47,36.06-59.49,57.16-59.49,57.16l-4.73-10.07s41.64-11,38.36-38.79C256.32,105.28,214.31,113.33,210.4,92.49Z" fill="#fff" opacity="0.46"/><polygon points="257.28 167.45 261.92 146.09 311.13 146.09 314.85 167.45 307.88 251.17 264.7 251.17 257.28 167.45" fill="#ffd200"/><polygon points="257.28 167.45 261.92 146.09 311.13 146.09 314.85 167.45 307.88 251.17 264.7 251.17 257.28 167.45" opacity="0.08"/><path d="M220.63,166.33s-11.45,6.94-6.8,12.2,10.45-4.43,10.45-4.43Z" fill="#f4a28c"/><polygon points="241.56 167.45 246.2 146.09 295.41 146.09 299.13 167.45 292.16 251.17 248.98 251.17 241.56 167.45" fill="#ffd200"/><polygon points="252.58 150.89 249.14 166.67 292.47 166.67 288.91 150.89 252.58 150.89" fill="#24285b"/><ellipse cx="271.66" cy="208.61" rx="11.53" ry="23.83" fill="#fff" opacity="0.46"/><rect x="239" y="166.67" width="79.39" height="12.14" fill="#ffd200"/><polygon points="318.39 178.81 298.18 178.81 299.13 166.67 318.39 166.67 318.39 178.81" opacity="0.08"/><path d="M96.47,123.66s-3.07-10.8-13-9.51S88.24,127,88.24,127Z" fill="#f4a28c"/><polygon points="83.47 114.15 73.54 98.86 108.18 103.29 92.19 116.81 83.47 114.15" fill="#24285b"/><path d="M81.72,120.53s-68.46,45.52-26,67.8,73.47-15.59,35-64.67Z" fill="#24285b"/><circle cx="78.47" cy="163.09" r="17" fill="#fff" opacity="0.23"/><polygon points="267.5 150.89 265 166.67 292.47 166.67 288.91 150.89 267.5 150.89" fill="#fff" opacity="0.14"/></svg>