<svg xmlns="http://www.w3.org/2000/svg" xmlns:xlink="http://www.w3.org/1999/xlink" viewBox="0 0 400 300" data-imageid="hero-employee-b" imageName="Team Work" class="illustrations_image" style="width: 240px;"><defs><linearGradient id="linear-gradient" x1="258.39" y1="225.71" x2="250.67" y2="235.49" gradientUnits="userSpaceOnUse"><stop offset="0" stop-color="gray"/><stop offset="1" stop-color="#fff"/></linearGradient><linearGradient id="linear-gradient-2" x1="218.51" y1="209.98" x2="196.5" y2="226.93" xlink:href="#linear-gradient"/><linearGradient id="linear-gradient-3" x1="181.79" y1="241.8" x2="169.91" y2="256.84" xlink:href="#linear-gradient"/><linearGradient id="linear-gradient-4" x1="117.82" y1="208.14" x2="98.94" y2="237.44" xlink:href="#linear-gradient"/></defs><title>a</title><g style="isolation:isolate"><g id="Layer_2" data-name="Layer 2"><path d="M335.73,181.43l-115.5-67.17a5.46,5.46,0,0,0-5.46,0L42,213.1a5.46,5.46,0,0,0,0,9.47l110.45,63.77a17.83,17.83,0,0,0,17.83,0l165.4-95.46A5.46,5.46,0,0,0,335.73,181.43Z" fill="#ffbf41"/><path d="M255.76,226.4c-4.39,2.56-7.77,4.37-14.52,8.22,5.11,3.11,7.35,4.9,7.93,5.24L264.35,231C263.17,230.33,261.23,229.11,255.76,226.4Z" fill="url(#linear-gradient)" style="mix-blend-mode:multiply"/><path d="M207.06,200.7c-14.73,8.59-25.26,14.36-47.92,27.3,17.15,10.42,30.44,20,32.37,21.14l50.92-29.89C238.48,217.17,225.4,209.77,207.06,200.7Z" fill="url(#linear-gradient-2)" style="mix-blend-mode:multiply"/><path d="M176,242.31c-6.67,3.89-11.44,6.5-21.69,12.36,7.76,4.72,13.78,9.06,14.66,9.57L192,250.71C190.25,249.77,184.33,246.42,176,242.31Z" fill="url(#linear-gradient-3)" style="mix-blend-mode:multiply"/><path d="M93,202.26C78.23,210.85,71.7,213.68,49,226.62,66.19,237,110.18,261.9,112.11,263l40.56-20.72C148.71,240.22,111.3,211.33,93,202.26Z" fill="url(#linear-gradient-4)" style="mix-blend-mode:multiply"/><polyline points="91.12 106.26 91.12 135.15 98.9 139.24 98.9 107.43" fill="#e85642"/><polygon points="284.73 65.7 284.73 165.33 152.67 242.31 152.67 129.12 284.73 65.7" fill="#68e1fd" class="target-color"/><polygon points="93.01 107.43 93.01 207.44 152.67 242.31 152.67 140.21 93.01 107.43" fill="#68e1fd" class="target-color"/><polygon points="284.73 65.7 284.73 165.33 152.67 242.31 152.67 129.12 284.73 65.7" fill="#3795a5" opacity="0.51"/><polyline points="94.43 182.58 94.43 106.59 152.67 140.21 152.67 217.65" fill="#68e1fd" class="target-color"/><polygon points="93.01 107.43 93.01 207.44 152.67 242.31 152.67 140.21 93.01 107.43" fill="#3795a5" opacity="0.78"/><polygon points="229.78 30.34 93.01 107.38 93.01 107.43 152.1 141.12 284.73 65.7 229.78 30.34" fill="#68e1fd" class="target-color"/><polygon points="152.94 142.06 152.94 170.35 162.5 175.87 162.5 147.59 152.94 142.06" fill="#e85642"/><polyline points="162.5 147.59 162.5 135.2 91.12 93.52 91.12 106.26 152.94 142.06" fill="#e85642"/><path d="M183.69,233.71c-3.92-.34-8.06-1.53-11-4.21v11.63a12.07,12.07,0,0,0,12.07,12.07h0a12.07,12.07,0,0,0,12.07-12.07V229.31C192.76,231,188.08,234.1,183.69,233.71Z" fill="#68e1fd" class="target-color"/><ellipse cx="184.8" cy="229.43" rx="12.07" ry="6.4" fill="#5ed18d"/><path d="M184.8,230.51s-8.21-1.21-10.38-14.49C174.42,216,181.42,219.89,184.8,230.51Z" fill="#5ed18d"/><path d="M186,228.82s-9.42-16.9,0-28.25A47.36,47.36,0,0,1,186,228.82Z" fill="#5ed18d"/><path d="M184.8,218.2s-8.21-1.21-10.38-14.49C174.42,203.71,181.42,207.57,184.8,218.2Z" fill="#5ed18d"/><path d="M185.8,223.61s-2.06-8,9.35-15.17C195.15,208.44,194.29,216.39,185.8,223.61Z" fill="#5ed18d"/><ellipse cx="184.8" cy="229.43" rx="12.07" ry="6.4" fill="#146666"/><path d="M184.8,230.51s-8.21-1.21-10.38-14.49C174.42,216,181.42,219.89,184.8,230.51Z" fill="#5ed18d"/><path d="M186,228.82s-9.42-16.9,0-28.25A47.36,47.36,0,0,1,186,228.82Z" fill="#5ed18d"/><path d="M184.8,218.2s-8.21-1.21-10.38-14.49C174.42,203.71,181.42,207.57,184.8,218.2Z" fill="#5ed18d"/><path d="M185.8,223.61s-2.06-8,9.35-15.17C195.15,208.44,194.29,216.39,185.8,223.61Z" fill="#5ed18d"/><polygon points="228.86 226.97 249.8 215.5 249.8 191.95 224.88 202.51 228.86 226.97" fill="#e87d34"/><polygon points="204.32 189.24 204.32 212.8 228.86 226.97 229.4 203.72 204.32 189.24" fill="#ef8a3f"/><path d="M224.52,177.14c-6.45,4.42-13.54,7.77-20.2,11.82v.28l25.08,14.48,20.4-11.78Z" fill="#ff9a55"/><path d="M232,182.12l-7.48-3.37s1.79,6.58.14,7.34c-.25.11-.68-.08-.92-.15-1.78-.55-3.48-1.66-5.4-1.64-1.49,0-3.82,1.26-2.68,3,.93,1.46,11.8,8,15.59,6.72C234.8,192.87,232,182.12,232,182.12Z" fill="#07375d"/><path d="M251.84,84.37s.25-6.17-.31-7.42-4.33-5-5.41-5.12-.75.51-.75.51-2-.86-2.27-.53-.15.74.41,1.2c0,0-1.27-.25-1.38.31s1,1,1,1-1.08.1-1,.66,2,1.51,2.35,2,1.38.85,1.38,1.56a4.31,4.31,0,0,0,.82,3.82,9.65,9.65,0,0,1,1.78,4S251.49,85.89,251.84,84.37Z" fill="#ffc799"/><path d="M256.63,214.2s2.36,10.27,1.44,10.86-5.08,1.23-4.22,3.73,5.32,3.25,7,3.59,4.8-2.86,4.8-4.21,1.77-7.73,1.68-8.75-4-6.9-4-6.9" fill="#07375d"/><path d="M268.81,144.81s-.11,43.44.88,49.48,2.88,19.91,2.88,19.91-8.38,3-15.94,0c0,0-7.9-35.3-5.44-55.49S268.81,144.81,268.81,144.81Z" fill="#9bc634"/><path d="M266.66,146.67c-5.54-1.46-19.24,0-19.24,0s-19.22-3.77-25.11-3.34-7.81,4-6.63,9,5.74,28,5.74,28,5.15,4.37,13.7,2.89L232.17,162s17.82,8.5,28,4.32a15.07,15.07,0,0,0,6.73-5.26C266.84,156.25,266.59,151.46,266.66,146.67Z" fill="#9bc634"/><path d="M268.78,145.74c1.42-8.06,2.22-26.21.07-32-2.56-6.82-15.43.59-20.42,4.28-2.83,2.09-.65,24.43,0,30.57C254,152.51,265,151.5,268.78,145.74Z" fill="#ff7b61"/><path d="M268.37,113.66s-1.86-1.81-3.36-3.29c-.09-.45-.88-1.17-.89-1.6a21.16,21.16,0,0,1-3.57-6.1c-1.43-4-5.71-22.86-5.71-22.86s-6.67,1.07-9.68,5.68c0,0,4,19.2,7.14,25.87a31.13,31.13,0,0,0,7.64,10.23C264.6,120.51,265.38,110.86,268.37,113.66Z" fill="#ff7b61"/><path d="M255.74,108.19c.13.19,0,5.45,0,5.45s1.91.14,5.54-2.36l-.29-5.55Z" fill="#ffc799"/><path d="M257.46,95.82s-1.63,4-3.32,5.35-3.21,4.41-1.75,7,11.84-.67,12-3.67S263.77,94.14,257.46,95.82Z" fill="#ffc799"/><path d="M267.34,96.28a8.43,8.43,0,0,0-5.87-2.7c-3.43.07-5.19,2-4.86,4s2.81,2.76,2.89,3.92-1.61,6.64-.8,8,2.34,1.19,3.87,1.14,6.57-3.7,7.52-8.08A5.81,5.81,0,0,0,267.34,96.28Z" fill="#352118"/><path d="M252.41,116.16s-14.79-2.16-16-2.91S233.2,100,233.2,100a73.55,73.55,0,0,0-7.56,2.25s.11,14.1,2.05,18.29,20,8.07,20,8.07" fill="#ff7b61"/><path d="M250.72,167.33s7.85,1.65,13.64-3.54L252.19,188.2S250.46,170.74,250.72,167.33Z" fill="#90ba1c"/><polygon points="228.86 94.81 249.8 83.33 249.8 59.78 224.88 70.34 228.86 94.81" fill="#e87d34"/><polygon points="204.32 57.08 204.32 80.63 228.86 94.81 229.4 71.56 204.32 57.08" fill="#ef8a3f"/><path d="M224.52,45c-6.45,4.42-13.54,7.77-20.2,11.82v.28L229.4,71.56l20.4-11.78Z" fill="#ff9a55"/><path d="M224.33,94.75a24.31,24.31,0,0,1,2.55,6.52c0,.09.08.38.15.77l1.7-.28c1.25-.24,2.5-.52,3.73-.86-.18-1.88-.4-4-.64-5.6a16.17,16.17,0,0,1,.88-3.84,4.45,4.45,0,0,0,.36-2.72.63.63,0,0,0-.58-.44c-.66,0-.9.53-1.24,1-.45.65-.87,1.32-1.29,2-1.66-1.86-4.2-4.15-5.12-4.28-1.3-.19-.9.62-.9.62s-2.45-1-2.75-.65-.18.89.5,1.45c0,0-1.54-.31-1.67.37s1.17,1.23,1.17,1.23-1.31.12-1.17.8,2.48,1.83,2.85,2.37S223.93,94.14,224.33,94.75Z" fill="#ffc799"/><path d="M250.48,78.65a1.35,1.35,0,0,1-.31-.19.49.49,0,0,0,.29-.56,7.94,7.94,0,0,0-.54-1.63.52.52,0,0,0,.49-.84,15.91,15.91,0,0,0-2.19-2.11c-.4-.32-.88-.86-1.43-.8a.53.53,0,0,0-.48.37c-.58,1.46,1.69,2.39,2.05,3.55s.3,2.5,1.61,3.07C250.55,79.77,251.06,78.91,250.48,78.65Z" fill="#ffc799"/><polygon points="192.04 158.05 152.67 201.73 152.94 170.35 192.04 158.05" fill="#3795a5"/><polygon points="91.12 106.26 91.12 93.52 117.25 78.74 192.04 117.9 192.04 158.05 162.5 175.87 162.5 147.59 91.12 106.26" fill="#ff7b61"/><polygon points="162.5 135.2 192.04 117.9 192.04 158.05 162.5 175.87 162.5 135.2" fill="#ff8373"/><polyline points="91.12 135.15 162.5 175.87 162.5 135.2 91.12 93.52" fill="#e85642"/><path d="M131.16,120.75a14.75,14.75,0,0,0,1.29-4.38c.09-1.33-1-5.94,0-6.24s1.71,3.21,1.71,3.21.19-7.59,1.14-7.59.95,4.06.95,4.06.85-5.2,1.8-5,0,6.18,0,6.18.77-5.13,1.85-4.75,0,5.53,0,5.53.89-2.35,1.58-1.62-2.29,7.61-2.67,8.36-3.09,5-3.36,5.22S131.16,120.75,131.16,120.75Z" fill="#ffc799"/><path d="M117,115.09c-1.86,1.16,5.25-7.28,5.15-8.61s1-5.94,0-6.24-1.71,3.21-1.71,3.21-.19-7.59-1.14-7.59-.95,4.06-.95,4.06-.85-5.2-1.8-5,0,6.18,0,6.18-.77-5.13-1.85-4.75,0,5.53,0,5.53-.89-2.35-1.58-1.62,1.55,5.92,1.92,6.67-4.6,6.68-4.33,6.9S117,115.09,117,115.09Z" fill="#ffc799"/><path d="M88.79,128.67s13.29-10.25,14.48-11,11.53-11.08,11.53-11.08a65,65,0,0,0,7,3.12s-9.09,12.16-13,15.61c-3.48,3-14.21,11.38-14.21,11.38" fill="#ff7b61"/><path d="M89,219.4s-1.88,8-.73,8.9c0,0,6.93-3.65,8-.66.86,2.36-3.93,4.23-7.14,5.73-2.73,1.28-8.09,3-9.07.61s3.63-19.28,3.63-19.28" fill="#07375d"/><path d="M109.9,232.62s-.57,8.22.7,8.9c0,0,7.27-3.89,8.81-1.11,1.22,2.19-3.95,5.28-6.67,6.59s-8,3.59-9.33,1.43.52-19.61.52-19.61" fill="#07375d"/><path d="M91,223.65c2.51-11,10.28-46.46,9.35-57.64-1.11-13.31-11.47-9.42-11.47-9.42s-3.75,19.76-6.51,35c-2.18,12.09-4,27.74-4.61,33.74C82.13,227.38,87.74,227.09,91,223.65Z" fill="#352118"/><path d="M113.74,235.83c-.22-17.34-.37-63.18-5.32-73.92-6.25-13.55-12.85.2-12.85,6.52,0,5.83,4.77,63.8,5.51,72C105.47,242.51,112.19,240.52,113.74,235.83Z" fill="#352118"/><path d="M108.57,162.56c.73-7,2.66-27.84-.07-29.86-5-3.69-17.16-10.85-19.72-4-2,5.29-1.5,21.22-.3,30C94.33,162.15,101.89,164.24,108.57,162.56Z" fill="#ff7b61"/><path d="M101.19,122.82c-.13.19,0,5.45,0,5.45s-1.91.14-5.54-2.36l.29-5.55Z" fill="#ffc799"/><path d="M99.47,110.45s1.63,4,3.32,5.35,3.21,4.41,1.75,7-11.84-.67-12-3.67S93.16,108.76,99.47,110.45Z" fill="#ffc799"/><path d="M89.59,110.91a8.43,8.43,0,0,1,5.87-2.7c3.43.07,5.19,2,4.86,4s-2.81,2.76-2.89,3.92,1.61,6.64.8,8-2.34,1.19-3.87,1.14-6.57-3.7-7.52-8.08A5.81,5.81,0,0,1,89.59,110.91Z" fill="#352118"/><path d="M104.52,130.79s14.79-2.16,16-2.91S132,116.79,132,116.79a65,65,0,0,0,7,3.12s-9.09,12.16-13,15.61c-3.48,3-17.77,9.55-17.77,9.55" fill="#ff7b61"/></g></g></svg>